<?xml version="1.0" encoding="UTF-8" standalone="no"?>
<svg
   xmlns:dc="http://purl.org/dc/elements/1.1/"
   xmlns:cc="http://creativecommons.org/ns#"
   xmlns:rdf="http://www.w3.org/1999/02/22-rdf-syntax-ns#"
   xmlns:svg="http://www.w3.org/2000/svg"
   xmlns="http://www.w3.org/2000/svg"
   xmlns:sodipodi="http://sodipodi.sourceforge.net/DTD/sodipodi-0.dtd"
   xmlns:inkscape="http://www.inkscape.org/namespaces/inkscape"
   inkscape:version="1.0 (4035a4fb49, 2020-05-01)"
   id="svg1120"
   version="1.1"
   viewBox="0 0 293.80023 121.19505"
   height="121.19505mm"
   width="293.80023mm">
  <defs
     id="defs1114">
    <linearGradient
       gradientTransform="matrix(0.26458333,0,0,0.26458333,-69.396426,5.1026729)"
       id="paint1_linear"
       x1="56"
       y1="0"
       x2="1441.63"
       y2="575.159"
       gradientUnits="userSpaceOnUse">
      <stop
         stop-color="#1565FF"
         id="stop850" />
      <stop
         offset="1"
         stop-color="#003498"
         id="stop852" />
    </linearGradient>
    <clipPath
       id="clip1">
      <rect
         y="0"
         x="0"
         width="25"
         height="25"
         fill="#ffffff"
         transform="translate(451,377)"
         id="rect873" />
    </clipPath>
    <linearGradient
       gradientTransform="matrix(0.26458333,0,0,0.26458333,-62.712285,-601.16296)"
       id="paint0_linear"
       x1="0"
       y1="1804"
       x2="1517.55"
       y2="3038.48"
       gradientUnits="userSpaceOnUse">
      <stop
         stop-color="#1565FF"
         id="stop845" />
      <stop
         offset="1"
         stop-color="#003498"
         id="stop847" />
    </linearGradient>
    <filter
       id="filter17_d"
       x="796.17902"
       y="1990.58"
       width="348"
       height="375.41699"
       filterUnits="userSpaceOnUse"
       color-interpolation-filters="sRGB">
      <feFlood
         flood-opacity="0"
         result="BackgroundImageFix"
         id="feFlood794" />
      <feColorMatrix
         in="SourceAlpha"
         type="matrix"
         values="0 0 0 0 0 0 0 0 0 0 0 0 0 0 0 0 0 0 127 0"
         result="hardAlpha"
         id="feColorMatrix796" />
      <feOffset
         id="feOffset798" />
      <feGaussianBlur
         stdDeviation="3.5"
         id="feGaussianBlur800" />
      <feComposite
         in2="hardAlpha"
         operator="out"
         id="feComposite802" />
      <feColorMatrix
         type="matrix"
         values="0 0 0 0 0 0 0 0 0 0 0 0 0 0 0 0 0 0 0.15 0"
         id="feColorMatrix804" />
      <feBlend
         mode="normal"
         in2="BackgroundImageFix"
         result="effect1_dropShadow"
         id="feBlend806" />
      <feBlend
         mode="normal"
         in="SourceGraphic"
         in2="effect1_dropShadow"
         result="shape"
         id="feBlend808" />
    </filter>
    <filter
       id="filter18_d"
       x="368.17899"
       y="1990.58"
       width="348"
       height="375.41699"
       filterUnits="userSpaceOnUse"
       color-interpolation-filters="sRGB">
      <feFlood
         flood-opacity="0"
         result="BackgroundImageFix"
         id="feFlood811" />
      <feColorMatrix
         in="SourceAlpha"
         type="matrix"
         values="0 0 0 0 0 0 0 0 0 0 0 0 0 0 0 0 0 0 127 0"
         result="hardAlpha"
         id="feColorMatrix813" />
      <feOffset
         id="feOffset815" />
      <feGaussianBlur
         stdDeviation="3.5"
         id="feGaussianBlur817" />
      <feComposite
         in2="hardAlpha"
         operator="out"
         id="feComposite819" />
      <feColorMatrix
         type="matrix"
         values="0 0 0 0 0 0 0 0 0 0 0 0 0 0 0 0 0 0 0.15 0"
         id="feColorMatrix821" />
      <feBlend
         mode="normal"
         in2="BackgroundImageFix"
         result="effect1_dropShadow"
         id="feBlend823" />
      <feBlend
         mode="normal"
         in="SourceGraphic"
         in2="effect1_dropShadow"
         result="shape"
         id="feBlend825" />
    </filter>
    <filter
       id="filter19_d"
       x="370"
       y="2408"
       width="484"
       height="102"
       filterUnits="userSpaceOnUse"
       color-interpolation-filters="sRGB">
      <feFlood
         flood-opacity="0"
         result="BackgroundImageFix"
         id="feFlood828" />
      <feColorMatrix
         in="SourceAlpha"
         type="matrix"
         values="0 0 0 0 0 0 0 0 0 0 0 0 0 0 0 0 0 0 127 0"
         result="hardAlpha"
         id="feColorMatrix830" />
      <feOffset
         dy="4"
         id="feOffset832" />
      <feGaussianBlur
         stdDeviation="2"
         id="feGaussianBlur834" />
      <feComposite
         in2="hardAlpha"
         operator="out"
         id="feComposite836" />
      <feColorMatrix
         type="matrix"
         values="0 0 0 0 0 0 0 0 0 0 0 0 0 0 0 0 0 0 0.25 0"
         id="feColorMatrix838" />
      <feBlend
         mode="normal"
         in2="BackgroundImageFix"
         result="effect1_dropShadow"
         id="feBlend840" />
      <feBlend
         mode="normal"
         in="SourceGraphic"
         in2="effect1_dropShadow"
         result="shape"
         id="feBlend842" />
    </filter>
  </defs>
  <sodipodi:namedview
     inkscape:window-maximized="1"
     inkscape:window-y="-8"
     inkscape:window-x="-8"
     inkscape:window-height="1377"
     inkscape:window-width="2560"
     fit-margin-bottom="0"
     fit-margin-right="0"
     fit-margin-left="0"
     fit-margin-top="0"
     showgrid="false"
     inkscape:document-rotation="0"
     inkscape:current-layer="layer1"
     inkscape:document-units="mm"
     inkscape:cy="531.18536"
     inkscape:cx="767.25554"
     inkscape:zoom="0.7"
     inkscape:pageshadow="2"
     inkscape:pageopacity="0.0"
     borderopacity="1.0"
     bordercolor="#666666"
     pagecolor="#ffffff"
     id="base" />
  <metadata
     id="metadata1117">
    <rdf:RDF>
      <cc:Work
         rdf:about="">
        <dc:format>image/svg+xml</dc:format>
        <dc:type
           rdf:resource="http://purl.org/dc/dcmitype/StillImage" />
        <dc:title></dc:title>
      </cc:Work>
    </rdf:RDF>
  </metadata>
  <g
     transform="translate(28.183836,124.35394)"
     id="layer1"
     inkscape:groupmode="layer"
     inkscape:label="Warstwa 1">
    <path
       style="stroke-width:0.264583"
       d="m 71.458512,-120.59421 c -0.2032,-0.37306 -0.4826,-0.65617 -0.8382,-0.85196 -0.3556,-0.19579 -0.770459,-0.29104 -1.2446,-0.29104 -0.524928,0 -0.9906,0.11642 -1.397,0.35454 -0.4064,0.23813 -0.7239,0.57679 -0.9525,1.016 -0.2286,0.43921 -0.3429,0.94721 -0.3429,1.524 0,0.59267 0.1143,1.10861 0.3429,1.55046 0.237072,0.43921 0.563041,0.77788 0.9779,1.016 0.414872,0.23548 0.897472,0.35454 1.4478,0.35454 0.677341,0 1.2319,-0.17727 1.6637,-0.53445 0.4318,-0.36248 0.715441,-0.86784 0.8509,-1.51078 h -3.048 v -1.35731 h 4.8006 v 1.54781 c -0.118528,0.61913 -0.372528,1.19063 -0.762,1.7145 -0.389459,0.52653 -0.893228,0.94986 -1.5113,1.27 -0.6096,0.31486 -1.2954,0.47096 -2.0574,0.47096 -0.855128,0 -1.629828,-0.1905 -2.3241,-0.5715 -0.6858,-0.38893 -1.227659,-0.92868 -1.6256,-1.61396 -0.389459,-0.68527 -0.5842,-1.46314 -0.5842,-2.33627 0,-0.87312 0.194741,-1.651 0.5842,-2.33627 0.397941,-0.69585 0.9398,-1.23296 1.6256,-1.61396 0.694272,-0.38893 1.464741,-0.58472 2.3114,-0.58472 0.999072,0 1.8669,0.24606 2.6035,0.73818 0.7366,0.48154 1.2446,1.16417 1.524,2.04523 z m 10.116352,2.52677 c 0,0.254 -0.01691,0.48154 -0.0508,0.68527 h -5.1435 c 0.0423,0.508 0.22013,0.90488 0.5334,1.19327 0.313258,0.2884 0.6985,0.43127 1.1557,0.43127 0.6604,0 1.1303,-0.2831 1.4097,-0.84931 h 1.9177 c -0.2032,0.67734 -0.59267,1.23561 -1.1684,1.67481 -0.575742,0.43392 -1.2827,0.64823 -2.1209,0.64823 -0.677342,0 -1.286942,-0.14816 -1.8288,-0.4445 -0.5334,-0.30427 -0.9525,-0.73289 -1.2573,-1.28323 -0.296342,-0.55033 -0.4445,-1.18533 -0.4445,-1.90499 0,-0.72761 0.148158,-1.36525 0.4445,-1.91559 0.29633,-0.55033 0.7112,-0.97366 1.2446,-1.27 0.5334,-0.29633 1.14723,-0.4445 1.8415,-0.4445 0.668858,0 1.265758,0.14288 1.7907,0.43127 0.5334,0.2884 0.94403,0.6985 1.2319,1.23032 0.29633,0.52652 0.4445,1.13241 0.4445,1.81768 z m -1.8415,-0.508 c -0.008,-0.45773 -0.17357,-0.82285 -0.4953,-1.09273 -0.321742,-0.28046 -0.715442,-0.41804 -1.1811,-0.41804 -0.44027,0 -0.8128,0.13494 -1.1176,0.40481 -0.296342,0.26194 -0.47837,0.63236 -0.5461,1.10596 z m 5.209378,-1.397 v 3.40254 c 0,0.23813 0.055,0.41011 0.1651,0.52123 0.118531,0.10054 0.313262,0.15346 0.5842,0.15346 h 0.8255 v 1.49754 h -1.1176 c -1.4986,0 -2.2479,-0.7276 -2.2479,-2.18546 v -3.38931 h -0.8382 v -1.4605 h 0.8382 v -1.74096 h 1.7907 v 1.74096 h 1.5748 v 1.4605 z m 5.42263,2.05581 c 0,-0.7276 0.148172,-1.3626 0.4445,-1.905 0.296342,-0.55033 0.706972,-0.97366 1.2319,-1.27 0.524942,-0.30427 1.126072,-0.45508 1.8034,-0.45508 0.872072,0 1.591742,0.21961 2.159,0.65881 0.575742,0.43127 0.960972,1.04246 1.1557,1.82827 h -1.9177 c -0.1016,-0.30427 -0.275158,-0.53975 -0.5207,-0.70908 -0.237058,-0.17992 -0.5334,-0.26723 -0.889,-0.26723 -0.508,0 -0.910158,0.18521 -1.2065,0.55827 -0.296328,0.36513 -0.4445,0.88371 -0.4445,1.56104 0,0.6694 0.148172,1.19063 0.4445,1.56369 0.296342,0.36248 0.6985,0.54504 1.2065,0.54504 0.719672,0 1.189572,-0.32014 1.4097,-0.96573 h 1.9177 c -0.194728,0.762 -0.579958,1.3679 -1.1557,1.81769 -0.575728,0.44715 -1.2954,0.67204 -2.159,0.67204 -0.677328,0 -1.278458,-0.14816 -1.8034,-0.4445 -0.524928,-0.30427 -0.935558,-0.7276 -1.2319,-1.27 -0.296328,-0.55033 -0.4445,-1.18798 -0.4445,-1.91823 z m 14.739148,-3.51631 v 7.03527 h -1.7907 v -0.889 c -0.2286,0.30427 -0.52916,0.54504 -0.9017,0.72496 -0.36406,0.16933 -0.762,0.254 -1.1938,0.254 -0.55034,0 -1.03716,-0.11642 -1.460496,-0.34396 -0.423341,-0.23812 -0.757772,-0.57943 -1.0033,-1.02923 -0.237072,-0.45773 -0.3556,-0.99748 -0.3556,-1.62454 v -4.1275 h 1.777996 v 3.8735 c 0,0.55827 0.1397,0.98954 0.4191,1.29381 0.2794,0.29634 0.6604,0.4445 1.143,0.4445 0.49106,0 0.8763,-0.14816 1.1557,-0.4445 0.2794,-0.30427 0.4191,-0.73554 0.4191,-1.29381 v -3.8735 z m 4.44685,7.14904 c -0.57573,0 -1.0922,-0.10054 -1.5494,-0.30427 -0.4572,-0.21166 -0.82127,-0.49477 -1.0922,-0.85196 -0.26247,-0.35454 -0.4064,-0.74877 -0.4318,-1.18004 h 1.7907 c 0.0339,0.26988 0.1651,0.49477 0.3937,0.67204 0.23707,0.17992 0.52917,0.26723 0.8763,0.26723 0.33867,0 0.60113,-0.0661 0.7874,-0.20373 0.19473,-0.13493 0.2921,-0.30691 0.2921,-0.51858 0,-0.23019 -0.11853,-0.39952 -0.3556,-0.508 -0.2286,-0.11906 -0.5969,-0.24606 -1.1049,-0.381 -0.52493,-0.127 -0.95673,-0.25929 -1.2954,-0.39423 -0.3302,-0.13494 -0.61807,-0.34396 -0.8636,-0.62177 -0.23707,-0.28046 -0.3556,-0.65617 -0.3556,-1.13242 0,-0.38893 0.11007,-0.74347 0.3302,-1.06627 0.2286,-0.32014 0.55033,-0.57414 0.9652,-0.762 0.42333,-0.1852 0.91863,-0.27781 1.4859,-0.27781 0.8382,0 1.50707,0.21167 2.0066,0.635 0.49953,0.41275 0.7747,0.97631 0.8255,1.68804 h -1.7018 c -0.0254,-0.28046 -0.14393,-0.50006 -0.3556,-0.66146 -0.2032,-0.16933 -0.47837,-0.254 -0.8255,-0.254 -0.32173,0 -0.5715,0.0609 -0.7493,0.17992 -0.16933,0.11642 -0.254,0.28311 -0.254,0.49477 0,0.23548 0.11853,0.41804 0.3556,0.54504 0.23707,0.11907 0.60537,0.24077 1.1049,0.36777 0.508,0.127 0.9271,0.2593 1.2573,0.39423 0.3302,0.13494 0.61383,0.34661 0.8509,0.635 0.24553,0.28046 0.37253,0.65352 0.381,1.11919 0,0.40481 -0.1143,0.76994 -0.3429,1.09008 -0.22013,0.3228 -0.54187,0.5768 -0.9652,0.762 -0.41487,0.17992 -0.9017,0.26723 -1.4605,0.26723 z m 6.29814,-5.68854 v 3.40254 c 0,0.23813 0.055,0.41011 0.1651,0.52123 0.11853,0.10054 0.31327,0.15346 0.5842,0.15346 h 0.8255 v 1.49754 h -1.1176 c -1.4986,0 -2.2479,-0.7276 -2.2479,-2.18546 v -3.38931 h -0.8382 v -1.4605 h 0.8382 v -1.74096 h 1.7907 v 1.74096 h 1.5748 v 1.4605 z m 5.97773,5.68854 c -0.67733,0 -1.28693,-0.14816 -1.8288,-0.4445 -0.54186,-0.30427 -0.96943,-0.73289 -1.2827,-1.28323 -0.3048,-0.55033 -0.4572,-1.18533 -0.4572,-1.905 0,-0.71966 0.15664,-1.35466 0.4699,-1.905 0.32174,-0.55033 0.75777,-0.97366 1.3081,-1.27 0.55034,-0.30427 1.16417,-0.45508 1.8415,-0.45508 0.67734,0 1.29117,0.15081 1.8415,0.45508 0.55034,0.29634 0.98214,0.71967 1.2954,1.27 0.32174,0.55034 0.4826,1.18534 0.4826,1.905 0,0.71967 -0.1651,1.35467 -0.4953,1.905 -0.32173,0.55034 -0.762,0.97896 -1.3208,1.28323 -0.55033,0.29634 -1.1684,0.4445 -1.8542,0.4445 z m 0,-1.54781 c 0.32174,0 0.6223,-0.0767 0.9017,-0.23019 0.28787,-0.16139 0.51647,-0.39687 0.6858,-0.71173 0.16934,-0.3122 0.254,-0.6932 0.254,-1.143 0,-0.66675 -0.1778,-1.18004 -0.5334,-1.53458 -0.34713,-0.36512 -0.7747,-0.54769 -1.2827,-0.54769 -0.508,0 -0.93556,0.18257 -1.2827,0.54769 -0.33866,0.35454 -0.508,0.86783 -0.508,1.53458 0,0.6694 0.1651,1.18534 0.4953,1.55046 0.33867,0.35454 0.762,0.53446 1.27,0.53446 z m 13.71231,-5.70442 c 0.8636,0 1.55785,0.26723 2.0828,0.80169 0.5334,0.52388 0.8001,1.26206 0.8001,2.20927 v 4.1275 h -1.778 v -3.88673 c 0,-0.55033 -0.1397,-0.96837 -0.4191,-1.25677 -0.2794,-0.29633 -0.6604,-0.4445 -1.143,-0.4445 -0.4826,0 -0.86785,0.14817 -1.1557,0.4445 -0.2794,0.2884 -0.4191,0.70644 -0.4191,1.25677 v 3.88673 h -1.778 v -3.88673 c 0,-0.55033 -0.1397,-0.96837 -0.4191,-1.25677 -0.2794,-0.29633 -0.6604,-0.4445 -1.143,-0.4445 -0.49108,0 -0.88055,0.14817 -1.1684,0.4445 -0.2794,0.2884 -0.4191,0.70644 -0.4191,1.25677 v 3.88673 h -1.778 v -7.03527 h 1.778 v 0.84931 c 0.2286,-0.29633 0.5207,-0.52916 0.8763,-0.6985 0.36405,-0.16933 0.762,-0.254 1.1938,-0.254 0.55032,0 1.0414,0.11907 1.4732,0.35719 0.4318,0.22754 0.76622,0.55827 1.0033,0.98954 0.2286,-0.40481 0.5588,-0.73289 0.9906,-0.97631 0.44025,-0.24606 0.9144,-0.37042 1.4224,-0.37042 z m 5.47184,-0.73554 c -0.31327,0 -0.57573,-0.0979 -0.7874,-0.29104 -0.2032,-0.20373 -0.3048,-0.45508 -0.3048,-0.75142 0,-0.29633 0.1016,-0.53975 0.3048,-0.73554 0.21167,-0.20373 0.47413,-0.30427 0.7874,-0.30427 0.31327,0 0.5715,0.10054 0.7747,0.30427 0.21167,0.19579 0.3175,0.43921 0.3175,0.73554 0,0.29634 -0.10583,0.54769 -0.3175,0.75142 -0.2032,0.19315 -0.46143,0.29104 -0.7747,0.29104 z m 0.8763,0.83873 v 7.03527 h -1.778 v -7.03527 z m 3.38216,5.57477 h 3.1369 v 1.4605 h -5.1562 v -1.43404 l 3.0734,-4.14073 h -3.0607 v -1.4605 h 5.1054 v 1.43404 z m 11.05403,-2.20927 c 0,0.254 -0.0169,0.48154 -0.0508,0.68527 h -5.1435 c 0.0423,0.508 0.22013,0.90488 0.5334,1.19327 0.31328,0.2884 0.6985,0.43127 1.1557,0.43127 0.6604,0 1.1303,-0.2831 1.4097,-0.84931 h 1.9177 c -0.2032,0.67734 -0.59267,1.23561 -1.1684,1.67481 -0.57572,0.43392 -1.2827,0.64823 -2.1209,0.64823 -0.67732,0 -1.28693,-0.14816 -1.8288,-0.4445 -0.5334,-0.30427 -0.9525,-0.73289 -1.2573,-1.28323 -0.29633,-0.55033 -0.4445,-1.18533 -0.4445,-1.90499 0,-0.72761 0.14817,-1.36525 0.4445,-1.91559 0.29633,-0.55033 0.7112,-0.97366 1.2446,-1.27 0.5334,-0.29633 1.14723,-0.4445 1.8415,-0.4445 0.66888,0 1.26578,0.14288 1.7907,0.43127 0.5334,0.2884 0.94403,0.6985 1.2319,1.23032 0.29633,0.52652 0.4445,1.13241 0.4445,1.81768 z m -1.8415,-0.508 c -0.008,-0.45773 -0.17357,-0.82285 -0.4953,-1.09273 -0.32172,-0.28046 -0.71542,-0.41804 -1.1811,-0.41804 -0.44027,0 -0.8128,0.13494 -1.1176,0.40481 -0.29633,0.26194 -0.47837,0.63236 -0.5461,1.10596 z m 2.68209,0.635 c 0,-0.71173 0.1397,-1.34144 0.4191,-1.89177 0.28786,-0.55033 0.67733,-0.97367 1.1684,-1.27 0.49106,-0.29633 1.03716,-0.4445 1.6383,-0.4445 0.4572,0 0.89323,0.10054 1.3081,0.30427 0.41486,0.19315 0.74506,0.45773 0.9906,0.78581 v -3.33904 h 1.8034 v 9.398 h -1.8034 v -1.04246 c -0.22014,0.34925 -0.52917,0.62707 -0.9271,0.83873 -0.39794,0.21167 -0.85937,0.3175 -1.3843,0.3175 -0.59267,0 -1.13454,-0.15081 -1.6256,-0.45773 -0.49107,-0.30427 -0.88054,-0.73025 -1.1684,-1.28058 -0.2794,-0.56092 -0.4191,-1.19856 -0.4191,-1.91823 z m 5.5372,0.0238 c 0,-0.43127 -0.0847,-0.79904 -0.254,-1.10331 -0.16934,-0.31485 -0.39794,-0.55033 -0.6858,-0.71173 -0.28787,-0.16933 -0.5969,-0.254 -0.9271,-0.254 -0.3302,0 -0.635,0.0794 -0.9144,0.24077 -0.2794,0.1614 -0.508,0.39952 -0.6858,0.71173 -0.16934,0.30427 -0.254,0.6694 -0.254,1.09273 0,0.42334 0.0847,0.7964 0.254,1.11654 0.1778,0.31486 0.4064,0.55563 0.6858,0.72496 0.28786,0.16934 0.59266,0.254 0.9144,0.254 0.3302,0 0.63923,-0.082 0.9271,-0.24077 0.28786,-0.16933 0.51646,-0.40746 0.6858,-0.71173 0.16933,-0.31485 0.254,-0.68527 0.254,-1.11919 z m 6.09627,0 c 0,-0.7276 0.14815,-1.3626 0.4445,-1.905 0.29633,-0.55033 0.70695,-0.97366 1.2319,-1.27 0.52493,-0.30427 1.12605,-0.45508 1.8034,-0.45508 0.87205,0 1.59173,0.21961 2.159,0.65881 0.57573,0.43127 0.96095,1.04246 1.1557,1.82827 h -1.9177 c -0.1016,-0.30427 -0.27517,-0.53975 -0.5207,-0.70908 -0.23707,-0.17992 -0.5334,-0.26723 -0.889,-0.26723 -0.508,0 -0.91017,0.18521 -1.2065,0.55827 -0.29635,0.36513 -0.4445,0.88371 -0.4445,1.56104 0,0.6694 0.14815,1.19063 0.4445,1.56369 0.29633,0.36248 0.6985,0.54504 1.2065,0.54504 0.71965,0 1.18955,-0.32014 1.4097,-0.96573 h 1.9177 c -0.19475,0.762 -0.57997,1.3679 -1.1557,1.81769 -0.57575,0.44715 -1.2954,0.67204 -2.159,0.67204 -0.67735,0 -1.27847,-0.14816 -1.8034,-0.4445 -0.52495,-0.30427 -0.93557,-0.7276 -1.2319,-1.27 -0.29635,-0.55033 -0.4445,-1.18798 -0.4445,-1.91823 z m 7.63983,-0.0238 c 0,-0.71173 0.1397,-1.34144 0.41911,-1.89177 0.28787,-0.55033 0.6731,-0.97367 1.1557,-1.27 0.49107,-0.29633 1.03717,-0.4445 1.6383,-0.4445 0.52492,0 0.98212,0.10583 1.3716,0.3175 0.39792,0.21167 0.71542,0.47625 0.9525,0.79904 v -1.00277 h 1.7907 v 7.03527 h -1.7907 v -1.02923 c -0.2286,0.33073 -0.5461,0.6059 -0.9525,0.8255 -0.39793,0.21167 -0.85938,0.3175 -1.3843,0.3175 -0.59268,0 -1.13453,-0.15081 -1.6256,-0.45773 -0.4826,-0.30427 -0.86783,-0.73025 -1.1557,-1.28058 -0.27941,-0.56092 -0.41911,-1.19856 -0.41911,-1.91823 z m 5.53721,0.0238 c 0,-0.43127 -0.0847,-0.79904 -0.254,-1.10331 -0.16933,-0.31485 -0.39793,-0.55033 -0.6858,-0.71173 -0.28788,-0.16933 -0.5969,-0.254 -0.9271,-0.254 -0.3302,0 -0.635,0.0794 -0.9144,0.24077 -0.2794,0.1614 -0.508,0.39952 -0.6858,0.71173 -0.16933,0.30427 -0.254,0.6694 -0.254,1.09273 0,0.42334 0.0847,0.7964 0.254,1.11654 0.1778,0.31486 0.4064,0.55563 0.6858,0.72496 0.28787,0.16934 0.59267,0.254 0.9144,0.254 0.3302,0 0.63922,-0.082 0.9271,-0.24077 0.28787,-0.16933 0.51647,-0.40746 0.6858,-0.71173 0.16932,-0.31485 0.254,-0.68527 0.254,-1.11919 z m 5.30515,-2.42358 c 0.2286,-0.37306 0.52493,-0.66675 0.889,-0.87842 0.37253,-0.21166 0.79588,-0.3175 1.27,-0.3175 v 1.86796 h -0.4699 c -0.5588,0 -0.98212,0.13229 -1.27,0.39423 -0.2794,0.26194 -0.4191,0.71967 -0.4191,1.37054 v 3.50573 h -1.778 v -7.03527 h 1.778 z m 9.89702,2.27277 c 0,0.254 -0.0169,0.48154 -0.0508,0.68527 h -5.1435 c 0.0423,0.508 0.22012,0.90488 0.5334,1.19327 0.31326,0.2884 0.6985,0.43128 1.1557,0.43128 0.6604,0 1.1303,-0.28311 1.4097,-0.84932 h 1.9177 c -0.2032,0.67734 -0.59268,1.23561 -1.1684,1.67482 -0.57574,0.43391 -1.2827,0.64822 -2.1209,0.64822 -0.67734,0 -1.28694,-0.14816 -1.8288,-0.4445 -0.5334,-0.30427 -0.9525,-0.73289 -1.2573,-1.28322 -0.29634,-0.55034 -0.4445,-1.18534 -0.4445,-1.905 0,-0.72761 0.14816,-1.36525 0.4445,-1.91559 0.29632,-0.55033 0.7112,-0.97366 1.2446,-1.27 0.5334,-0.29633 1.14722,-0.4445 1.8415,-0.4445 0.66886,0 1.26576,0.14288 1.7907,0.43127 0.5334,0.2884 0.94402,0.6985 1.2319,1.23032 0.29632,0.52652 0.4445,1.13241 0.4445,1.81768 z m -1.8415,-0.508 c -0.008,-0.45773 -0.17358,-0.82285 -0.4953,-1.09273 -0.32174,-0.28046 -0.71544,-0.41804 -1.1811,-0.41804 -0.44028,0 -0.8128,0.13494 -1.1176,0.40481 -0.29634,0.26194 -0.47838,0.63236 -0.5461,1.10596 z"
       fill="#2f3c7e"
       id="path102" />
    <path
       style="stroke-width:0.264583"
       d="m -26.412186,-9.3369157 c 0.4699,0 0.880533,0.0952 1.2319,0.28575 0.3556,0.185211 0.62865,0.4497917 0.81915,0.788461 0.1905,0.3386693 0.28575,0.7249583 0.28575,1.1615182 0,0.4312708 -0.09737,0.8175625 -0.2921,1.1562318 -0.1905,0.3386693 -0.46355,0.60325 -0.81915,0.799039 -0.351367,0.1905 -0.759884,0.28575 -1.22555,0.28575 h -1.77165 v -4.47675 z m -0.09525,3.3787292 c 0.364066,0 0.649816,-0.100539 0.85725,-0.2989792 0.207433,-0.1984295 0.31115,-0.481539 0.31115,-0.8440208 0,-0.3677682 -0.103717,-0.6535182 -0.31115,-0.8519583 -0.207434,-0.2037292 -0.493184,-0.3042709 -0.85725,-0.3042709 h -0.4318 v 2.2992292 z m 2.789766,-0.6852682 c 0,-0.3704193 0.06562,-0.6905598 0.19685,-0.9657318 0.135467,-0.2751587 0.3175,-0.486828 0.5461,-0.635 0.232834,-0.1481587 0.491067,-0.22225 0.7747,-0.22225 0.245534,0 0.4572,0.047601 0.635,0.1455208 0.1778,0.097901 0.315384,0.2275417 0.41275,0.3942292 v -0.4947682 h 1.2446 v 3.561289 h -1.2446 v -0.4947708 c -0.09737,0.1640417 -0.237066,0.2963413 -0.4191,0.3942318 -0.1778,0.0952 -0.38735,0.1455182 -0.62865,0.1455182 -0.283633,0 -0.541866,-0.074099 -0.7747,-0.22225 -0.2286,-0.1481587 -0.410633,-0.359828 -0.5461,-0.635 -0.131233,-0.2804583 -0.19685,-0.60325 -0.19685,-0.9710182 z m 2.5654,0 c 0,-0.2301901 -0.0635,-0.4101015 -0.1905,-0.53975 -0.122766,-0.1322917 -0.275166,-0.1984401 -0.4572,-0.1984401 -0.186266,0 -0.340783,0.066101 -0.46355,0.1984401 -0.122766,0.127 -0.18415,0.3069193 -0.18415,0.53975 0,0.227539 0.06138,0.4101095 0.18415,0.545039 0.122767,0.1322917 0.277284,0.1957917 0.46355,0.1957917 0.182034,0 0.334434,-0.0635 0.4572,-0.1957917 0.127,-0.132289 0.1905,-0.3122083 0.1905,-0.545039 z m 2.582598,-2.1087318 c -0.220133,0 -0.397933,-0.060899 -0.5334,-0.1772682 -0.131233,-0.1243515 -0.19685,-0.2751693 -0.19685,-0.4577318 0,-0.1878489 0.06562,-0.3413099 0.19685,-0.4630182 0.135467,-0.1243515 0.313267,-0.1852113 0.5334,-0.1852113 0.2159,0 0.389467,0.060899 0.5207,0.1852113 0.135467,0.1217083 0.2032,0.2751693 0.2032,0.4630182 0,0.1825625 -0.06773,0.3333803 -0.2032,0.4577318 -0.131233,0.1164193 -0.3048,0.1772682 -0.5207,0.1772682 z m 0.61595,0.3307318 v 3.561289 h -1.2446 v -3.561289 z m 1.953419,-1.137711 v 4.699 h -1.2446 v -4.699 z m 4.544219,1.137711 -2.2606,5.2572682 h -1.35255 l 0.8509,-1.8494375 -1.4605,-3.4078307 h 1.3843 l 0.7493,2.0187682 0.7239,-2.0187682 z m 5.547783,-0.915461 v 4.47675 h -1.2446 v -1.7965208 h -1.51765 v 1.7965208 h -1.2446 v -4.47675 h 1.2446 v 1.68275 h 1.51765 v -1.68275 z m 4.115858,2.6537709 c 0,0.097898 -0.0063,0.1957996 -0.01905,0.2936901 h -2.35585 c 0.0127,0.1931485 0.06562,0.3386693 0.15875,0.4365599 0.09737,0.092599 0.220134,0.1402291 0.3683,0.1402291 0.207434,0 0.3556,-0.092599 0.4445,-0.2804583 h 1.32715 c -0.05503,0.2460678 -0.162983,0.4656693 -0.32385,0.6614583 -0.156633,0.1905 -0.3556,0.3413205 -0.5969,0.4497917 -0.2413,0.1111276 -0.508,0.1666875 -0.8001,0.1666875 -0.351366,0 -0.664633,-0.074099 -0.9398,-0.22225 -0.270933,-0.1481587 -0.484716,-0.359828 -0.64135,-0.635 -0.1524,-0.2751587 -0.2286,-0.6005989 -0.2286,-0.9710182 0,-0.3730598 0.0762,-0.6958515 0.2286,-0.9657318 0.1524,-0.2751587 0.364067,-0.486828 0.635,-0.635 0.275167,-0.1481587 0.59055,-0.22225 0.94615,-0.22225 0.351367,0 0.662517,0.071401 0.93345,0.2143125 0.270934,0.1455288 0.4826,0.3518985 0.635,0.6244193 0.1524,0.2645807 0.2286,0.5820807 0.2286,0.9445599 z m -1.27,-0.3095599 c 0,-0.153461 -0.0508,-0.2725208 -0.1524,-0.3571901 -0.1016,-0.087299 -0.2286,-0.1322917 -0.381,-0.1322917 -0.1524,0 -0.277283,0.042302 -0.37465,0.127 -0.09737,0.079402 -0.160866,0.2010913 -0.1905,0.3624818 z m 1.576124,0.34925 c 0,-0.3704193 0.06562,-0.6905598 0.19685,-0.9657318 0.135466,-0.2751587 0.31750002,-0.486828 0.54610002,-0.635 0.232833,-0.1481587 0.491066,-0.22225 0.7747,-0.22225 0.245533,0 0.4572,0.047601 0.635,0.1455208 0.1778,0.097901 0.315383,0.2275417 0.41274998,0.3942292 v -0.4947682 h 1.2446 v 3.561289 h -1.2446 v -0.4947708 c -0.09737,0.1640417 -0.23706698,0.2963413 -0.41909998,0.3942318 -0.1778,0.0952 -0.38735,0.1455182 -0.62865,0.1455182 -0.283634,0 -0.541867,-0.074099 -0.7747,-0.22225 -0.2286,-0.1481587 -0.41063402,-0.359828 -0.54610002,-0.635 -0.131234,-0.2804583 -0.19685,-0.60325 -0.19685,-0.9710182 z m 2.5654,0 c 0,-0.2301901 -0.0635,-0.4101015 -0.19049998,-0.53975 -0.122767,-0.1322917 -0.275167,-0.1984401 -0.4572,-0.1984401 -0.186267,0 -0.340784,0.066101 -0.46355,0.1984401 -0.122767,0.127 -0.18415,0.3069193 -0.18415,0.53975 0,0.227539 0.06138,0.4101095 0.18415,0.545039 0.122766,0.1322917 0.277283,0.1957917 0.46355,0.1957917 0.182033,0 0.334433,-0.0635 0.4572,-0.1957917 C 1.015581,-6.2307047 1.079081,-6.410624 1.079081,-6.6434547 Z m 3.198283,-2.915711 v 4.699 h -1.2446 v -4.699 z m 2.810669,3.6380209 v 1.0609791 h -0.53975 c -0.910167,0 -1.36525,-0.449789 -1.36525,-1.3520208 v -1.17475 h -0.43815 v -1.0345182 h 0.43815 v -0.8651901 h 1.25095 v 0.8651901 h 0.6477 v 1.0345182 h -0.6477 v 1.1932708 c 0,0.097901 0.02117,0.1666902 0.0635,0.2090209 0.04657,0.042299 0.122766,0.0635 0.2286,0.0635 z m 2.914121,-2.5320599 c 0.4064,0 0.728133,0.1375807 0.9652,0.41275 0.2413,0.2698803 0.36195,0.6376485 0.36195,1.1033099 v 2.0769791 h -1.2446 v -1.910289 c 0,-0.2037318 -0.05292,-0.3624818 -0.15875,-0.47625 -0.105834,-0.1190598 -0.24765,-0.1799193 -0.42545,-0.1799193 -0.186267,0 -0.332317,0.060899 -0.43815,0.1799193 -0.105834,0.1137682 -0.15875,0.2725182 -0.15875,0.47625 v 1.910289 h -1.2446 v -4.699 h 1.2446 v 1.645711 c 0.110066,-0.1613905 0.258233,-0.2910417 0.4445,-0.3889401 0.1905,-0.1005417 0.408516,-0.1508099 0.65405,-0.1508099 z"
       fill="#2f3c7e"
       id="path180" />
    <path
       style="stroke-width:0.264583"
       d="m 56.849014,-4.8151865 c -0.5207,0 -0.948261,-0.1243489 -1.2827,-0.3677682 -0.334431,-0.2513515 -0.51435,-0.6058905 -0.53975,-1.0689193 h 1.32715 c 0.0127,0.15875 0.0593,0.2725288 0.1397,0.3439583 0.0804,0.071401 0.18415,0.1084792 0.31115,0.1084792 0.1143,0 0.207439,-0.029099 0.2794,-0.082 0.0762,-0.060899 0.1143,-0.1402291 0.1143,-0.2434193 0,-0.1296405 -0.0614,-0.2328307 -0.18415,-0.3042708 -0.122761,-0.071398 -0.321731,-0.1508099 -0.5969,-0.2407682 -0.2921,-0.097901 -0.529161,-0.1905 -0.7112,-0.280461 -0.1778,-0.092599 -0.334431,-0.2248905 -0.4699,-0.3995208 -0.131231,-0.1772682 -0.19685,-0.4074478 -0.19685,-0.6905599 0,-0.2883879 0.072,-0.5344583 0.2159,-0.7381901 0.143939,-0.2063697 0.3429,-0.3624792 0.5969,-0.4683099 0.254,-0.105828 0.541869,-0.15875 0.8636,-0.15875 0.5207,0 0.935569,0.121711 1.2446,0.3677709 0.313269,0.2407708 0.480489,0.5820912 0.50165,1.021289 h -1.35255 c -0.004,-0.1349296 -0.0466,-0.2354792 -0.127,-0.3042682 -0.0762,-0.0688 -0.175681,-0.1005417 -0.29845,-0.1005417 -0.0931,0 -0.169331,0.026501 -0.2286,0.082 -0.0593,0.055602 -0.0889,0.1322917 -0.0889,0.2354818 0,0.084698 0.0318,0.15875 0.0952,0.22225 0.0677,0.0582 0.150288,0.1111303 0.24765,0.15875 0.0974,0.042299 0.2413,0.0952 0.4318,0.164039 0.283638,0.097901 0.516469,0.1957917 0.6985,0.2910417 0.186269,0.0952 0.345019,0.2275496 0.47625,0.4021693 0.135469,0.1693307 0.2032,0.3836485 0.2032,0.6455807 0,0.2672292 -0.0677,0.508 -0.2032,0.7196693 -0.131231,0.2116693 -0.32385,0.3783595 -0.57785,0.5000599 -0.249762,0.1243594 -0.5461,0.1852083 -0.889,0.1852083 z m 4.477549,-0.044998 -0.98425,-1.4605 v 1.4605 h -1.2446 v -4.699 h 1.2446 v 2.5347083 l 0.98425,-1.397 h 1.49225 l -1.40335,1.7885807 1.42875,1.772711 z m 2.51116,-3.8920208 c -0.22013,0 -0.39793,-0.060899 -0.5334,-0.1772709 -0.13123,-0.1243488 -0.19685,-0.2751693 -0.19685,-0.4577291 0,-0.1878515 0.0656,-0.3413099 0.19685,-0.4630209 0.13547,-0.1243488 0.31327,-0.1852088 0.5334,-0.1852088 0.2159,0 0.38947,0.060899 0.5207,0.1852088 0.13547,0.121711 0.2032,0.2751694 0.2032,0.4630209 0,0.1825598 -0.0677,0.3333803 -0.2032,0.4577291 -0.13123,0.1164194 -0.3048,0.1772709 -0.5207,0.1772709 z m 0.61595,0.3307291 v 3.5612917 h -1.2446 v -3.5612917 z m 3.039269,-0.0317 c 0.410631,0 0.7366,0.1375807 0.9779,0.41275 0.2413,0.2698803 0.36195,0.6376511 0.36195,1.1033099 v 2.0769818 h -1.2446 v -1.9102917 c 0,-0.2037292 -0.0529,-0.3624792 -0.15875,-0.47625 -0.105838,-0.1190598 -0.24765,-0.1799193 -0.42545,-0.1799193 -0.186269,0 -0.332319,0.060899 -0.43815,0.1799193 -0.105838,0.1137708 -0.15875,0.2725208 -0.15875,0.47625 v 1.9102917 h -1.2446 v -3.5612917 h 1.2446 v 0.508 c 0.110062,-0.1613905 0.258231,-0.291039 0.4445,-0.3889401 0.186262,-0.1005391 0.40005,-0.1508099 0.64135,-0.1508099 z m 3.08583,1.3440807 c 0,-0.4392004 0.091,-0.830789 0.27305,-1.17475 0.186272,-0.3466015 0.448742,-0.6138307 0.7874,-0.8043307 0.338672,-0.195789 0.728142,-0.2936901 1.1684,-0.2936901 0.5588,0 1.0287,0.1508204 1.4097,0.4524401 0.381,0.2963307 0.626542,0.6985 0.7366,1.2117917 h -1.33985 c -0.0804,-0.1693307 -0.192608,-0.2989818 -0.33655,-0.3862917 -0.1397,-0.090001 -0.302678,-0.1349401 -0.48895,-0.1349401 -0.287858,0 -0.518578,0.1031901 -0.69215,0.3122109 -0.169328,0.2037292 -0.254,0.47625 -0.254,0.8175599 0,0.34925 0.0847,0.6244193 0.254,0.8334401 0.173572,0.2037292 0.404292,0.3042709 0.69215,0.3042709 0.186272,0 0.34925,-0.045 0.48895,-0.1322917 0.143942,-0.090001 0.256122,-0.2195989 0.33655,-0.3889401 h 1.33985 c -0.110058,0.5132996 -0.3556,0.9181094 -0.7366,1.2197318 -0.381,0.2963386 -0.8509,0.4445 -1.4097,0.4445 -0.440258,0 -0.829728,-0.0953 -1.1684,-0.28575 -0.338658,-0.1957917 -0.601128,-0.4630209 -0.7874,-0.8069818 -0.182028,-0.3465989 -0.27305,-0.7434792 -0.27305,-1.1879792 z m 4.76118,0.4656693 c 0,-0.3704193 0.0656,-0.6905598 0.19685,-0.9657291 0.135472,-0.2751614 0.3175,-0.4868307 0.5461,-0.635 0.232831,-0.1481614 0.491072,-0.22225 0.7747,-0.22225 0.245531,0 0.4572,0.047598 0.635,0.1455181 0.1778,0.097901 0.315381,0.2275417 0.41275,0.3942319 v -0.4947709 h 1.2446 v 3.5612917 h -1.2446 v -0.4947708 c -0.0974,0.164039 -0.237069,0.2963386 -0.4191,0.3942291 -0.1778,0.0952 -0.38735,0.1455208 -0.62865,0.1455208 -0.283628,0 -0.541869,-0.074099 -0.7747,-0.2222499 -0.2286,-0.1481614 -0.410628,-0.3598307 -0.5461,-0.635 -0.131228,-0.280461 -0.19685,-0.60325 -0.19685,-0.9710209 z m 2.5654,0 c 0,-0.2301901 -0.0635,-0.4100989 -0.1905,-0.53975 -0.122769,-0.132289 -0.275169,-0.1984401 -0.4572,-0.1984401 -0.186269,0 -0.340778,0.066101 -0.46355,0.1984401 -0.122769,0.127 -0.18415,0.3069193 -0.18415,0.53975 0,0.2275417 0.0614,0.4101095 0.18415,0.5450417 0.122772,0.132289 0.277281,0.195789 0.46355,0.195789 0.182031,0 0.334431,-0.0635 0.4572,-0.195789 0.127,-0.1322917 0.1905,-0.312211 0.1905,-0.5450417 z m 3.198551,-1.1509401 c 0.1397,-0.2037292 0.30903,-0.3624792 0.508,-0.4815391 0.198961,-0.1190598 0.41275,-0.1772708 0.64135,-0.1772708 v 1.3255599 h -0.34925 c -0.270939,0 -0.47202,0.052901 -0.60325,0.15875 -0.131239,0.1058412 -0.19685,0.2910496 -0.19685,0.5529818 v 1.55575 h -1.2446 v -3.5612917 h 1.2446 z m 4.99904,1.11125 c 0,0.097901 -0.006,0.1957996 -0.019,0.2936901 h -2.35585 c 0.0127,0.1931511 0.0656,0.3386693 0.15875,0.4365599 0.0974,0.092601 0.22013,0.1402318 0.3683,0.1402318 0.20743,0 0.3556,-0.092601 0.4445,-0.280461 h 1.32715 c -0.055,0.2460704 -0.162989,0.4656693 -0.32385,0.661461 -0.156639,0.1905 -0.3556,0.3413178 -0.5969,0.449789 -0.2413,0.1111303 -0.508,0.1666901 -0.8001,0.1666901 -0.35137,0 -0.664639,-0.074099 -0.9398,-0.2222499 -0.270939,-0.1481614 -0.48472,-0.3598307 -0.64135,-0.635 -0.1524,-0.2751614 -0.2286,-0.6006016 -0.2286,-0.9710209 0,-0.3730598 0.0762,-0.6958489 0.2286,-0.9657291 0.1524,-0.2751614 0.364061,-0.4868307 0.635,-0.635 0.275161,-0.1481614 0.59055,-0.22225 0.94615,-0.22225 0.351361,0 0.662511,0.0714 0.93345,0.2143098 0.27093,0.1455288 0.4826,0.3518985 0.635,0.6244193 0.1524,0.2645807 0.2286,0.5820807 0.2286,0.9445599 z m -1.27,-0.3095599 c 0,-0.1534583 -0.0508,-0.2725208 -0.1524,-0.3571901 -0.1016,-0.087299 -0.2286,-0.1322891 -0.381,-0.1322891 -0.1524,0 -0.277289,0.042299 -0.37465,0.1270001 -0.0974,0.079399 -0.16087,0.2010886 -0.1905,0.3624791 z"
       fill="#2f3c7e"
       id="path184" />
    <path
       style="stroke-width:0.264583"
       d="m 140.45735,-5.3443452 c -0.5207,0 -0.94827,-0.1243595 -1.2827,-0.3677788 -0.33444,-0.2513515 -0.51435,-0.6058905 -0.53975,-1.0689114 h 1.32715 c 0.0127,0.15875 0.0593,0.2725209 0.1397,0.343961 0.0804,0.071401 0.18415,0.1084792 0.31115,0.1084792 0.1143,0 0.20743,-0.029099 0.2794,-0.082 0.0762,-0.060801 0.1143,-0.1402212 0.1143,-0.2434114 0,-0.1296485 -0.0614,-0.2328386 -0.18415,-0.3042682 -0.12277,-0.0714 -0.32173,-0.1508204 -0.5969,-0.2407708 -0.2921,-0.097901 -0.52917,-0.1905 -0.7112,-0.280461 -0.1778,-0.092599 -0.33443,-0.2248985 -0.4699,-0.3995182 -0.13123,-0.1772708 -0.19685,-0.4074609 -0.19685,-0.6905704 0,-0.2883905 0.072,-0.5344504 0.2159,-0.7381796 0.14393,-0.2063803 0.3429,-0.3624818 0.5969,-0.4683204 0.254,-0.1058307 0.54187,-0.15875 0.8636,-0.15875 0.5207,0 0.93556,0.1217083 1.2446,0.3677788 0.31326,0.2407708 0.48048,0.5820807 0.50165,1.0212916 h -1.35255 c -0.004,-0.1349401 -0.0466,-0.2354818 -0.127,-0.3042708 -0.0762,-0.0688 -0.17569,-0.1005496 -0.29845,-0.1005496 -0.0931,0 -0.16934,0.026501 -0.2286,0.082 -0.0593,0.055599 -0.0889,0.132289 -0.0889,0.2354712 0,0.084698 0.0317,0.15875 0.0952,0.22225 0.0677,0.058198 0.15027,0.1111276 0.24765,0.15875 0.0974,0.042299 0.2413,0.0952 0.4318,0.1640496 0.28362,0.097898 0.51645,0.195789 0.6985,0.291039 0.18625,0.0952 0.345,0.227539 0.47625,0.4021614 0.13545,0.1693386 0.2032,0.3836485 0.2032,0.6455886 0,0.2672292 -0.0677,0.508 -0.2032,0.7196614 -0.13125,0.2116693 -0.32385,0.3783595 -0.57785,0.5000678 -0.24978,0.1243515 -0.5461,0.185211 -0.889,0.185211 z m 5.65229,-1.867961 c 0,0.097901 -0.006,0.1957917 -0.019,0.2936822 h -2.35585 c 0.0127,0.1931485 0.0656,0.3386693 0.15875,0.4365678 0.0974,0.092602 0.22014,0.1402318 0.3683,0.1402318 0.20744,0 0.3556,-0.092601 0.4445,-0.280461 h 1.32715 c -0.055,0.2460599 -0.16298,0.4656614 -0.32385,0.661461 -0.15663,0.1905 -0.3556,0.3413099 -0.5969,0.449789 -0.2413,0.1111197 -0.508,0.1666902 -0.8001,0.1666902 -0.35136,0 -0.66463,-0.074099 -0.9398,-0.22225 -0.27093,-0.1481693 -0.48471,-0.3598413 -0.64135,-0.635 -0.1524,-0.2751693 -0.2286,-0.6006095 -0.2286,-0.9710288 0,-0.3730625 0.0762,-0.6958515 0.2286,-0.9657212 0.1524,-0.2751693 0.36407,-0.4868413 0.635,-0.635 0.27517,-0.1481693 0.59055,-0.22225 0.94615,-0.22225 0.35137,0 0.66252,0.0714 0.93345,0.2143098 0.27094,0.1455209 0.4826,0.3518906 0.635,0.6244114 0.1524,0.2645886 0.2286,0.5820886 0.2286,0.9445678 z m -1.27,-0.3095678 c 0,-0.1534504 -0.0508,-0.2725208 -0.1524,-0.3571822 -0.1016,-0.087299 -0.2286,-0.132289 -0.381,-0.132289 -0.1524,0 -0.27728,0.042299 -0.37465,0.127 -0.0974,0.079399 -0.16085,0.2010807 -0.1905,0.3624712 z m 4.00182,2.1325496 -0.64135,-0.8942996 -0.508,0.8942996 h -1.36525 l 1.18745,-1.8467996 -1.23824,-1.7145 h 1.397 l 0.64135,0.8942996 0.51434,-0.8942996 h 1.36525 l -1.21285,1.8150496 1.2573,1.74625 z m 5.40968,-3.5612996 v 3.5612996 h -1.25095 v -0.508 c -0.10583,0.1613879 -0.25188,0.291039 -0.43815,0.3942292 -0.18627,0.097901 -0.40005,0.1455208 -0.64135,0.1455208 -0.41487,0 -0.74295,-0.1349401 -0.98425,-0.407461 -0.23707,-0.2751693 -0.3556,-0.6455886 -0.3556,-1.116539 V -8.950624 h 1.23825 v 1.9102996 c 0,0.2037292 0.0529,0.3651197 0.15875,0.481539 0.11007,0.1164114 0.254,0.1719792 0.4318,0.1719792 0.18203,0 0.32597,-0.0556 0.4318,-0.1719792 0.10583,-0.1164193 0.15875,-0.2778098 0.15875,-0.481539 V -8.950624 Z m 0.5051,1.778 c 0,-0.3704114 0.0656,-0.6905625 0.19685,-0.9657212 0.13545,-0.2751693 0.3175,-0.4868413 0.5461,-0.635 0.23282,-0.1481693 0.49105,-0.22225 0.7747,-0.22225 0.24552,0 0.4572,0.047601 0.635,0.1455208 0.1778,0.097898 0.31537,0.227539 0.41275,0.3942292 V -8.950624 h 1.2446 v 3.5612996 h -1.2446 v -0.4947708 c -0.0974,0.164039 -0.23708,0.2963307 -0.4191,0.3942212 -0.1778,0.0952 -0.38735,0.1455288 -0.62865,0.1455288 -0.28365,0 -0.54188,-0.074099 -0.7747,-0.22225 -0.2286,-0.1481693 -0.41065,-0.3598413 -0.5461,-0.635 -0.13125,-0.280461 -0.19685,-0.60325 -0.19685,-0.9710288 z m 2.5654,0 c 0,-0.2301822 -0.0635,-0.4101015 -0.1905,-0.53975 -0.12278,-0.1322917 -0.27518,-0.1984322 -0.4572,-0.1984322 -0.18628,0 -0.3408,0.066101 -0.46355,0.1984322 -0.12278,0.127 -0.18415,0.3069193 -0.18415,0.53975 0,0.2275496 0.0614,0.4101095 0.18415,0.5450496 0.12275,0.132289 0.27727,0.195789 0.46355,0.195789 0.18202,0 0.33442,-0.0635 0.4572,-0.195789 0.127,-0.1322996 0.1905,-0.312211 0.1905,-0.5450496 z m 3.19854,-2.9157 v 4.6989996 h -1.2446 v -4.6989996 z m 5.9309,0.2222496 v 4.47675 h -1.2446 v -1.7965208 h -1.51765 v 1.7965208 h -1.2446 v -4.47675 h 1.2446 v 1.68275 h 1.51765 v -1.68275 z m 4.11585,2.6537682 c 0,0.097901 -0.006,0.1957917 -0.019,0.2936822 h -2.35585 c 0.0127,0.1931485 0.0656,0.3386693 0.15875,0.4365678 0.0974,0.092602 0.22013,0.1402318 0.3683,0.1402318 0.20743,0 0.3556,-0.092601 0.4445,-0.280461 h 1.32715 c -0.055,0.2460599 -0.16298,0.4656614 -0.32385,0.661461 -0.15663,0.1905 -0.3556,0.3413099 -0.5969,0.449789 -0.2413,0.1111197 -0.508,0.1666902 -0.8001,0.1666902 -0.35137,0 -0.66463,-0.074099 -0.9398,-0.22225 -0.27093,-0.1481693 -0.48472,-0.3598413 -0.64135,-0.635 -0.1524,-0.2751693 -0.2286,-0.6006095 -0.2286,-0.9710288 0,-0.3730625 0.0762,-0.6958515 0.2286,-0.9657212 0.1524,-0.2751693 0.36407,-0.4868413 0.635,-0.635 0.27517,-0.1481693 0.59055,-0.22225 0.94615,-0.22225 0.35137,0 0.66252,0.0714 0.93345,0.2143098 0.27093,0.1455209 0.4826,0.3518906 0.635,0.6244114 0.1524,0.2645886 0.2286,0.5820886 0.2286,0.9445678 z m -1.27,-0.3095678 c 0,-0.1534504 -0.0508,-0.2725208 -0.1524,-0.3571822 -0.1016,-0.087299 -0.2286,-0.132289 -0.381,-0.132289 -0.1524,0 -0.27727,0.042299 -0.37465,0.127 -0.0974,0.079399 -0.16087,0.2010807 -0.1905,0.3624712 z m 1.57612,0.34925 c 0,-0.3704114 0.0656,-0.6905625 0.19685,-0.9657212 0.13547,-0.2751693 0.3175,-0.4868413 0.5461,-0.635 0.23285,-0.1481693 0.49107,-0.22225 0.7747,-0.22225 0.24555,0 0.4572,0.047601 0.635,0.1455208 0.1778,0.097898 0.3154,0.227539 0.41275,0.3942292 V -8.950624 h 1.2446 v 3.5612996 h -1.2446 v -0.4947708 c -0.0974,0.164039 -0.23705,0.2963307 -0.4191,0.3942212 -0.1778,0.0952 -0.38735,0.1455288 -0.62865,0.1455288 -0.28363,0 -0.54185,-0.074099 -0.7747,-0.22225 -0.2286,-0.1481693 -0.41063,-0.3598413 -0.5461,-0.635 -0.13123,-0.280461 -0.19685,-0.60325 -0.19685,-0.9710288 z m 2.5654,0 c 0,-0.2301822 -0.0635,-0.4101015 -0.1905,-0.53975 -0.12275,-0.1322917 -0.27515,-0.1984322 -0.4572,-0.1984322 -0.18625,0 -0.34078,0.066101 -0.46355,0.1984322 -0.12275,0.127 -0.18415,0.3069193 -0.18415,0.53975 0,0.2275496 0.0614,0.4101095 0.18415,0.5450496 0.12277,0.132289 0.2773,0.195789 0.46355,0.195789 0.18205,0 0.33445,-0.0635 0.4572,-0.195789 0.127,-0.1322996 0.1905,-0.312211 0.1905,-0.5450496 z m 3.19856,-2.9157 v 4.6989996 h -1.2446 v -4.6989996 z m 2.81067,3.6380178 v 1.0609818 h -0.53975 c -0.91018,0 -1.36525,-0.4497996 -1.36525,-1.3520208 v -1.17475 h -0.43815 V -8.950624 h 0.43815 v -0.8651822 h 1.25095 v 0.8651822 h 0.6477 v 1.0345288 h -0.6477 v 1.1932708 c 0,0.097899 0.0212,0.1666796 0.0635,0.2090182 0.0466,0.042302 0.12277,0.0635 0.2286,0.0635 z m 2.91386,-2.5320678 c 0.4064,0 0.72813,0.1375886 0.9652,0.41275 0.2413,0.2698776 0.36195,0.6376485 0.36195,1.1033178 v 2.0769818 h -1.2446 V -7.299624 c 0,-0.2037212 -0.0529,-0.3624712 -0.15875,-0.47625 -0.10585,-0.1190625 -0.24765,-0.1799114 -0.42545,-0.1799114 -0.18627,0 -0.33232,0.060801 -0.43815,0.1799114 -0.10585,0.1137788 -0.15875,0.2725288 -0.15875,0.47625 v 1.9102996 h -1.2446 v -4.6989996 h 1.2446 v 1.6457 c 0.11005,-0.1613905 0.25823,-0.2910417 0.4445,-0.3889322 0.1905,-0.100539 0.4085,-0.1508178 0.65405,-0.1508178 z"
       fill="#2f3c7e"
       id="path188" />
    <path
       style="stroke-width:0.264583"
       d="m 223.80162,-4.8151865 c -0.52122,0 -0.94985,-0.1243489 -1.28322,-0.3677682 -0.33338,-0.2513515 -0.51329,-0.6058905 -0.53975,-1.0689193 h 1.32821 c 0.0106,0.15875 0.0582,0.2725288 0.13757,0.3439583 0.082,0.071401 0.18522,0.1084792 0.31222,0.1084792 0.11377,0 0.20637,-0.029099 0.28046,-0.082 0.0741,-0.060899 0.11376,-0.1402291 0.11376,-0.2434193 0,-0.1296405 -0.0609,-0.2328307 -0.1852,-0.3042708 -0.12171,-0.071398 -0.32015,-0.1508099 -0.59531,-0.2407682 -0.29369,-0.097901 -0.52918,-0.1905 -0.71174,-0.280461 -0.17726,-0.092599 -0.33601,-0.2248905 -0.47095,-0.3995208 -0.12965,-0.1772682 -0.1958,-0.4074478 -0.1958,-0.6905599 0,-0.2883879 0.0714,-0.5344583 0.21431,-0.7381901 0.14553,-0.2063697 0.34397,-0.3624792 0.59797,-0.4683099 0.254,-0.105828 0.5424,-0.15875 0.86253,-0.15875 0.52124,0 0.93663,0.121711 1.24619,0.3677709 0.31222,0.2407708 0.4789,0.5820912 0.50006,1.021289 h -1.35201 c -0.003,-0.1349296 -0.045,-0.2354792 -0.127,-0.3042682 -0.0767,-0.0688 -0.17462,-0.1005417 -0.29899,-0.1005417 -0.0926,0 -0.16932,0.026501 -0.22753,0.082 -0.0582,0.055602 -0.09,0.1322917 -0.09,0.2354818 0,0.084698 0.0317,0.15875 0.0952,0.22225 0.0688,0.0582 0.15081,0.1111303 0.24872,0.15875 0.0979,0.042299 0.24077,0.0952 0.43127,0.164039 0.28311,0.097901 0.51594,0.1957917 0.6985,0.2910417 0.18786,0.0952 0.34661,0.2275496 0.47625,0.4021693 0.13494,0.1693307 0.20373,0.3836485 0.20373,0.6455807 0,0.2672292 -0.0688,0.508 -0.20373,0.7196693 -0.12964,0.2116693 -0.3228,0.3783595 -0.5768,0.5000599 -0.25134,0.1243594 -0.54769,0.1852083 -0.889,0.1852083 z m 5.89228,-3.6062682 v 3.561289 h -1.25148 v -0.508 c -0.10583,0.1614012 -0.25136,0.2910417 -0.43656,0.3942292 -0.18787,0.097901 -0.39952,0.1455208 -0.64294,0.1455208 -0.41275,0 -0.74083,-0.1349295 -0.98425,-0.4074583 -0.23549,-0.2751614 -0.35455,-0.6455807 -0.35455,-1.1165417 v -2.069039 h 1.23825 v 1.910289 c 0,0.2037292 0.0529,0.3651303 0.15875,0.4815417 0.11112,0.1164193 0.254,0.1719792 0.43128,0.1719792 0.18256,0 0.32544,-0.0556 0.43127,-0.1719792 0.10582,-0.1164114 0.15875,-0.2778125 0.15875,-0.4815417 v -1.910289 z m 1.95262,0.4947682 c 0.0979,-0.1666875 0.23547,-0.296328 0.41275,-0.3942292 0.17991,-0.097898 0.38894,-0.1455208 0.62971,-0.1455208 0.28311,0 0.53975,0.074102 0.76729,0.22225 0.23284,0.148172 0.4154,0.3598413 0.54769,0.635 0.13494,0.275172 0.20372,0.5953125 0.20372,0.9657318 0,0.3677682 -0.0688,0.6905599 -0.20372,0.9710182 -0.13229,0.275172 -0.31485,0.4868413 -0.54769,0.635 -0.22754,0.148172 -0.48418,0.22225 -0.76729,0.22225 -0.24077,0 -0.4498,-0.0503 -0.62971,-0.1455182 -0.17197,-0.097901 -0.30956,-0.2301901 -0.41275,-0.3942318 v 2.1960417 h -1.24354 v -5.2625599 h 1.24354 z m 1.29646,1.2832318 c 0,-0.2328307 -0.0635,-0.41275 -0.1905,-0.53975 -0.12171,-0.1322917 -0.27517,-0.1984401 -0.45774,-0.1984401 -0.18256,0 -0.33601,0.066101 -0.46301,0.1984401 -0.12171,0.1296485 -0.18521,0.3095599 -0.18521,0.53975 0,0.2328307 0.0635,0.41275 0.18521,0.545039 0.127,0.1322917 0.28045,0.1957917 0.46301,0.1957917 0.18257,0 0.33603,-0.0635 0.45774,-0.1957917 0.127,-0.1349295 0.1905,-0.3175 0.1905,-0.545039 z m 3.02155,-1.2832318 c 0.0952,-0.1666875 0.23283,-0.296328 0.41274,-0.3942292 0.17727,-0.097898 0.38629,-0.1455208 0.62707,-0.1455208 0.2831,0 0.53975,0.074102 0.76993,0.22225 0.23284,0.148172 0.41275,0.3598413 0.54504,0.635 0.13494,0.275172 0.20373,0.5953125 0.20373,0.9657318 0,0.3677682 -0.0688,0.6905599 -0.20373,0.9710182 -0.13229,0.275172 -0.3122,0.4868413 -0.54504,0.635 -0.23018,0.148172 -0.48683,0.22225 -0.76993,0.22225 -0.24078,0 -0.4498,-0.0503 -0.62707,-0.1455182 -0.17462,-0.097901 -0.31221,-0.2301901 -0.41274,-0.3942318 v 2.1960417 h -1.24619 v -5.2625599 h 1.24619 z m 1.29381,1.2832318 c 0,-0.2328307 -0.0635,-0.41275 -0.1905,-0.53975 -0.12171,-0.1322917 -0.27517,-0.1984401 -0.45773,-0.1984401 -0.17992,0 -0.33602,0.066101 -0.46302,0.1984401 -0.12172,0.1296485 -0.18256,0.3095599 -0.18256,0.53975 0,0.2328307 0.0609,0.41275 0.18256,0.545039 0.127,0.1322917 0.2831,0.1957917 0.46302,0.1957917 0.18256,0 0.33602,-0.0635 0.45773,-0.1957917 0.127,-0.1349295 0.1905,-0.3175 0.1905,-0.545039 z m 3.02154,-2.915711 v 4.699 h -1.24619 v -4.699 z m 4.11162,2.8760209 c 0,0.097898 -0.005,0.1957996 -0.0185,0.2936901 h -2.35479 c 0.0106,0.1931485 0.0635,0.3386693 0.15875,0.4365599 0.0953,0.092599 0.2196,0.1402291 0.36777,0.1402291 0.20638,0 0.35454,-0.092599 0.4445,-0.2804583 h 1.32556 c -0.0529,0.2460678 -0.16139,0.4656693 -0.32279,0.6614583 -0.1561,0.1905 -0.35454,0.3413205 -0.59796,0.4497917 -0.24077,0.1111276 -0.508,0.1666875 -0.79904,0.1666875 -0.35189,0 -0.6641,-0.074099 -0.93927,-0.22225 -0.27252,-0.1481587 -0.48419,-0.359828 -0.64294,-0.635 -0.15081,-0.2751587 -0.22754,-0.6005989 -0.22754,-0.9710182 0,-0.3730598 0.0767,-0.6958515 0.22754,-0.9657318 0.15346,-0.2751587 0.36513,-0.486828 0.635,-0.635 0.27517,-0.1481587 0.59267,-0.22225 0.94721,-0.22225 0.3519,0 0.66146,0.071401 0.93398,0.2143125 0.26988,0.1455288 0.48154,0.3518985 0.635,0.6244193 0.15081,0.2645807 0.22754,0.5820807 0.22754,0.9445599 z m -1.27,-0.3095599 c 0,-0.153461 -0.0503,-0.2725208 -0.15081,-0.3571901 -0.10319,-0.087299 -0.23019,-0.1322917 -0.381,-0.1322917 -0.15346,0 -0.27781,0.042302 -0.37571,0.127 -0.0979,0.079402 -0.16139,0.2010913 -0.1905,0.3624818 z m 6.43467,-1.4605 c 0.44714,0 0.79904,0.1349402 1.05304,0.4048099 0.25929,0.2725208 0.38894,0.6429401 0.38894,1.11125 v 2.0769791 h -1.24619 v -1.910289 c 0,-0.1905 -0.0529,-0.3386693 -0.15875,-0.4445 -0.10583,-0.1058307 -0.24871,-0.15875 -0.43127,-0.15875 -0.18256,0 -0.32544,0.052898 -0.43127,0.15875 -0.10583,0.1058307 -0.15875,0.254 -0.15875,0.4445 v 1.910289 h -1.24619 v -1.910289 c 0,-0.1905 -0.0529,-0.3386693 -0.15875,-0.4445 -0.10054,-0.1058307 -0.24342,-0.15875 -0.42333,-0.15875 -0.18786,0 -0.33338,0.052898 -0.43921,0.15875 -0.10583,0.1058307 -0.15875,0.254 -0.15875,0.4445 v 1.910289 h -1.24354 v -3.561289 h 1.24354 v 0.4683099 c 0.11112,-0.1508099 0.25135,-0.2725209 0.42598,-0.3624792 0.17727,-0.092601 0.381,-0.1375807 0.60854,-0.1375807 0.26194,0 0.49477,0.0556 0.6985,0.1693307 0.20902,0.1164193 0.37042,0.2751693 0.48948,0.4841875 0.127,-0.195789 0.29369,-0.3518879 0.50271,-0.4709583 0.20637,-0.1217004 0.43391,-0.1825599 0.68527,-0.1825599 z m 5.52714,1.7700599 c 0,0.097898 -0.008,0.1957996 -0.0185,0.2936901 h -2.35743 c 0.0132,0.1931485 0.0661,0.3386693 0.15875,0.4365599 0.0979,0.092599 0.2196,0.1402291 0.36777,0.1402291 0.20902,0 0.35718,-0.092599 0.4445,-0.2804583 h 1.32821 c -0.0556,0.2460678 -0.16405,0.4656693 -0.3228,0.6614583 -0.15875,0.1905 -0.35718,0.3413205 -0.59795,0.4497917 -0.24078,0.1111276 -0.508,0.1666875 -0.79905,0.1666875 -0.35189,0 -0.66675,-0.074099 -0.94191,-0.22225 -0.26988,-0.1481587 -0.48419,-0.359828 -0.64029,-0.635 -0.15346,-0.2751587 -0.22755,-0.6005989 -0.22755,-0.9710182 0,-0.3730598 0.0741,-0.6958515 0.22755,-0.9657318 0.15345,-0.2751587 0.36512,-0.486828 0.635,-0.635 0.27516,-0.1481587 0.59002,-0.22225 0.9472,-0.22225 0.34925,0 0.66146,0.071401 0.93134,0.2143125 0.27252,0.1455288 0.48418,0.3518985 0.635,0.6244193 0.15346,0.2645807 0.23018,0.5820807 0.23018,0.9445599 z m -1.27,-0.3095599 c 0,-0.153461 -0.0503,-0.2725208 -0.15345,-0.3571901 -0.10055,-0.087299 -0.22755,-0.1322917 -0.381,-0.1322917 -0.15082,0 -0.27782,0.042302 -0.37307,0.127 -0.0979,0.079402 -0.16139,0.2010913 -0.1905,0.3624818 z m 4.10898,-1.4605 c 0.41011,0 0.73819,0.1375807 0.97896,0.41275 0.24077,0.2698803 0.36248,0.6376485 0.36248,1.1033099 v 2.0769791 h -1.24619 v -1.910289 c 0,-0.2037318 -0.0529,-0.3624818 -0.15875,-0.47625 -0.10583,-0.1190598 -0.24606,-0.1799193 -0.42598,-0.1799193 -0.1852,0 -0.33072,0.060899 -0.43656,0.1799193 -0.10583,0.1137682 -0.15875,0.2725182 -0.15875,0.47625 v 1.910289 h -1.24619 v -3.561289 h 1.24619 v 0.508 c 0.10848,-0.1613905 0.25665,-0.2910417 0.4445,-0.3889401 0.18521,-0.1005417 0.39952,-0.1508099 0.64029,-0.1508099 z m 4.12486,2.5320599 v 1.0609791 h -0.53975 c -0.91017,0 -1.36525,-0.449789 -1.36525,-1.3520208 v -1.17475 h -0.43921 v -1.0345182 h 0.43921 v -0.8651901 h 1.25148 v 0.8651901 h 0.64823 v 1.0345182 h -0.64823 v 1.1932708 c 0,0.097901 0.0212,0.1666902 0.0635,0.2090209 0.045,0.042299 0.12171,0.0635 0.22754,0.0635 z m 2.08756,1.1059583 c -0.32015,0 -0.60854,-0.052898 -0.86254,-0.15875 -0.24871,-0.1111197 -0.44979,-0.259289 -0.59796,-0.4445 -0.14287,-0.1905 -0.22225,-0.4048099 -0.24077,-0.6429375 h 1.2065 c 0.0185,0.1164193 0.0714,0.2037292 0.15875,0.2672292 0.09,0.0635 0.19844,0.0952 0.33073,0.0952 0.10054,0 0.18256,-0.021193 0.24077,-0.0635 0.0609,-0.042299 0.09,-0.097901 0.09,-0.164039 0,-0.090001 -0.0503,-0.1561015 -0.14552,-0.1984402 -0.0979,-0.042302 -0.25926,-0.087302 -0.48418,-0.1375807 -0.254,-0.052901 -0.46564,-0.1084791 -0.635,-0.1719791 -0.16934,-0.0635 -0.3175,-0.1666902 -0.4445,-0.312211 -0.12171,-0.1428697 -0.18257,-0.3386614 -0.18257,-0.5847292 0,-0.2116613 0.0556,-0.4021613 0.16934,-0.571492 0.11641,-0.1719792 0.28313,-0.3095678 0.50271,-0.41275 0.22492,-0.1005496 0.49215,-0.1508178 0.80697,-0.1508178 0.4657,0 0.8308,0.1137682 1.09803,0.3413178 0.26722,0.2301822 0.42068,0.5291613 0.46302,0.9022212 h -1.12448 c -0.0212,-0.1137708 -0.0714,-0.2010807 -0.15082,-0.259289 -0.0767,-0.0635 -0.17991,-0.0953 -0.3122,-0.0953 -0.10055,0 -0.17989,0.018494 -0.23548,0.055599 -0.0503,0.039701 -0.0741,0.092599 -0.0741,0.15875 0,0.084699 0.0476,0.1508205 0.14552,0.1984402 0.0979,0.042299 0.254,0.087299 0.46832,0.132289 0.25929,0.0556 0.4736,0.1164193 0.64293,0.185211 0.17198,0.066098 0.3228,0.1772682 0.4498,0.3307292 0.13229,0.1481693 0.19843,0.34925 0.19843,0.608539 0,0.2063803 -0.0635,0.3942318 -0.1852,0.5582708 -0.11907,0.1666902 -0.29105,0.2963413 -0.5133,0.3942292 -0.22225,0.092601 -0.48154,0.1402318 -0.78316,0.1402318 z"
       fill="#2f3c7e"
       id="path192" />
  </g>
</svg>
