<?xml version="1.0" encoding="UTF-8" standalone="no"?>
<svg
   xmlns:dc="http://purl.org/dc/elements/1.1/"
   xmlns:cc="http://creativecommons.org/ns#"
   xmlns:rdf="http://www.w3.org/1999/02/22-rdf-syntax-ns#"
   xmlns:svg="http://www.w3.org/2000/svg"
   xmlns="http://www.w3.org/2000/svg"
   xmlns:sodipodi="http://sodipodi.sourceforge.net/DTD/sodipodi-0.dtd"
   xmlns:inkscape="http://www.inkscape.org/namespaces/inkscape"
   inkscape:version="1.0 (4035a4fb49, 2020-05-01)"
   id="svg1120"
   version="1.1"
   viewBox="0 0 382.05832 137.58332"
   height="137.58333mm"
   width="382.05832mm">
  <defs
     id="defs1114">
    <linearGradient
       gradientTransform="matrix(0.26458333,0,0,0.26458333,-69.396426,5.1026729)"
       id="paint1_linear"
       x1="56"
       y1="0"
       x2="1441.63"
       y2="575.159"
       gradientUnits="userSpaceOnUse">
      <stop
         stop-color="#1565FF"
         id="stop850" />
      <stop
         offset="1"
         stop-color="#003498"
         id="stop852" />
    </linearGradient>
    <clipPath
       id="clip1">
      <rect
         y="0"
         x="0"
         width="25"
         height="25"
         fill="#ffffff"
         transform="translate(451,377)"
         id="rect873" />
    </clipPath>
    <linearGradient
       gradientTransform="matrix(0.26458333,0,0,0.26458333,-62.712285,-601.16296)"
       id="paint0_linear"
       x1="0"
       y1="1804"
       x2="1517.55"
       y2="3038.48"
       gradientUnits="userSpaceOnUse">
      <stop
         stop-color="#1565FF"
         id="stop845" />
      <stop
         offset="1"
         stop-color="#003498"
         id="stop847" />
    </linearGradient>
    <filter
       id="filter17_d"
       x="796.17902"
       y="1990.58"
       width="348"
       height="375.41699"
       filterUnits="userSpaceOnUse"
       color-interpolation-filters="sRGB">
      <feFlood
         flood-opacity="0"
         result="BackgroundImageFix"
         id="feFlood794" />
      <feColorMatrix
         in="SourceAlpha"
         type="matrix"
         values="0 0 0 0 0 0 0 0 0 0 0 0 0 0 0 0 0 0 127 0"
         result="hardAlpha"
         id="feColorMatrix796" />
      <feOffset
         id="feOffset798" />
      <feGaussianBlur
         stdDeviation="3.5"
         id="feGaussianBlur800" />
      <feComposite
         in2="hardAlpha"
         operator="out"
         id="feComposite802" />
      <feColorMatrix
         type="matrix"
         values="0 0 0 0 0 0 0 0 0 0 0 0 0 0 0 0 0 0 0.15 0"
         id="feColorMatrix804" />
      <feBlend
         mode="normal"
         in2="BackgroundImageFix"
         result="effect1_dropShadow"
         id="feBlend806" />
      <feBlend
         mode="normal"
         in="SourceGraphic"
         in2="effect1_dropShadow"
         result="shape"
         id="feBlend808" />
    </filter>
    <filter
       id="filter18_d"
       x="368.17899"
       y="1990.58"
       width="348"
       height="375.41699"
       filterUnits="userSpaceOnUse"
       color-interpolation-filters="sRGB">
      <feFlood
         flood-opacity="0"
         result="BackgroundImageFix"
         id="feFlood811" />
      <feColorMatrix
         in="SourceAlpha"
         type="matrix"
         values="0 0 0 0 0 0 0 0 0 0 0 0 0 0 0 0 0 0 127 0"
         result="hardAlpha"
         id="feColorMatrix813" />
      <feOffset
         id="feOffset815" />
      <feGaussianBlur
         stdDeviation="3.5"
         id="feGaussianBlur817" />
      <feComposite
         in2="hardAlpha"
         operator="out"
         id="feComposite819" />
      <feColorMatrix
         type="matrix"
         values="0 0 0 0 0 0 0 0 0 0 0 0 0 0 0 0 0 0 0.15 0"
         id="feColorMatrix821" />
      <feBlend
         mode="normal"
         in2="BackgroundImageFix"
         result="effect1_dropShadow"
         id="feBlend823" />
      <feBlend
         mode="normal"
         in="SourceGraphic"
         in2="effect1_dropShadow"
         result="shape"
         id="feBlend825" />
    </filter>
    <filter
       id="filter19_d"
       x="370"
       y="2408"
       width="484"
       height="102"
       filterUnits="userSpaceOnUse"
       color-interpolation-filters="sRGB">
      <feFlood
         flood-opacity="0"
         result="BackgroundImageFix"
         id="feFlood828" />
      <feColorMatrix
         in="SourceAlpha"
         type="matrix"
         values="0 0 0 0 0 0 0 0 0 0 0 0 0 0 0 0 0 0 127 0"
         result="hardAlpha"
         id="feColorMatrix830" />
      <feOffset
         dy="4"
         id="feOffset832" />
      <feGaussianBlur
         stdDeviation="2"
         id="feGaussianBlur834" />
      <feComposite
         in2="hardAlpha"
         operator="out"
         id="feComposite836" />
      <feColorMatrix
         type="matrix"
         values="0 0 0 0 0 0 0 0 0 0 0 0 0 0 0 0 0 0 0.25 0"
         id="feColorMatrix838" />
      <feBlend
         mode="normal"
         in2="BackgroundImageFix"
         result="effect1_dropShadow"
         id="feBlend840" />
      <feBlend
         mode="normal"
         in="SourceGraphic"
         in2="effect1_dropShadow"
         result="shape"
         id="feBlend842" />
    </filter>
    <filter
       id="filter1_d"
       x="291"
       y="3357"
       width="812"
       height="279"
       filterUnits="userSpaceOnUse"
       color-interpolation-filters="sRGB">
      <feFlood
         flood-opacity="0"
         result="BackgroundImageFix"
         id="feFlood498" />
      <feColorMatrix
         in="SourceAlpha"
         type="matrix"
         values="0 0 0 0 0 0 0 0 0 0 0 0 0 0 0 0 0 0 127 0"
         result="hardAlpha"
         id="feColorMatrix500" />
      <feOffset
         id="feOffset502" />
      <feGaussianBlur
         stdDeviation="3.5"
         id="feGaussianBlur504" />
      <feComposite
         in2="hardAlpha"
         operator="out"
         id="feComposite506" />
      <feColorMatrix
         type="matrix"
         values="0 0 0 0 0 0 0 0 0 0 0 0 0 0 0 0 0 0 0.15 0"
         id="feColorMatrix508" />
      <feBlend
         mode="normal"
         in2="BackgroundImageFix"
         result="effect1_dropShadow"
         id="feBlend510" />
      <feBlend
         mode="normal"
         in="SourceGraphic"
         in2="effect1_dropShadow"
         result="shape"
         id="feBlend512" />
    </filter>
    <filter
       id="filter2_d"
       x="291"
       y="3657"
       width="812"
       height="279"
       filterUnits="userSpaceOnUse"
       color-interpolation-filters="sRGB">
      <feFlood
         flood-opacity="0"
         result="BackgroundImageFix"
         id="feFlood515" />
      <feColorMatrix
         in="SourceAlpha"
         type="matrix"
         values="0 0 0 0 0 0 0 0 0 0 0 0 0 0 0 0 0 0 127 0"
         result="hardAlpha"
         id="feColorMatrix517" />
      <feOffset
         id="feOffset519" />
      <feGaussianBlur
         stdDeviation="3.5"
         id="feGaussianBlur521" />
      <feComposite
         in2="hardAlpha"
         operator="out"
         id="feComposite523" />
      <feColorMatrix
         type="matrix"
         values="0 0 0 0 0 0 0 0 0 0 0 0 0 0 0 0 0 0 0.15 0"
         id="feColorMatrix525" />
      <feBlend
         mode="normal"
         in2="BackgroundImageFix"
         result="effect1_dropShadow"
         id="feBlend527" />
      <feBlend
         mode="normal"
         in="SourceGraphic"
         in2="effect1_dropShadow"
         result="shape"
         id="feBlend529" />
    </filter>
    <filter
       id="filter3_d"
       x="291"
       y="4320"
       width="812"
       height="279"
       filterUnits="userSpaceOnUse"
       color-interpolation-filters="sRGB">
      <feFlood
         flood-opacity="0"
         result="BackgroundImageFix"
         id="feFlood532" />
      <feColorMatrix
         in="SourceAlpha"
         type="matrix"
         values="0 0 0 0 0 0 0 0 0 0 0 0 0 0 0 0 0 0 127 0"
         result="hardAlpha"
         id="feColorMatrix534" />
      <feOffset
         id="feOffset536" />
      <feGaussianBlur
         stdDeviation="3.5"
         id="feGaussianBlur538" />
      <feComposite
         in2="hardAlpha"
         operator="out"
         id="feComposite540" />
      <feColorMatrix
         type="matrix"
         values="0 0 0 0 0 0 0 0 0 0 0 0 0 0 0 0 0 0 0.15 0"
         id="feColorMatrix542" />
      <feBlend
         mode="normal"
         in2="BackgroundImageFix"
         result="effect1_dropShadow"
         id="feBlend544" />
      <feBlend
         mode="normal"
         in="SourceGraphic"
         in2="effect1_dropShadow"
         result="shape"
         id="feBlend546" />
    </filter>
    <filter
       id="filter4_d"
       x="291"
       y="4985"
       width="812"
       height="279"
       filterUnits="userSpaceOnUse"
       color-interpolation-filters="sRGB">
      <feFlood
         flood-opacity="0"
         result="BackgroundImageFix"
         id="feFlood549" />
      <feColorMatrix
         in="SourceAlpha"
         type="matrix"
         values="0 0 0 0 0 0 0 0 0 0 0 0 0 0 0 0 0 0 127 0"
         result="hardAlpha"
         id="feColorMatrix551" />
      <feOffset
         id="feOffset553" />
      <feGaussianBlur
         stdDeviation="3.5"
         id="feGaussianBlur555" />
      <feComposite
         in2="hardAlpha"
         operator="out"
         id="feComposite557" />
      <feColorMatrix
         type="matrix"
         values="0 0 0 0 0 0 0 0 0 0 0 0 0 0 0 0 0 0 0.15 0"
         id="feColorMatrix559" />
      <feBlend
         mode="normal"
         in2="BackgroundImageFix"
         result="effect1_dropShadow"
         id="feBlend561" />
      <feBlend
         mode="normal"
         in="SourceGraphic"
         in2="effect1_dropShadow"
         result="shape"
         id="feBlend563" />
    </filter>
    <filter
       id="filter5_d"
       x="292"
       y="4620"
       width="812"
       height="344"
       filterUnits="userSpaceOnUse"
       color-interpolation-filters="sRGB">
      <feFlood
         flood-opacity="0"
         result="BackgroundImageFix"
         id="feFlood566" />
      <feColorMatrix
         in="SourceAlpha"
         type="matrix"
         values="0 0 0 0 0 0 0 0 0 0 0 0 0 0 0 0 0 0 127 0"
         result="hardAlpha"
         id="feColorMatrix568" />
      <feOffset
         id="feOffset570" />
      <feGaussianBlur
         stdDeviation="3.5"
         id="feGaussianBlur572" />
      <feComposite
         in2="hardAlpha"
         operator="out"
         id="feComposite574" />
      <feColorMatrix
         type="matrix"
         values="0 0 0 0 0 0 0 0 0 0 0 0 0 0 0 0 0 0 0.15 0"
         id="feColorMatrix576" />
      <feBlend
         mode="normal"
         in2="BackgroundImageFix"
         result="effect1_dropShadow"
         id="feBlend578" />
      <feBlend
         mode="normal"
         in="SourceGraphic"
         in2="effect1_dropShadow"
         result="shape"
         id="feBlend580" />
    </filter>
    <filter
       id="filter6_d"
       x="291"
       y="3957"
       width="812"
       height="342"
       filterUnits="userSpaceOnUse"
       color-interpolation-filters="sRGB">
      <feFlood
         flood-opacity="0"
         result="BackgroundImageFix"
         id="feFlood583" />
      <feColorMatrix
         in="SourceAlpha"
         type="matrix"
         values="0 0 0 0 0 0 0 0 0 0 0 0 0 0 0 0 0 0 127 0"
         result="hardAlpha"
         id="feColorMatrix585" />
      <feOffset
         id="feOffset587" />
      <feGaussianBlur
         stdDeviation="3.5"
         id="feGaussianBlur589" />
      <feComposite
         in2="hardAlpha"
         operator="out"
         id="feComposite591" />
      <feColorMatrix
         type="matrix"
         values="0 0 0 0 0 0 0 0 0 0 0 0 0 0 0 0 0 0 0.15 0"
         id="feColorMatrix593" />
      <feBlend
         mode="normal"
         in2="BackgroundImageFix"
         result="effect1_dropShadow"
         id="feBlend595" />
      <feBlend
         mode="normal"
         in="SourceGraphic"
         in2="effect1_dropShadow"
         result="shape"
         id="feBlend597" />
    </filter>
    <linearGradient
       gradientTransform="matrix(0.26458333,0,0,0.26458333,-161.66612,-1644.0123)"
       id="paint2_linear"
       x1="-4"
       y1="5297"
       x2="1079.9"
       y2="6548.4302"
       gradientUnits="userSpaceOnUse">
      <stop
         stop-color="#1565FF"
         id="stop855" />
      <stop
         offset="1"
         stop-color="#003498"
         id="stop857" />
    </linearGradient>
  </defs>
  <sodipodi:namedview
     inkscape:window-maximized="1"
     inkscape:window-y="-8"
     inkscape:window-x="-8"
     inkscape:window-height="1377"
     inkscape:window-width="2560"
     fit-margin-bottom="0"
     fit-margin-right="0"
     fit-margin-left="0"
     fit-margin-top="0"
     showgrid="false"
     inkscape:document-rotation="0"
     inkscape:current-layer="layer1"
     inkscape:document-units="mm"
     inkscape:cy="163.12899"
     inkscape:cx="804.98765"
     inkscape:zoom="0.7"
     inkscape:pageshadow="2"
     inkscape:pageopacity="0.0"
     borderopacity="1.0"
     bordercolor="#666666"
     pagecolor="#ffffff"
     id="base" />
  <metadata
     id="metadata1117">
    <rdf:RDF>
      <cc:Work
         rdf:about="">
        <dc:format>image/svg+xml</dc:format>
        <dc:type
           rdf:resource="http://purl.org/dc/dcmitype/StillImage" />
        <dc:title></dc:title>
      </cc:Work>
    </rdf:RDF>
  </metadata>
  <g
     transform="translate(162.72446,242.51439)"
     id="layer1"
     inkscape:groupmode="layer"
     inkscape:label="Warstwa 1">
    <rect
       style="fill:url(#paint2_linear);stroke-width:0.264583"
       x="-162.72446"
       y="-242.51439"
       width="382.05832"
       height="137.58333"
       fill="url(#paint2_linear)"
       id="rect176" />
    <path
       style="stroke-width:0.264583"
       d="m 41.869911,-223.02257 h 1.82562 v 0.8811 h -2.93687 v -5.5404 h 1.11125 z m 6.61987,-1.4129 c 0,0.1588 -0.0106,0.3017 -0.0317,0.4287 h -3.21469 c 0.0265,0.3175 0.13759,0.5662 0.33338,0.7461 0.19579,0.1799 0.43656,0.2699 0.72231,0.2699 0.41275,0 0.70644,-0.1773 0.88106,-0.5318 h 1.19857 c -0.127,0.4233 -0.37042,0.7725 -0.73025,1.0477 -0.35984,0.2699 -0.80169,0.4048 -1.32557,0.4048 -0.42333,0 -0.80433,-0.093 -1.143,-0.2778 -0.33337,-0.1905 -0.59531,-0.4577 -0.78581,-0.8017 -0.18521,-0.3439 -0.27781,-0.7408 -0.27781,-1.1906 0,-0.4551 0.0926,-0.8546 0.27781,-1.1986 0.18521,-0.3439 0.4445,-0.6085 0.77788,-0.7937 0.33337,-0.1852 0.71702,-0.2778 1.15093,-0.2778 0.41804,0 0.79111,0.09 1.11919,0.2698 0.33338,0.18 0.59002,0.4366 0.76994,0.77 0.18521,0.3281 0.27781,0.7064 0.27781,1.135 z m -1.15094,-0.3175 c -0.005,-0.2857 -0.10848,-0.5132 -0.30956,-0.6826 -0.20108,-0.1746 -0.44715,-0.2619 -0.73819,-0.2619 -0.27516,0 -0.508,0.085 -0.6985,0.254 -0.18521,0.164 -0.29898,0.3942 -0.34131,0.6905 z m 1.67614,0.3969 c 0,-0.4445 0.0873,-0.8387 0.26194,-1.1827 0.17991,-0.3439 0.42068,-0.6085 0.72231,-0.7937 0.30692,-0.1852 0.64823,-0.2778 1.02394,-0.2778 0.32808,0 0.61383,0.066 0.85725,0.1984 0.2487,0.1323 0.44714,0.299 0.59531,0.5001 v -0.6271 h 1.11919 v 4.3974 h -1.11919 v -0.643 c -0.14288,0.2064 -0.34131,0.3784 -0.59531,0.516 -0.24871,0.1323 -0.53711,0.1984 -0.86519,0.1984 -0.37042,0 -0.70908,-0.095 -1.016,-0.2857 -0.30163,-0.1905 -0.5424,-0.4578 -0.72231,-0.8017 -0.17463,-0.3493 -0.26194,-0.7488 -0.26194,-1.1986 z m 3.46075,0.016 c 0,-0.2699 -0.0529,-0.5001 -0.15875,-0.6906 -0.10583,-0.1958 -0.24871,-0.3439 -0.42863,-0.4445 -0.17991,-0.1058 -0.37306,-0.1587 -0.57943,-0.1587 -0.20638,0 -0.39688,0.05 -0.5715,0.1508 -0.17463,0.1005 -0.3175,0.2487 -0.42863,0.4445 -0.10583,0.1905 -0.15875,0.418 -0.15875,0.6826 0,0.2646 0.0529,0.4974 0.15875,0.6985 0.11113,0.1958 0.254,0.3466 0.42863,0.4525 0.17991,0.1058 0.37041,0.1587 0.5715,0.1587 0.20637,0 0.39952,-0.05 0.57943,-0.1508 0.17992,-0.1058 0.3228,-0.254 0.42863,-0.4445 0.10583,-0.1958 0.15875,-0.4286 0.15875,-0.6985 z m 3.31576,-1.5161 c 0.14287,-0.2328 0.32808,-0.4154 0.55562,-0.5477 0.23284,-0.1322 0.49742,-0.1984 0.79375,-0.1984 v 1.1668 h -0.29369 c -0.34925,0 -0.61383,0.082 -0.79375,0.2461 -0.17462,0.164 -0.26193,0.4498 -0.26193,0.8572 v 2.1908 h -1.11125 v -4.3974 h 1.11125 z m 4.53469,-0.7461 c 0.52388,0 0.94721,0.1667 1.27,0.5001 0.32279,0.3281 0.48419,0.7884 0.48419,1.3811 v 2.5797 h -1.11125 v -2.4289 c 0,-0.3492 -0.0873,-0.6165 -0.26194,-0.8017 -0.17462,-0.1905 -0.41275,-0.2857 -0.71437,-0.2857 -0.30692,0 -0.55034,0.095 -0.73025,0.2857 -0.17463,0.1852 -0.26194,0.4525 -0.26194,0.8017 v 2.4289 h -1.11125 v -4.3974 h 1.11125 v 0.5477 c 0.14816,-0.1905 0.33602,-0.3387 0.56356,-0.4445 0.23283,-0.1111 0.48683,-0.1667 0.762,-0.1667 z"
       fill="#ffffff"
       id="path194" />
    <path
       style="stroke-width:0.264583"
       d="m 121.98044,-224.91957 c 0,-0.5451 0.12171,-1.0319 0.36513,-1.4605 0.24871,-0.434 0.58473,-0.77 1.00806,-1.0081 0.42863,-0.2434 0.90752,-0.3651 1.43669,-0.3651 0.61912,0 1.16152,0.1587 1.62719,0.4762 0.46566,0.3175 0.7911,0.7567 0.97631,1.3176 h -1.27794 c -0.127,-0.2645 -0.30692,-0.463 -0.53975,-0.5953 -0.22754,-0.1323 -0.49212,-0.1984 -0.79375,-0.1984 -0.32279,0 -0.61119,0.077 -0.86519,0.2302 -0.24871,0.1481 -0.4445,0.3598 -0.58737,0.635 -0.13759,0.2751 -0.20638,0.5979 -0.20638,0.9684 0,0.3651 0.0688,0.6879 0.20638,0.9683 0.14287,0.2752 0.33866,0.4895 0.58737,0.643 0.254,0.1481 0.5424,0.2222 0.86519,0.2222 0.30163,0 0.56621,-0.066 0.79375,-0.1984 0.23283,-0.1376 0.41275,-0.3387 0.53975,-0.6033 h 1.27794 c -0.18521,0.5662 -0.51065,1.0081 -0.97631,1.3256 -0.46038,0.3122 -1.00278,0.4683 -1.62719,0.4683 -0.52917,0 -1.00806,-0.1191 -1.43669,-0.3572 -0.42333,-0.2434 -0.75935,-0.5794 -1.00806,-1.008 -0.24342,-0.4287 -0.36513,-0.9155 -0.36513,-1.4605 z m 8.31586,2.8495 c -0.42334,0 -0.80434,-0.093 -1.143,-0.2778 -0.33867,-0.1905 -0.6059,-0.4577 -0.80169,-0.8017 -0.1905,-0.3439 -0.28575,-0.7408 -0.28575,-1.1906 0,-0.4498 0.0979,-0.8467 0.29369,-1.1906 0.20108,-0.344 0.4736,-0.6086 0.81756,-0.7938 0.34396,-0.1905 0.7276,-0.2857 1.15094,-0.2857 0.42333,0 0.80698,0.095 1.15093,0.2857 0.34396,0.1852 0.61384,0.4498 0.80963,0.7938 0.20108,0.3439 0.30162,0.7408 0.30162,1.1906 0,0.4498 -0.10318,0.8467 -0.30956,1.1906 -0.20108,0.344 -0.47625,0.6112 -0.8255,0.8017 -0.34396,0.1852 -0.73025,0.2778 -1.15887,0.2778 z m 0,-0.9684 c 0.20108,0 0.38893,-0.048 0.56356,-0.1428 0.17992,-0.1006 0.32279,-0.2487 0.42862,-0.4445 0.10584,-0.1958 0.15875,-0.4339 0.15875,-0.7144 0,-0.418 -0.11112,-0.7382 -0.33337,-0.9604 -0.21696,-0.2276 -0.48419,-0.3414 -0.80169,-0.3414 -0.3175,0 -0.58473,0.1138 -0.80169,0.3414 -0.21166,0.2222 -0.3175,0.5424 -0.3175,0.9604 0,0.418 0.10319,0.7408 0.30957,0.9684 0.21166,0.2222 0.47625,0.3333 0.79375,0.3333 z m 5.54566,-3.5639 c 0.52388,0 0.94721,0.1667 1.27,0.5001 0.3228,0.3281 0.48419,0.7884 0.48419,1.3811 v 2.5797 h -1.11125 v -2.4289 c 0,-0.3492 -0.0873,-0.6165 -0.26194,-0.8017 -0.17462,-0.1905 -0.41275,-0.2857 -0.71437,-0.2857 -0.30692,0 -0.55033,0.095 -0.73025,0.2857 -0.17463,0.1852 -0.26194,0.4525 -0.26194,0.8017 v 2.4289 h -1.11125 v -4.3974 h 1.11125 v 0.5477 c 0.14817,-0.1905 0.33602,-0.3387 0.56356,-0.4445 0.23284,-0.1111 0.48684,-0.1667 0.762,-0.1667 z m 4.10369,0.9763 v 2.1273 c 0,0.1481 0.0344,0.2566 0.10319,0.3254 0.0741,0.063 0.19579,0.095 0.36512,0.095 h 0.51594 v 0.9366 h -0.6985 c -0.93662,0 -1.40494,-0.4551 -1.40494,-1.3653 v -2.1193 h -0.52387 v -0.9128 h 0.52387 v -1.0874 h 1.11919 v 1.0874 h 0.98425 v 0.9128 z m 1.49754,1.27 c 0,-0.4445 0.0873,-0.8387 0.26194,-1.1827 0.17992,-0.3439 0.42069,-0.6085 0.72231,-0.7937 0.30692,-0.1852 0.64823,-0.2778 1.02394,-0.2778 0.32808,0 0.61383,0.066 0.85725,0.1984 0.24871,0.1323 0.44715,0.299 0.59531,0.5001 v -0.6271 h 1.11919 v 4.3974 h -1.11919 v -0.643 c -0.14287,0.2064 -0.34131,0.3784 -0.59531,0.516 -0.24871,0.1323 -0.5371,0.1984 -0.86519,0.1984 -0.37041,0 -0.70908,-0.095 -1.016,-0.2857 -0.30162,-0.1905 -0.54239,-0.4578 -0.72231,-0.8017 -0.17462,-0.3493 -0.26194,-0.7488 -0.26194,-1.1986 z m 3.46075,0.016 c 0,-0.2699 -0.0529,-0.5001 -0.15875,-0.6906 -0.10583,-0.1958 -0.24871,-0.3439 -0.42862,-0.4445 -0.17992,-0.1058 -0.37306,-0.1587 -0.57944,-0.1587 -0.20637,0 -0.39687,0.05 -0.5715,0.1508 -0.17462,0.1005 -0.3175,0.2487 -0.42862,0.4445 -0.10584,0.1905 -0.15875,0.418 -0.15875,0.6826 0,0.2646 0.0529,0.4974 0.15875,0.6985 0.11112,0.1958 0.254,0.3466 0.42862,0.4525 0.17992,0.1058 0.37042,0.1587 0.5715,0.1587 0.20638,0 0.39952,-0.05 0.57944,-0.1508 0.17991,-0.1058 0.32279,-0.254 0.42862,-0.4445 0.10584,-0.1958 0.15875,-0.4286 0.15875,-0.6985 z m 1.92088,0 c 0,-0.4551 0.0926,-0.852 0.27781,-1.1906 0.18521,-0.344 0.44185,-0.6086 0.76994,-0.7938 0.32808,-0.1905 0.70379,-0.2857 1.12712,-0.2857 0.54504,0 0.99484,0.1376 1.34938,0.4127 0.35983,0.2699 0.6006,0.6509 0.72231,1.143 h -1.19856 c -0.0635,-0.1905 -0.17198,-0.3386 -0.32544,-0.4445 -0.14817,-0.1111 -0.33337,-0.1667 -0.55562,-0.1667 -0.3175,0 -0.56886,0.1164 -0.75407,0.3493 -0.18521,0.2275 -0.27781,0.553 -0.27781,0.9763 0,0.418 0.0926,0.7435 0.27781,0.9763 0.18521,0.2275 0.43657,0.3413 0.75407,0.3413 0.44979,0 0.74347,-0.2011 0.88106,-0.6032 h 1.19856 c -0.12171,0.4762 -0.36248,0.8546 -0.72231,1.135 -0.35984,0.2805 -0.80963,0.4207 -1.34938,0.4207 -0.42333,0 -0.79904,-0.093 -1.12712,-0.2778 -0.32809,-0.1905 -0.58473,-0.4551 -0.76994,-0.7937 -0.18521,-0.344 -0.27781,-0.7435 -0.27781,-1.1986 z m 6.35264,-1.2859 v 2.1273 c 0,0.1481 0.0344,0.2566 0.10319,0.3254 0.0741,0.063 0.19579,0.095 0.36513,0.095 h 0.51593 v 0.9366 h -0.6985 c -0.93662,0 -1.40493,-0.4551 -1.40493,-1.3653 v -2.1193 h -0.52388 v -0.9128 h 0.52388 v -1.0874 h 1.11918 v 1.0874 h 0.98425 v 0.9128 z"
       fill="#ffffff"
       id="path196" />
    <path
       style="stroke-width:0.264583"
       d="m 42.798591,-207.61587 h -1.60866 l -0.29634,0.8202 h -0.508 l 1.3335,-3.6671 h 0.55563 l 1.32821,3.6671 h -0.508 z m -0.13758,-0.3916 -0.66675,-1.8626 -0.66675,1.8626 z m 2.00475,-1.1483 c 0.0987,-0.1719 0.24341,-0.3148 0.43391,-0.4233 0.1905,-0.1085 0.40746,-0.164 0.65088,-0.164 0.26088,0 0.49556,0.061 0.70379,0.1852 0.20796,0.1243 0.37201,0.2989 0.49213,0.5238 0.11985,0.2223 0.17991,0.4816 0.17991,0.7779 0,0.2937 -0.0601,0.553 -0.17991,0.7832 -0.12012,0.2302 -0.28575,0.4074 -0.49742,0.5344 -0.20823,0.127 -0.44106,0.1905 -0.6985,0.1905 -0.25056,0 -0.47096,-0.055 -0.66146,-0.164 -0.18706,-0.1085 -0.32808,-0.2487 -0.42333,-0.418 v 0.5344 h -0.48154 v -3.9158 h 0.48154 z m 1.9685,0.8996 c 0,-0.2196 -0.0442,-0.4101 -0.13229,-0.5715 -0.0884,-0.1614 -0.20823,-0.2857 -0.35984,-0.3704 -0.14816,-0.085 -0.31221,-0.127 -0.49212,-0.127 -0.17648,0 -0.34052,0.045 -0.49213,0.1323 -0.14816,0.085 -0.26828,0.209 -0.35983,0.3757 -0.0884,0.1614 -0.13229,0.3519 -0.13229,0.5662 0,0.2196 0.0439,0.4101 0.13229,0.5768 0.0915,0.1614 0.21167,0.2884 0.35983,0.3757 0.15161,0.085 0.31565,0.127 0.49213,0.127 0.17991,0 0.34396,-0.042 0.49212,-0.127 0.15161,-0.087 0.27147,-0.2143 0.35984,-0.3757 0.0881,-0.1667 0.13229,-0.3598 0.13229,-0.5821 z m 2.39051,1.5081 c -0.27146,0 -0.51859,-0.061 -0.74084,-0.1852 -0.21854,-0.1243 -0.39158,-0.2989 -0.51858,-0.5238 -0.12329,-0.2302 -0.18521,-0.4948 -0.18521,-0.7938 0,-0.2963 0.0635,-0.5583 0.1905,-0.7832 0.13071,-0.2301 0.30692,-0.4048 0.52917,-0.5238 0.22225,-0.1244 0.47096,-0.1852 0.74612,-0.1852 0.27517,0 0.52388,0.061 0.74613,0.1852 0.22225,0.119 0.39687,0.2937 0.52387,0.5185 0.13071,0.2249 0.1958,0.4895 0.1958,0.7885 0,0.299 -0.0669,0.5636 -0.20109,0.7938 -0.13044,0.2249 -0.3085,0.3995 -0.53446,0.5238 -0.22568,0.1244 -0.47625,0.1852 -0.75141,0.1852 z m 0,-0.4233 c 0.17304,0 0.33523,-0.04 0.48683,-0.1217 0.15187,-0.082 0.27358,-0.2037 0.36513,-0.3651 0.0952,-0.1614 0.14287,-0.3599 0.14287,-0.5927 0,-0.2328 -0.0458,-0.4313 -0.13758,-0.5927 -0.0916,-0.1614 -0.21167,-0.2831 -0.35984,-0.3598 -0.14816,-0.082 -0.3085,-0.1217 -0.48154,-0.1217 -0.17621,0 -0.33866,0.04 -0.48683,0.1217 -0.14446,0.077 -0.26088,0.1984 -0.34925,0.3598 -0.0881,0.1614 -0.13229,0.3599 -0.13229,0.5927 0,0.2355 0.0423,0.4366 0.127,0.598 0.0884,0.1614 0.20479,0.2831 0.34925,0.3651 0.14473,0.077 0.30348,0.1164 0.47625,0.1164 z m 4.69185,-2.5241 v 2.8998 h -0.48154 v -0.4286 c -0.0918,0.1482 -0.2204,0.2646 -0.38629,0.3492 -0.16219,0.082 -0.34211,0.1217 -0.53975,0.1217 -0.22569,0 -0.42862,-0.045 -0.60854,-0.1375 -0.17992,-0.095 -0.32279,-0.2355 -0.42863,-0.4234 -0.10239,-0.1878 -0.15345,-0.4154 -0.15345,-0.6826 v -1.6986 h 0.47625 v 1.6351 c 0,0.2858 0.0722,0.5054 0.21695,0.6615 0.14473,0.1508 0.34211,0.2275 0.59267,0.2275 0.25744,0 0.46038,-0.079 0.60854,-0.2381 0.14817,-0.1588 0.22225,-0.389 0.22225,-0.6932 v -1.5928 z m 1.40044,0.3969 v 1.7092 c 0,0.1402 0.0299,0.2407 0.09,0.3016 0.0601,0.056 0.16404,0.085 0.31221,0.085 h 0.35454 v 0.4074 h -0.43391 c -0.26803,0 -0.46911,-0.061 -0.60325,-0.1852 -0.13415,-0.1243 -0.20109,-0.3254 -0.20109,-0.6085 v -1.7092 h -0.37571 v -0.3969 h 0.37571 v -0.7303 h 0.48154 v 0.7303 h 0.75671 v 0.3969 z m 3.22184,-1.1854 v 2.3336 c 0,0.3281 0.0794,0.5715 0.23812,0.7303 0.16245,0.1587 0.38629,0.2381 0.67204,0.2381 0.28231,0 0.50271,-0.079 0.66146,-0.2381 0.16245,-0.1588 0.24342,-0.4022 0.24342,-0.7303 v -2.3336 h 0.48154 v 2.3284 c 0,0.3069 -0.0616,0.5662 -0.18521,0.7778 -0.1233,0.2091 -0.29104,0.3625 -0.50271,0.4657 -0.20796,0.1032 -0.44265,0.1535 -0.70379,0.1535 -0.26088,0 -0.49742,-0.05 -0.70908,-0.1535 -0.20797,-0.1032 -0.37386,-0.2566 -0.49742,-0.4657 -0.11986,-0.2116 -0.17992,-0.4709 -0.17992,-0.7778 v -2.3284 z m 4.12644,3.7359 c -0.22225,0 -0.42148,-0.037 -0.59796,-0.1111 -0.17621,-0.077 -0.31565,-0.1825 -0.41804,-0.3175 -0.10213,-0.1376 -0.15875,-0.2937 -0.16934,-0.4709 h 0.49742 c 0.0143,0.1455 0.0812,0.2619 0.20108,0.3545 0.12356,0.093 0.28417,0.1376 0.48155,0.1376 0.18362,0 0.32808,-0.04 0.43391,-0.1217 0.10584,-0.082 0.15875,-0.1826 0.15875,-0.3069 0,-0.127 -0.0564,-0.2196 -0.16933,-0.2805 -0.11271,-0.063 -0.28734,-0.1244 -0.52388,-0.1852 -0.2151,-0.056 -0.39158,-0.1138 -0.52916,-0.1693 -0.13388,-0.061 -0.2503,-0.1456 -0.34925,-0.2593 -0.0952,-0.1164 -0.14288,-0.2673 -0.14288,-0.4551 0,-0.1482 0.0442,-0.2831 0.13229,-0.4075 0.0884,-0.1243 0.21352,-0.2196 0.37571,-0.291 0.16246,-0.074 0.34766,-0.1111 0.55563,-0.1111 0.3212,0 0.58049,0.082 0.77787,0.2434 0.19765,0.1614 0.30348,0.3836 0.3175,0.6667 h -0.48154 c -0.0106,-0.1508 -0.0722,-0.2725 -0.18521,-0.3651 -0.10927,-0.093 -0.25744,-0.1376 -0.4445,-0.1376 -0.17277,0 -0.31035,0.037 -0.41275,0.1111 -0.10213,0.074 -0.15346,0.172 -0.15346,0.2911 0,0.095 0.0302,0.1746 0.09,0.2381 0.0635,0.061 0.14129,0.1085 0.23284,0.1482 0.0952,0.034 0.22595,0.077 0.39158,0.1217 0.20823,0.056 0.37756,0.1138 0.508,0.1693 0.1307,0.053 0.24183,0.135 0.33337,0.2434 0.0952,0.1085 0.14473,0.2514 0.14817,0.4287 0,0.1587 -0.0439,0.3016 -0.13229,0.4286 -0.0881,0.127 -0.21326,0.2275 -0.37571,0.3016 -0.15875,0.071 -0.34211,0.1058 -0.55033,0.1058 z"
       fill="#ffffff"
       id="path198" />
    <path
       style="stroke-width:0.264583"
       d="m 123.27955,-206.75857 c -0.24342,0 -0.46302,-0.042 -0.65617,-0.127 -0.1905,-0.087 -0.34131,-0.2091 -0.44979,-0.3599 -0.10848,-0.1561 -0.16669,-0.3334 -0.16933,-0.5344 h 0.51329 c 0.0185,0.1719 0.0873,0.3201 0.21166,0.4392 0.127,0.1164 0.30957,0.1746 0.55034,0.1746 0.23018,0 0.4101,-0.056 0.53975,-0.1693 0.13493,-0.1165 0.20108,-0.2646 0.20108,-0.4445 0,-0.1403 -0.0397,-0.2567 -0.11642,-0.344 -0.0767,-0.087 -0.17462,-0.1561 -0.29104,-0.2011 -0.11641,-0.045 -0.27252,-0.095 -0.47096,-0.1481 -0.24341,-0.063 -0.4392,-0.127 -0.58737,-0.1905 -0.14552,-0.064 -0.26988,-0.1614 -0.37571,-0.2964 -0.10319,-0.1376 -0.15346,-0.3201 -0.15346,-0.5503 0,-0.2011 0.0503,-0.3784 0.15346,-0.5345 0.10319,-0.1561 0.24606,-0.2751 0.42863,-0.3598 0.18785,-0.085 0.39952,-0.127 0.64029,-0.127 0.3466,0 0.62706,0.087 0.84666,0.2593 0.22225,0.172 0.34661,0.4022 0.37571,0.6879 h -0.52916 c -0.0185,-0.1402 -0.0926,-0.2646 -0.22225,-0.3704 -0.12965,-0.1085 -0.30428,-0.1641 -0.51859,-0.1641 -0.20108,0 -0.36512,0.053 -0.49212,0.1588 -0.127,0.1032 -0.1905,0.2461 -0.1905,0.4339 0,0.135 0.037,0.2434 0.11112,0.3281 0.0767,0.085 0.17198,0.1508 0.28046,0.1958 0.11377,0.042 0.26988,0.093 0.47096,0.1482 0.24342,0.066 0.43921,0.1349 0.58737,0.201 0.14817,0.063 0.27517,0.1641 0.381,0.3017 0.10584,0.1349 0.15875,0.3175 0.15875,0.5503 0,0.1799 -0.0476,0.3492 -0.14287,0.508 -0.0953,0.1588 -0.23548,0.2884 -0.42333,0.3863 -0.18786,0.098 -0.40746,0.1482 -0.66146,0.1482 z m 4.5085,-2.9369 v 2.8998 h -0.48154 v -0.4286 c -0.0926,0.1482 -0.22225,0.2646 -0.3863,0.3492 -0.16404,0.082 -0.34395,0.1217 -0.53975,0.1217 -0.22754,0 -0.42862,-0.045 -0.60854,-0.1375 -0.17991,-0.095 -0.32279,-0.2355 -0.42862,-0.4234 -0.10319,-0.1878 -0.15346,-0.4154 -0.15346,-0.6826 v -1.6986 h 0.47625 v 1.6351 c 0,0.2858 0.0714,0.5054 0.21696,0.6615 0.14287,0.1508 0.34131,0.2275 0.59266,0.2275 0.25665,0 0.46038,-0.079 0.60855,-0.2381 0.14816,-0.1588 0.22225,-0.389 0.22225,-0.6932 v -1.5928 z m 1.29381,0.5344 c 0.0953,-0.1666 0.23548,-0.3042 0.42333,-0.4127 0.1905,-0.1138 0.41011,-0.1693 0.66146,-0.1693 0.25665,0 0.48948,0.061 0.6985,0.1852 0.21167,0.1243 0.37836,0.2989 0.49742,0.5238 0.11906,0.2223 0.17991,0.4816 0.17991,0.7779 0,0.2937 -0.0608,0.553 -0.17991,0.7832 -0.11906,0.2302 -0.28575,0.4074 -0.49742,0.5344 -0.20902,0.127 -0.44185,0.1905 -0.6985,0.1905 -0.24606,0 -0.46567,-0.055 -0.65617,-0.164 -0.18785,-0.1138 -0.33072,-0.2514 -0.42862,-0.418 v 1.9102 h -0.48154 v -4.2756 h 0.48154 z m 1.9685,0.9049 c 0,-0.2196 -0.045,-0.4101 -0.13229,-0.5715 -0.0873,-0.1614 -0.20902,-0.2857 -0.35984,-0.3704 -0.14816,-0.085 -0.3122,-0.127 -0.49212,-0.127 -0.17727,0 -0.34131,0.045 -0.49213,0.1323 -0.14816,0.085 -0.26722,0.209 -0.35983,0.3757 -0.0873,0.1614 -0.13229,0.3519 -0.13229,0.5662 0,0.2196 0.045,0.4101 0.13229,0.5768 0.0926,0.1614 0.21167,0.2884 0.35983,0.3757 0.15082,0.085 0.31486,0.127 0.49213,0.127 0.17992,0 0.34396,-0.042 0.49212,-0.127 0.15082,-0.087 0.27253,-0.2143 0.35984,-0.3757 0.0873,-0.1667 0.13229,-0.3598 0.13229,-0.5821 z m 1.60867,-0.9049 c 0.0952,-0.1666 0.23548,-0.3042 0.42333,-0.4127 0.1905,-0.1138 0.4101,-0.1693 0.66146,-0.1693 0.25664,0 0.48948,0.061 0.6985,0.1852 0.21166,0.1243 0.37571,0.2989 0.49741,0.5238 0.11907,0.2223 0.17992,0.4816 0.17992,0.7779 0,0.2937 -0.0609,0.553 -0.17992,0.7832 -0.1217,0.2302 -0.28575,0.4074 -0.49741,0.5344 -0.20902,0.127 -0.44186,0.1905 -0.6985,0.1905 -0.24871,0 -0.46567,-0.055 -0.65617,-0.164 -0.18785,-0.1138 -0.33073,-0.2514 -0.42862,-0.418 v 1.9102 h -0.48155 v -4.2756 h 0.48155 z m 1.9685,0.9049 c 0,-0.2196 -0.045,-0.4101 -0.1323,-0.5715 -0.09,-0.1614 -0.20902,-0.2857 -0.35983,-0.3704 -0.14817,-0.085 -0.31221,-0.127 -0.49212,-0.127 -0.17727,0 -0.34132,0.045 -0.49213,0.1323 -0.14817,0.085 -0.26987,0.209 -0.35983,0.3757 -0.0899,0.1614 -0.13229,0.3519 -0.13229,0.5662 0,0.2196 0.0423,0.4101 0.13229,0.5768 0.09,0.1614 0.21166,0.2884 0.35983,0.3757 0.15081,0.085 0.31486,0.127 0.49213,0.127 0.17991,0 0.34395,-0.042 0.49212,-0.127 0.15081,-0.087 0.26988,-0.2143 0.35983,-0.3757 0.0873,-0.1667 0.1323,-0.3598 0.1323,-0.5821 z m 2.38918,1.5081 c -0.26987,0 -0.51858,-0.061 -0.74083,-0.1852 -0.21696,-0.1243 -0.39158,-0.2989 -0.51858,-0.5238 -0.12171,-0.2302 -0.18521,-0.4948 -0.18521,-0.7938 0,-0.2963 0.0635,-0.5583 0.1905,-0.7832 0.13229,-0.2301 0.30692,-0.4048 0.52917,-0.5238 0.22225,-0.1244 0.47095,-0.1852 0.74612,-0.1852 0.27517,0 0.52388,0.061 0.74613,0.1852 0.22225,0.119 0.39687,0.2937 0.52387,0.5186 0.13229,0.2248 0.19579,0.4894 0.19579,0.7884 0,0.299 -0.0662,0.5636 -0.20108,0.7938 -0.12965,0.2249 -0.30692,0.3995 -0.53446,0.5238 -0.2249,0.1244 -0.47625,0.1852 -0.75142,0.1852 z m 0,-0.4233 c 0.17463,0 0.33602,-0.04 0.48684,-0.1217 0.15346,-0.082 0.27516,-0.2037 0.36512,-0.3651 0.0953,-0.1614 0.14288,-0.3599 0.14288,-0.5927 0,-0.2328 -0.045,-0.4313 -0.13759,-0.5927 -0.09,-0.1614 -0.21166,-0.2831 -0.35983,-0.3598 -0.14817,-0.082 -0.30692,-0.1217 -0.48154,-0.1217 -0.17463,0 -0.33867,0.04 -0.48683,0.1217 -0.14288,0.077 -0.2593,0.1984 -0.34925,0.3598 -0.0873,0.1614 -0.1323,0.3599 -0.1323,0.5927 0,0.2355 0.0423,0.4366 0.127,0.598 0.09,0.1614 0.20638,0.2831 0.34925,0.3651 0.14552,0.077 0.30427,0.1164 0.47625,0.1164 z m 2.6035,-2.0532 c 0.0847,-0.1666 0.20373,-0.2936 0.35984,-0.3863 0.15875,-0.093 0.34925,-0.1375 0.57679,-0.1375 v 0.4974 h -0.127 c -0.53975,0 -0.80963,0.2937 -0.80963,0.8784 v 1.5769 h -0.48154 v -2.8998 h 0.48154 z m 2.07963,-0.074 v 1.7092 c 0,0.1402 0.0291,0.2407 0.09,0.3016 0.0582,0.056 0.16405,0.085 0.31221,0.085 h 0.35454 v 0.4074 h -0.43389 c -0.2699,0 -0.47096,-0.061 -0.60325,-0.1852 -0.13493,-0.1243 -0.20111,-0.3254 -0.20111,-0.6085 v -1.7092 h -0.3757 v -0.3969 h 0.3757 v -0.7303 h 0.48155 v 0.7303 h 0.7567 v 0.3969 z"
       fill="#ffffff"
       id="path200" />
    <path
       style="stroke-width:0.264583"
       d="m 42.290591,-192.47107 c -0.3421,0 -0.65431,-0.079 -0.93662,-0.2382 -0.28231,-0.1614 -0.50615,-0.3863 -0.67204,-0.672 -0.16219,-0.2884 -0.24342,-0.6138 -0.24342,-0.9737 0,-0.3598 0.0812,-0.6826 0.24342,-0.9684 0.16589,-0.2883 0.38973,-0.5132 0.67204,-0.672 0.28231,-0.1614 0.59452,-0.2434 0.93662,-0.2434 0.34581,0 0.65961,0.082 0.94192,0.2434 0.28231,0.1588 0.50456,0.381 0.66675,0.6668 0.16219,0.2857 0.24342,0.6111 0.24342,0.9736 0,0.3625 -0.0812,0.6879 -0.24342,0.9737 -0.16219,0.2857 -0.38444,0.5106 -0.66675,0.672 -0.28231,0.1588 -0.59611,0.2382 -0.94192,0.2382 z m 0,-0.4181 c 0.25744,0 0.48869,-0.061 0.69321,-0.1799 0.20823,-0.1191 0.37042,-0.291 0.48683,-0.5133 0.11986,-0.2222 0.17992,-0.4789 0.17992,-0.7726 0,-0.2963 -0.0601,-0.553 -0.17992,-0.7726 -0.11641,-0.2222 -0.27701,-0.3942 -0.48154,-0.5132 -0.20452,-0.1191 -0.43735,-0.18 -0.6985,-0.18 -0.26114,0 -0.49397,0.061 -0.6985,0.18 -0.20452,0.119 -0.36697,0.291 -0.48683,0.5132 -0.11642,0.2196 -0.17463,0.4763 -0.17463,0.7726 0,0.2937 0.0582,0.5504 0.17463,0.7726 0.11986,0.2223 0.28231,0.3942 0.48683,0.5133 0.20823,0.1191 0.44106,0.1799 0.6985,0.1799 z m 5.05963,-2.5188 v 2.8998 h -0.48154 v -0.4286 c -0.0918,0.1482 -0.22066,0.2646 -0.38629,0.3492 -0.16246,0.082 -0.34237,0.1217 -0.53975,0.1217 -0.22596,0 -0.42863,-0.045 -0.60854,-0.1375 -0.17992,-0.095 -0.3228,-0.2355 -0.42863,-0.4234 -0.10239,-0.1878 -0.15346,-0.4154 -0.15346,-0.6826 v -1.6986 h 0.47625 v 1.6351 c 0,0.2858 0.0722,0.5054 0.21696,0.6615 0.14446,0.1508 0.34211,0.2275 0.59267,0.2275 0.25744,0 0.46037,-0.079 0.60854,-0.2381 0.14817,-0.1588 0.22225,-0.389 0.22225,-0.6932 v -1.5928 z m 1.29461,0.4709 c 0.0847,-0.1666 0.20452,-0.2936 0.35983,-0.3863 0.15875,-0.093 0.35084,-0.1375 0.57679,-0.1375 v 0.4974 h -0.127 c -0.53975,0 -0.80962,0.2937 -0.80962,0.8784 v 1.5769 h -0.48155 v -2.8998 h 0.48155 z m 3.38481,-0.8678 v 1.233 h 1.34408 v 0.3968 h -1.34408 v 1.27 h 1.50283 v 0.3969 h -1.98437 v -3.6936 h 1.98437 v 0.3969 z m 3.74491,3.2967 -0.68791,-1.0795 -0.66146,1.0795 h -0.50271 l 0.93663,-1.4393 -0.93663,-1.4605 h 0.54504 l 0.68792,1.0742 0.65617,-1.0742 h 0.5027 l -0.93133,1.434 0.93663,1.4658 z m 1.50019,-2.3654 c 0.0952,-0.1666 0.23627,-0.3042 0.42333,-0.4127 0.1905,-0.1138 0.4109,-0.1693 0.66146,-0.1693 0.25744,0 0.49028,0.061 0.6985,0.1852 0.21167,0.1243 0.3773,0.2989 0.49742,0.5238 0.11986,0.2223 0.17992,0.4816 0.17992,0.7779 0,0.2937 -0.0601,0.553 -0.17992,0.7832 -0.12012,0.2302 -0.28575,0.4074 -0.49742,0.5344 -0.20822,0.127 -0.44106,0.1905 -0.6985,0.1905 -0.24712,0 -0.46566,-0.056 -0.65616,-0.164 -0.18706,-0.1138 -0.32994,-0.2514 -0.42863,-0.418 v 1.9102 h -0.48154 v -4.2756 h 0.48154 z m 1.9685,0.9049 c 0,-0.2196 -0.0442,-0.4101 -0.13229,-0.5715 -0.0884,-0.1614 -0.20823,-0.2857 -0.35983,-0.3704 -0.14817,-0.085 -0.31221,-0.127 -0.49213,-0.127 -0.17648,0 -0.34052,0.045 -0.49212,0.1323 -0.14817,0.085 -0.26829,0.209 -0.35984,0.3757 -0.0884,0.1614 -0.13229,0.3519 -0.13229,0.5662 0,0.2196 0.0439,0.4101 0.13229,0.5768 0.0916,0.1614 0.21167,0.2884 0.35984,0.3757 0.1516,0.085 0.31564,0.127 0.49212,0.127 0.17992,0 0.34396,-0.042 0.49213,-0.127 0.1516,-0.087 0.27146,-0.2143 0.35983,-0.3757 0.0881,-0.1667 0.13229,-0.3598 0.13229,-0.5821 z m 3.77164,-0.1005 c 0,0.093 -0.005,0.1878 -0.0159,0.291 h -2.31775 c 0.0177,0.2858 0.11483,0.5107 0.29104,0.6721 0.17992,0.1587 0.39688,0.2381 0.65088,0.2381 0.20823,0 0.381,-0.048 0.51858,-0.1429 0.14129,-0.098 0.23998,-0.2302 0.29633,-0.3916 h 0.51859 c -0.0775,0.2778 -0.23284,0.5054 -0.46567,0.6827 -0.23283,0.1719 -0.52202,0.2592 -0.86783,0.2592 -0.27517,0 -0.52202,-0.061 -0.74084,-0.1852 -0.2151,-0.1243 -0.38443,-0.2989 -0.508,-0.5238 -0.12329,-0.2302 -0.1852,-0.4948 -0.1852,-0.7938 0,-0.299 0.0601,-0.5636 0.17991,-0.7884 0.12012,-0.2249 0.28761,-0.3996 0.50271,-0.5186 0.21881,-0.1244 0.46937,-0.1852 0.75142,-0.1852 0.27516,0 0.51858,0.061 0.73025,0.1799 0.21166,0.119 0.37412,0.2857 0.48683,0.4974 0.11642,0.209 0.17463,0.4445 0.17463,0.7091 z m -0.49742,-0.1006 c 0,-0.1825 -0.0405,-0.3413 -0.12171,-0.4709 -0.081,-0.135 -0.19209,-0.2355 -0.33337,-0.3017 -0.13759,-0.071 -0.29105,-0.1058 -0.46038,-0.1058 -0.24342,0 -0.45138,0.077 -0.62442,0.2328 -0.16933,0.1562 -0.26617,0.3705 -0.29104,0.6456 z m 1.61475,-0.7673 c 0.0847,-0.1666 0.20452,-0.2936 0.35984,-0.3863 0.15875,-0.093 0.35083,-0.1375 0.57679,-0.1375 v 0.4974 h -0.127 c -0.53975,0 -0.80963,0.2937 -0.80963,0.8784 v 1.5769 h -0.48154 v -2.8998 h 0.48154 z m 2.07989,-0.074 v 1.7092 c 0,0.1402 0.0299,0.2407 0.09,0.3016 0.0598,0.056 0.16404,0.085 0.31221,0.085 h 0.35454 v 0.4074 h -0.43392 c -0.26828,0 -0.46937,-0.061 -0.60325,-0.1852 -0.13414,-0.1243 -0.20108,-0.3254 -0.20108,-0.6085 v -1.7092 h -0.37571 v -0.3969 h 0.37571 v -0.7303 h 0.48154 v 0.7303 h 0.75671 v 0.3969 z m 2.3667,2.5505 c -0.22225,0 -0.42148,-0.037 -0.59796,-0.1111 -0.17648,-0.077 -0.31565,-0.1825 -0.41804,-0.3175 -0.10239,-0.1376 -0.15875,-0.2937 -0.16933,-0.4709 h 0.49741 c 0.014,0.1455 0.0812,0.2619 0.20109,0.3545 0.12356,0.093 0.28389,0.1376 0.48154,0.1376 0.18335,0 0.32808,-0.04 0.43391,-0.1217 0.10584,-0.082 0.15875,-0.1826 0.15875,-0.3069 0,-0.127 -0.0563,-0.2196 -0.16933,-0.2805 -0.11298,-0.063 -0.2876,-0.1244 -0.52387,-0.1852 -0.21511,-0.056 -0.39159,-0.1138 -0.52917,-0.1693 -0.13414,-0.061 -0.25056,-0.1456 -0.34925,-0.2593 -0.0952,-0.1164 -0.14288,-0.2673 -0.14288,-0.4551 0,-0.1482 0.0442,-0.2831 0.1323,-0.4075 0.0881,-0.1243 0.21351,-0.2196 0.3757,-0.291 0.16219,-0.074 0.3474,-0.1111 0.55563,-0.1111 0.32094,0 0.58023,0.082 0.77787,0.2434 0.19765,0.1614 0.30348,0.3836 0.3175,0.6667 h -0.48154 c -0.0106,-0.1508 -0.0722,-0.2725 -0.18521,-0.3651 -0.10927,-0.093 -0.25744,-0.1376 -0.4445,-0.1376 -0.17277,0 -0.31035,0.037 -0.41275,0.1111 -0.10239,0.074 -0.15345,0.172 -0.15345,0.2911 0,0.095 0.0299,0.1746 0.0899,0.2381 0.0635,0.061 0.14103,0.1085 0.23284,0.1482 0.0952,0.034 0.22569,0.077 0.39158,0.1217 0.20823,0.055 0.37756,0.1138 0.508,0.1693 0.13044,0.053 0.24157,0.135 0.33338,0.2434 0.0953,0.1085 0.14472,0.2514 0.14816,0.4287 0,0.1587 -0.0442,0.3016 -0.13229,0.4286 -0.0881,0.127 -0.21352,0.2275 -0.37571,0.3016 -0.15875,0.071 -0.3421,0.1058 -0.55033,0.1058 z"
       fill="#ffffff"
       id="path202" />
    <path
       style="stroke-width:0.264583"
       d="m 121.93017,-193.96337 c 0,-0.299 0.0609,-0.5609 0.17992,-0.7832 0.11906,-0.2249 0.28575,-0.3995 0.49742,-0.5238 0.21431,-0.1244 0.46037,-0.1852 0.73554,-0.1852 0.35718,0 0.64823,0.087 0.87841,0.2592 0.23284,0.172 0.3863,0.4128 0.46038,0.7197 h -0.51858 c -0.0503,-0.1773 -0.14553,-0.3148 -0.29105,-0.418 -0.14023,-0.1032 -0.3175,-0.1535 -0.52916,-0.1535 -0.27517,0 -0.49742,0.095 -0.66675,0.2858 -0.16934,0.1878 -0.254,0.4524 -0.254,0.799 0,0.3493 0.0847,0.6191 0.254,0.8096 0.16933,0.1905 0.39158,0.2858 0.66675,0.2858 0.21166,0 0.38893,-0.05 0.52916,-0.1482 0.14023,-0.098 0.23813,-0.2408 0.29105,-0.4233 h 0.51858 c -0.0767,0.2963 -0.23283,0.5344 -0.46567,0.7144 -0.23283,0.1772 -0.52387,0.2645 -0.87312,0.2645 -0.27517,0 -0.52123,-0.061 -0.73554,-0.1852 -0.21167,-0.1243 -0.37836,-0.2989 -0.49742,-0.5238 -0.11906,-0.2249 -0.17992,-0.4895 -0.17992,-0.7938 z m 4.65931,1.5028 c -0.27252,0 -0.51858,-0.061 -0.74083,-0.1852 -0.2196,-0.1243 -0.39158,-0.2989 -0.51858,-0.5238 -0.12436,-0.2302 -0.18521,-0.4948 -0.18521,-0.7938 0,-0.2963 0.0635,-0.5583 0.1905,-0.7832 0.12965,-0.2301 0.30692,-0.4048 0.52917,-0.5238 0.22225,-0.1244 0.47095,-0.1852 0.74612,-0.1852 0.27517,0 0.52388,0.061 0.74613,0.1852 0.22225,0.119 0.39687,0.2937 0.52387,0.5186 0.12965,0.2248 0.19579,0.4894 0.19579,0.7884 0,0.299 -0.0661,0.5636 -0.20108,0.7938 -0.12965,0.2249 -0.30956,0.3995 -0.53446,0.5238 -0.22489,0.1244 -0.47625,0.1852 -0.75142,0.1852 z m 0,-0.4233 c 0.17198,0 0.33603,-0.04 0.48684,-0.1217 0.15081,-0.082 0.27252,-0.2037 0.36512,-0.3651 0.0952,-0.1614 0.14288,-0.3599 0.14288,-0.5927 0,-0.2328 -0.045,-0.4313 -0.13759,-0.5927 -0.0926,-0.1614 -0.21166,-0.2831 -0.35983,-0.3598 -0.14817,-0.082 -0.30956,-0.1217 -0.48154,-0.1217 -0.17727,0 -0.33867,0.04 -0.48683,0.1217 -0.14552,0.077 -0.26194,0.1984 -0.34925,0.3598 -0.0873,0.1614 -0.1323,0.3599 -0.1323,0.5927 0,0.2355 0.0423,0.4366 0.127,0.598 0.0873,0.1614 0.20373,0.2831 0.34925,0.3651 0.14553,0.077 0.30428,0.1164 0.47625,0.1164 z m 3.53219,-2.577 c 0.3519,0 0.63765,0.1084 0.85725,0.3228 0.21961,0.2116 0.32809,0.5185 0.32809,0.9207 v 1.7092 h -0.47625 v -1.6404 c 0,-0.2884 -0.0714,-0.5106 -0.21696,-0.6615 -0.14552,-0.1561 -0.34132,-0.2328 -0.59267,-0.2328 -0.254,0 -0.45773,0.079 -0.60854,0.2381 -0.14817,0.1588 -0.22225,0.389 -0.22225,0.6932 v 1.6034 h -0.48154 v -2.8998 h 0.48154 v 0.4127 c 0.0953,-0.1481 0.22489,-0.2619 0.38629,-0.3439 0.16669,-0.082 0.3466,-0.1217 0.54504,-0.1217 z m 2.55852,0.4498 v 1.7092 c 0,0.1402 0.0317,0.2407 0.09,0.3016 0.0608,0.056 0.16405,0.085 0.31221,0.085 h 0.35454 v 0.4074 H 133.003 c -0.26723,0 -0.46829,-0.061 -0.60325,-0.1852 -0.13226,-0.1243 -0.20106,-0.3254 -0.20106,-0.6085 v -1.7092 h -0.3757 v -0.3969 h 0.3757 v -0.7303 h 0.48155 v 0.7303 h 0.7567 v 0.3969 z m 1.16152,1.0424 c 0,-0.2963 0.0609,-0.5556 0.17992,-0.7779 0.11906,-0.2249 0.2831,-0.3995 0.49213,-0.5238 0.21166,-0.1244 0.44714,-0.1852 0.70379,-0.1852 0.254,0 0.4736,0.055 0.66146,0.164 0.18785,0.1085 0.32543,0.2461 0.41804,0.4128 v -0.5292 h 0.48683 v 2.8998 h -0.48683 v -0.5397 c -0.0953,0.1693 -0.23813,0.3095 -0.42863,0.4233 -0.18785,0.1085 -0.40481,0.164 -0.65616,0.164 -0.25665,0 -0.48948,-0.063 -0.6985,-0.1905 -0.20903,-0.127 -0.37307,-0.3042 -0.49213,-0.5344 -0.11906,-0.2302 -0.17992,-0.4895 -0.17992,-0.7832 z m 2.45534,0.01 c 0,-0.2196 -0.045,-0.4101 -0.13229,-0.5715 -0.0873,-0.1614 -0.20903,-0.2857 -0.35984,-0.3704 -0.14816,-0.087 -0.31221,-0.1323 -0.49212,-0.1323 -0.17992,0 -0.34396,0.042 -0.49213,0.127 -0.14816,0.085 -0.26723,0.209 -0.35454,0.3704 -0.0873,0.1614 -0.13229,0.3519 -0.13229,0.5715 0,0.2223 0.045,0.4154 0.13229,0.5821 0.0873,0.1614 0.20638,0.2884 0.35454,0.3757 0.14817,0.085 0.31221,0.127 0.49213,0.127 0.17991,0 0.34396,-0.042 0.49212,-0.127 0.15081,-0.087 0.27252,-0.2143 0.35984,-0.3757 0.0873,-0.1667 0.13229,-0.3572 0.13229,-0.5768 z m 1.12183,0 c 0,-0.299 0.0582,-0.5609 0.17992,-0.7832 0.11906,-0.2249 0.28575,-0.3995 0.49741,-0.5238 0.21432,-0.1244 0.46038,-0.1852 0.73555,-0.1852 0.35454,0 0.64822,0.087 0.87841,0.2592 0.23284,0.172 0.38629,0.4128 0.46038,0.7197 h -0.51859 c -0.0503,-0.1773 -0.14816,-0.3148 -0.29104,-0.418 -0.14287,-0.1032 -0.3175,-0.1535 -0.52916,-0.1535 -0.27517,0 -0.49742,0.095 -0.66675,0.2858 -0.16934,0.1878 -0.254,0.4524 -0.254,0.799 0,0.3493 0.0847,0.6191 0.254,0.8096 0.16933,0.1905 0.39158,0.2858 0.66675,0.2858 0.21166,0 0.38629,-0.05 0.52916,-0.1482 0.14023,-0.098 0.23813,-0.2408 0.29104,-0.4233 h 0.51859 c -0.0794,0.2963 -0.23284,0.5344 -0.46567,0.7144 -0.23283,0.1772 -0.52387,0.2645 -0.87312,0.2645 -0.27517,0 -0.52123,-0.061 -0.73555,-0.1852 -0.21166,-0.1243 -0.37835,-0.2989 -0.49741,-0.5238 -0.12171,-0.2249 -0.17992,-0.4895 -0.17992,-0.7938 z m 3.97933,-1.0477 v 1.7092 c 0,0.1402 0.0318,0.2407 0.09,0.3016 0.0609,0.056 0.16402,0.085 0.31221,0.085 h 0.35454 v 0.4074 h -0.43394 c -0.26723,0 -0.46828,-0.061 -0.60325,-0.1852 -0.13229,-0.1243 -0.20106,-0.3254 -0.20106,-0.6085 v -1.7092 h -0.37573 v -0.3969 h 0.37573 v -0.7303 h 0.48152 v 0.7303 h 0.75673 v 0.3969 z m 3.98727,-0.889 c 0.39159,0 0.7329,0.074 1.0213,0.2222 0.28839,0.1482 0.51064,0.3572 0.66675,0.6244 0.1561,0.2646 0.23283,0.5715 0.23283,0.9208 0,0.2778 -0.045,0.5477 -0.13758,0.8043 -0.0926,0.254 -0.2249,0.4604 -0.40217,0.6191 -0.17198,0.1588 -0.37571,0.2382 -0.60854,0.2382 -0.17727,0 -0.31221,-0.045 -0.40746,-0.1323 -0.0953,-0.087 -0.15081,-0.2091 -0.16404,-0.3599 -0.10848,0.1508 -0.24871,0.2726 -0.41804,0.3599 -0.16669,0.087 -0.34132,0.1323 -0.52917,0.1323 -0.26723,0 -0.4789,-0.082 -0.635,-0.2435 -0.15081,-0.1666 -0.22754,-0.3889 -0.22754,-0.6667 0,-0.2646 0.0556,-0.5107 0.16404,-0.7408 0.11377,-0.2302 0.26723,-0.4128 0.46567,-0.5504 0.19843,-0.1402 0.42068,-0.2116 0.67204,-0.2116 0.33602,0 0.56091,0.127 0.67733,0.381 l 0.0582,-0.3281 h 0.41804 l -0.26461,1.5293 c -0.0106,0.066 -0.0159,0.1296 -0.0159,0.1852 0,0.2116 0.0926,0.3175 0.28048,0.3175 0.14023,0 0.26191,-0.066 0.3651,-0.2011 0.10586,-0.1349 0.18521,-0.3016 0.23815,-0.5027 0.0529,-0.2037 0.0794,-0.4048 0.0794,-0.6033 0,-0.463 -0.14025,-0.8202 -0.41804,-1.0742 -0.27519,-0.254 -0.6641,-0.381 -1.16946,-0.381 -0.42071,0 -0.79904,0.1032 -1.13773,0.3069 -0.33602,0.2011 -0.59793,0.4789 -0.78843,0.8308 -0.1905,0.3519 -0.28575,0.7435 -0.28575,1.1695 -0.003,0.4657 0.13491,0.8228 0.41804,1.0742 0.2831,0.254 0.67466,0.381 1.17475,0.381 0.33073,0 0.62439,-0.061 0.87839,-0.1799 l 0.0635,0.3281 c -0.31483,0.1296 -0.65879,0.1958 -1.03714,0.1958 -0.37838,0 -0.71173,-0.072 -1.00015,-0.217 -0.28575,-0.1402 -0.508,-0.3466 -0.66675,-0.6138 -0.15608,-0.2646 -0.23281,-0.5742 -0.23281,-0.9261 0,-0.4974 0.11377,-0.9498 0.34396,-1.3599 0.23016,-0.4128 0.54766,-0.7382 0.9525,-0.9737 0.4101,-0.2355 0.86783,-0.3545 1.37583,-0.3545 z m -0.60325,3.0532 c 0.15875,0 0.30428,-0.045 0.43921,-0.1375 0.13494,-0.095 0.24077,-0.2223 0.3175,-0.381 0.0767,-0.1614 0.11642,-0.3387 0.11642,-0.5292 0,-0.1826 -0.0503,-0.3307 -0.15346,-0.4445 -0.0979,-0.1164 -0.24077,-0.1746 -0.42333,-0.1746 -0.16934,0 -0.32015,0.05 -0.44979,0.1534 -0.127,0.098 -0.2249,0.2302 -0.29634,0.3969 -0.0714,0.1614 -0.10583,0.3307 -0.10583,0.508 0,0.1879 0.0476,0.336 0.14287,0.4445 0.0953,0.1085 0.23284,0.164 0.41275,0.164 z m 6.80244,-2.614 c 0.22754,0 0.42863,0.048 0.60325,0.1428 0.17727,0.093 0.3175,0.2302 0.41804,0.4181 0.10319,0.1878 0.15346,0.4154 0.15346,0.6826 v 1.7092 h -0.47625 v -1.6404 c 0,-0.2884 -0.0714,-0.5106 -0.21696,-0.6615 -0.14023,-0.1561 -0.33337,-0.2328 -0.57679,-0.2328 -0.24871,0 -0.44979,0.082 -0.59796,0.2434 -0.14816,0.1588 -0.22225,0.389 -0.22225,0.6932 v 1.5981 h -0.47625 v -1.6404 c 0,-0.2884 -0.0714,-0.5106 -0.21695,-0.6615 -0.14023,-0.1561 -0.33338,-0.2328 -0.5768,-0.2328 -0.2487,0 -0.44979,0.082 -0.59795,0.2434 -0.14817,0.1588 -0.22225,0.389 -0.22225,0.6932 v 1.5981 h -0.48155 v -2.8998 h 0.48155 v 0.418 c 0.0953,-0.1508 0.22225,-0.2672 0.381,-0.3492 0.16404,-0.082 0.34131,-0.1217 0.53445,-0.1217 0.24342,0 0.46038,0.056 0.64559,0.164 0.18785,0.1085 0.32808,0.2699 0.41804,0.4815 0.082,-0.2037 0.21696,-0.3624 0.40217,-0.4762 0.18785,-0.1138 0.39687,-0.1693 0.62441,-0.1693 z m 4.61169,1.3917 c 0,0.093 -0.005,0.1878 -0.0159,0.291 h -2.31775 c 0.0159,0.2858 0.11378,0.5107 0.29105,0.6721 0.17991,0.1587 0.39687,0.2381 0.65087,0.2381 0.20638,0 0.381,-0.048 0.51858,-0.1429 0.14023,-0.098 0.23813,-0.2302 0.29634,-0.3916 h 0.51858 c -0.0794,0.2778 -0.23283,0.5054 -0.46567,0.6827 -0.23283,0.1719 -0.52387,0.2592 -0.86783,0.2592 -0.27517,0 -0.52387,-0.061 -0.74083,-0.1852 -0.21696,-0.1243 -0.38629,-0.2989 -0.508,-0.5238 -0.12436,-0.2302 -0.18521,-0.4948 -0.18521,-0.7938 0,-0.299 0.0582,-0.5636 0.17992,-0.7884 0.11906,-0.2249 0.28575,-0.3996 0.5027,-0.5186 0.21696,-0.1244 0.46832,-0.1852 0.75142,-0.1852 0.27517,0 0.51858,0.061 0.73025,0.1799 0.21167,0.119 0.37306,0.2857 0.48683,0.4974 0.11642,0.209 0.17463,0.4445 0.17463,0.7091 z m -0.49742,-0.1006 c 0,-0.1825 -0.0423,-0.3413 -0.12171,-0.4709 -0.082,-0.135 -0.19314,-0.2355 -0.33337,-0.3017 -0.13758,-0.071 -0.29104,-0.1058 -0.46038,-0.1058 -0.24341,0 -0.45243,0.077 -0.62441,0.2328 -0.16934,0.1562 -0.26723,0.3705 -0.29104,0.6456 z m 0.9525,0.2011 c 0,-0.2963 0.0609,-0.5556 0.17992,-0.7779 0.11906,-0.2249 0.2831,-0.3995 0.49212,-0.5238 0.21167,-0.1244 0.44715,-0.1852 0.70909,-0.1852 0.22489,0 0.43656,0.053 0.62971,0.1587 0.19314,0.1032 0.34131,0.2381 0.4445,0.4075 v -1.5346 h 0.48683 v 3.9158 h -0.48683 v -0.545 c -0.0953,0.172 -0.23548,0.3148 -0.42334,0.4286 -0.18785,0.1085 -0.40481,0.164 -0.65616,0.164 -0.25665,0 -0.49213,-0.063 -0.7038,-0.1905 -0.20902,-0.127 -0.37306,-0.3042 -0.49212,-0.5344 -0.11906,-0.2302 -0.17992,-0.4895 -0.17992,-0.7832 z m 2.45534,0.01 c 0,-0.2196 -0.045,-0.4101 -0.1323,-0.5715 -0.0873,-0.1614 -0.20902,-0.2857 -0.35983,-0.3704 -0.14817,-0.087 -0.31221,-0.1323 -0.49212,-0.1323 -0.17992,0 -0.34396,0.042 -0.49213,0.127 -0.14817,0.085 -0.26723,0.209 -0.35454,0.3704 -0.0873,0.1614 -0.13229,0.3519 -0.13229,0.5715 0,0.2223 0.045,0.4154 0.13229,0.5821 0.0873,0.1614 0.20637,0.2884 0.35454,0.3757 0.14817,0.085 0.31221,0.127 0.49213,0.127 0.17991,0 0.34395,-0.042 0.49212,-0.127 0.15081,-0.087 0.27252,-0.2143 0.35983,-0.3757 0.0873,-0.1667 0.1323,-0.3572 0.1323,-0.5768 z m 3.94758,-0.1058 c 0,0.093 -0.005,0.1878 -0.0159,0.291 h -2.31775 c 0.0159,0.2858 0.11378,0.5107 0.29105,0.6721 0.17991,0.1587 0.39687,0.2381 0.65087,0.2381 0.20638,0 0.381,-0.048 0.51858,-0.1429 0.14023,-0.098 0.23813,-0.2302 0.29634,-0.3916 h 0.51858 c -0.0794,0.2778 -0.23283,0.5054 -0.46567,0.6827 -0.23283,0.1719 -0.52387,0.2592 -0.86783,0.2592 -0.27517,0 -0.52387,-0.061 -0.74083,-0.1852 -0.21696,-0.1243 -0.38629,-0.2989 -0.508,-0.5238 -0.12436,-0.2302 -0.18521,-0.4948 -0.18521,-0.7938 0,-0.299 0.0582,-0.5636 0.17992,-0.7884 0.11906,-0.2249 0.28575,-0.3996 0.5027,-0.5186 0.21696,-0.1244 0.46832,-0.1852 0.75142,-0.1852 0.27517,0 0.51858,0.061 0.73025,0.1799 0.21167,0.119 0.37306,0.2857 0.48683,0.4974 0.11642,0.209 0.17463,0.4445 0.17463,0.7091 z m -0.49742,-0.1006 c 0,-0.1825 -0.0423,-0.3413 -0.12171,-0.4709 -0.082,-0.135 -0.19314,-0.2355 -0.33337,-0.3016 -0.13758,-0.072 -0.29104,-0.1059 -0.46038,-0.1059 -0.24341,0 -0.45243,0.077 -0.62441,0.2329 -0.16934,0.1561 -0.26723,0.3704 -0.29104,0.6455 z m 2.64584,1.6616 -0.68792,-1.0795 -0.66146,1.0795 h -0.50271 l 0.93663,-1.4393 -0.93663,-1.4605 h 0.54504 l 0.68792,1.0742 0.65617,-1.0742 h 0.50271 l -0.93134,1.434 0.93663,1.4658 z m 1.1721,0.032 c -0.0926,0 -0.16933,-0.032 -0.23283,-0.095 -0.0635,-0.063 -0.0952,-0.1402 -0.0952,-0.2328 0,-0.093 0.0317,-0.1694 0.0952,-0.2328 0.0635,-0.063 0.14023,-0.095 0.23283,-0.095 0.0873,0 0.1614,0.032 0.22225,0.095 0.0635,0.063 0.0952,0.1402 0.0952,0.2328 0,0.093 -0.0317,0.1693 -0.0952,0.2328 -0.0609,0.063 -0.13494,0.095 -0.22225,0.095 z m 0.77788,-1.487 c 0,-0.299 0.0582,-0.5609 0.17991,-0.7832 0.11906,-0.2249 0.28575,-0.3995 0.49742,-0.5238 0.21431,-0.1244 0.46037,-0.1852 0.73554,-0.1852 0.35454,0 0.64823,0.087 0.87842,0.2593 0.23283,0.1719 0.38629,0.4127 0.46037,0.7196 h -0.51858 c -0.0503,-0.1773 -0.14817,-0.3148 -0.29104,-0.418 -0.14288,-0.1032 -0.3175,-0.1535 -0.52917,-0.1535 -0.27517,0 -0.49742,0.095 -0.66675,0.2858 -0.16933,0.1878 -0.254,0.4524 -0.254,0.799 0,0.3493 0.0847,0.6191 0.254,0.8096 0.16933,0.1905 0.39158,0.2858 0.66675,0.2858 0.21167,0 0.38629,-0.05 0.52917,-0.1482 0.14023,-0.098 0.23812,-0.2408 0.29104,-0.4233 h 0.51858 c -0.0794,0.2963 -0.23283,0.5344 -0.46566,0.7144 -0.23284,0.1772 -0.52388,0.2645 -0.87313,0.2645 -0.27517,0 -0.52123,-0.061 -0.73554,-0.1852 -0.21167,-0.1243 -0.37836,-0.2989 -0.49742,-0.5238 -0.12171,-0.2249 -0.17991,-0.4895 -0.17991,-0.7938 z m 4.65931,1.5028 c -0.27252,0 -0.51859,-0.061 -0.74084,-0.1852 -0.2196,-0.1243 -0.39158,-0.2989 -0.51858,-0.5238 -0.12435,-0.2302 -0.18521,-0.4948 -0.18521,-0.7938 0,-0.2963 0.0635,-0.5583 0.1905,-0.7832 0.12965,-0.2301 0.30692,-0.4048 0.52917,-0.5238 0.22225,-0.1244 0.47096,-0.1852 0.74612,-0.1852 0.27517,0 0.52388,0.061 0.74613,0.1852 0.22225,0.119 0.39687,0.2937 0.52387,0.5186 0.12965,0.2248 0.1958,0.4894 0.1958,0.7884 0,0.299 -0.0688,0.5636 -0.20109,0.7938 -0.13229,0.2249 -0.30956,0.3995 -0.53446,0.5238 -0.22754,0.1244 -0.47625,0.1852 -0.75141,0.1852 z m 0,-0.4233 c 0.17198,0 0.33337,-0.04 0.48683,-0.1217 0.15081,-0.082 0.27252,-0.2037 0.36513,-0.3651 0.0952,-0.1614 0.14287,-0.3599 0.14287,-0.5927 0,-0.2328 -0.0476,-0.4313 -0.13758,-0.5927 -0.0926,-0.1614 -0.21167,-0.2831 -0.35984,-0.3598 -0.14816,-0.082 -0.30956,-0.1217 -0.48154,-0.1217 -0.17727,0 -0.33866,0.04 -0.48683,0.1217 -0.14552,0.077 -0.26194,0.1984 -0.34925,0.3598 -0.09,0.1614 -0.13229,0.3599 -0.13229,0.5927 0,0.2355 0.0423,0.4366 0.127,0.598 0.0873,0.1614 0.20373,0.2831 0.34925,0.3651 0.14287,0.077 0.30162,0.1164 0.47625,0.1164 z m 5.60652,-2.577 c 0.22489,0 0.42598,0.048 0.60325,0.1428 0.17727,0.093 0.31485,0.2302 0.41804,0.4181 0.10319,0.1878 0.15346,0.4154 0.15346,0.6826 v 1.7092 h -0.47625 v -1.6404 c 0,-0.2884 -0.0714,-0.5106 -0.21696,-0.6615 -0.14023,-0.1561 -0.33337,-0.2328 -0.57679,-0.2328 -0.25136,0 -0.44979,0.082 -0.59796,0.2434 -0.14817,0.1588 -0.22225,0.389 -0.22225,0.6932 v 1.5981 h -0.47625 v -1.6404 c 0,-0.2884 -0.0714,-0.5106 -0.21696,-0.6615 -0.14023,-0.1561 -0.33337,-0.2328 -0.57679,-0.2328 -0.25135,0 -0.44979,0.082 -0.59796,0.2434 -0.14816,0.1588 -0.22225,0.389 -0.22225,0.6932 v 1.5981 h -0.48154 v -2.8998 h 0.48154 v 0.418 c 0.0952,-0.1508 0.22225,-0.2672 0.381,-0.3492 0.1614,-0.082 0.34131,-0.1217 0.53446,-0.1217 0.24342,0 0.45773,0.056 0.64558,0.164 0.18786,0.1085 0.32544,0.2699 0.41805,0.4815 0.082,-0.2037 0.21431,-0.3624 0.40216,-0.4762 0.18786,-0.1138 0.39423,-0.1693 0.62442,-0.1693 z"
       fill="#ffffff"
       id="path204" />
    <path
       style="stroke-width:0.264583"
       d="m 43.460051,-181.90897 v 3.6883 h -0.48154 v -1.6722 h -1.87854 v 1.6722 h -0.48154 v -3.6883 h 0.48154 v 1.6193 h 1.87854 v -1.6193 z m 2.08703,3.7359 c -0.27172,0 -0.51858,-0.061 -0.74083,-0.1852 -0.21881,-0.1243 -0.39158,-0.2989 -0.51858,-0.5238 -0.12356,-0.2302 -0.18521,-0.4948 -0.18521,-0.7938 0,-0.2963 0.0635,-0.5583 0.1905,-0.7832 0.13044,-0.2301 0.30692,-0.4048 0.52917,-0.5238 0.22225,-0.1244 0.47095,-0.1852 0.74612,-0.1852 0.27517,0 0.52388,0.061 0.74613,0.1852 0.22225,0.119 0.39687,0.2937 0.52387,0.5186 0.13044,0.2248 0.19579,0.4894 0.19579,0.7884 0,0.299 -0.0672,0.5636 -0.20108,0.7938 -0.1307,0.2249 -0.30877,0.3995 -0.53446,0.5238 -0.22595,0.1244 -0.47625,0.1852 -0.75142,0.1852 z m 0,-0.4233 c 0.17278,0 0.33497,-0.04 0.48684,-0.1217 0.1516,-0.082 0.27331,-0.2037 0.36512,-0.3651 0.0952,-0.1614 0.14288,-0.3599 0.14288,-0.5927 0,-0.2328 -0.046,-0.4313 -0.13759,-0.5927 -0.0918,-0.1614 -0.21166,-0.2831 -0.35983,-0.3598 -0.14817,-0.082 -0.30877,-0.1217 -0.48154,-0.1217 -0.17648,0 -0.33867,0.04 -0.48683,0.1217 -0.14473,0.077 -0.26115,0.1984 -0.34925,0.3598 -0.0884,0.1614 -0.1323,0.3599 -0.1323,0.5927 0,0.2355 0.0423,0.4366 0.127,0.598 0.0881,0.1614 0.20453,0.2831 0.34925,0.3651 0.14447,0.077 0.30322,0.1164 0.47625,0.1164 z m 5.98303,-2.5241 -0.90488,2.8998 h -0.49741 l -0.6985,-2.3019 -0.6985,2.3019 h -0.49742 l -0.91017,-2.8998 h 0.49213 l 0.66675,2.4341 0.71966,-2.4341 h 0.49213 l 0.70379,2.4394 0.65617,-2.4394 z m 2.37014,-0.7885 v 3.6883 h -0.48155 v -3.6883 z m 1.40811,1.1854 v 1.7092 c 0,0.1402 0.0299,0.2407 0.09,0.3016 0.0598,0.056 0.16404,0.085 0.3122,0.085 h 0.35455 v 0.4074 h -0.43392 c -0.26829,0 -0.46937,-0.061 -0.60325,-0.1852 -0.13414,-0.1243 -0.20108,-0.3254 -0.20108,-0.6085 v -1.7092 h -0.37571 v -0.3969 h 0.37571 v -0.7303 h 0.48154 v 0.7303 h 0.75671 v 0.3969 z m 7.38637,-1.1854 -1.06892,3.6883 h -0.53975 l -0.85725,-2.9686 -0.889,2.9686 -0.53445,0.01 -1.03188,-3.6936 h 0.51329 l 0.80434,3.1274 0.889,-3.1274 h 0.53975 l 0.84666,3.1168 0.80963,-3.1168 z m 1.79176,3.7359 c -0.27173,0 -0.51858,-0.061 -0.74083,-0.1852 -0.21881,-0.1243 -0.39159,-0.2989 -0.51859,-0.5238 -0.12356,-0.2302 -0.18521,-0.4948 -0.18521,-0.7938 0,-0.2963 0.0635,-0.5583 0.1905,-0.7832 0.13044,-0.2301 0.30692,-0.4048 0.52917,-0.5238 0.22225,-0.1244 0.47096,-0.1852 0.74613,-0.1852 0.27516,0 0.52387,0.061 0.74612,0.1852 0.22225,0.119 0.39688,0.2937 0.52388,0.5186 0.13044,0.2248 0.19579,0.4894 0.19579,0.7884 0,0.299 -0.0672,0.5636 -0.20109,0.7938 -0.1307,0.2249 -0.30876,0.3995 -0.53445,0.5238 -0.22596,0.1244 -0.47625,0.1852 -0.75142,0.1852 z m 0,-0.4233 c 0.17277,0 0.33496,-0.04 0.48683,-0.1217 0.15161,-0.082 0.27332,-0.2037 0.36513,-0.3651 0.0953,-0.1614 0.14287,-0.3599 0.14287,-0.5927 0,-0.2328 -0.046,-0.4313 -0.13758,-0.5927 -0.0918,-0.1614 -0.21167,-0.2831 -0.35983,-0.3598 -0.14817,-0.082 -0.30877,-0.1217 -0.48155,-0.1217 -0.17647,0 -0.33866,0.04 -0.48683,0.1217 -0.14473,0.077 -0.26114,0.1984 -0.34925,0.3598 -0.0884,0.1614 -0.13229,0.3599 -0.13229,0.5927 0,0.2355 0.0423,0.4366 0.127,0.598 0.0881,0.1614 0.20452,0.2831 0.34925,0.3651 0.14446,0.077 0.30321,0.1164 0.47625,0.1164 z m 2.60165,-2.0532 c 0.0847,-0.1666 0.20452,-0.2936 0.35983,-0.3863 0.15875,-0.093 0.35084,-0.1375 0.57679,-0.1375 v 0.4974 h -0.127 c -0.53975,0 -0.80962,0.2937 -0.80962,0.8784 v 1.5769 h -0.48154 v -2.8998 h 0.48154 z m 3.11176,2.4289 -1.13771,-1.2806 v 1.2806 h -0.48154 v -3.9158 h 0.48154 v 2.3019 l 1.11654,-1.2859 h 0.67205 l -1.36525,1.4446 1.37054,1.4552 z m 2.13069,0.048 c -0.22225,0 -0.42174,-0.037 -0.59796,-0.1111 -0.17647,-0.077 -0.31591,-0.1825 -0.41804,-0.3175 -0.10239,-0.1376 -0.15875,-0.2937 -0.16933,-0.4709 h 0.49741 c 0.014,0.1455 0.081,0.2619 0.20109,0.3545 0.12329,0.093 0.2839,0.1376 0.48154,0.1376 0.18336,0 0.32808,-0.04 0.43392,-0.1217 0.10583,-0.082 0.15875,-0.1826 0.15875,-0.3069 0,-0.127 -0.0566,-0.2196 -0.16934,-0.2805 -0.11297,-0.063 -0.2876,-0.1244 -0.52387,-0.1852 -0.21537,-0.056 -0.39159,-0.1138 -0.52917,-0.1693 -0.13414,-0.061 -0.25056,-0.1456 -0.34925,-0.2593 -0.0952,-0.1164 -0.14287,-0.2673 -0.14287,-0.4551 0,-0.1482 0.0439,-0.2831 0.13229,-0.4075 0.0881,-0.1243 0.21325,-0.2196 0.37571,-0.291 0.16219,-0.074 0.34739,-0.1111 0.55562,-0.1111 0.32094,0 0.58023,0.082 0.77788,0.2434 0.19738,0.1614 0.30321,0.3836 0.3175,0.6667 h -0.48155 c -0.0106,-0.1508 -0.0725,-0.2725 -0.1852,-0.3651 -0.10954,-0.093 -0.25771,-0.1376 -0.4445,-0.1376 -0.17304,0 -0.31062,0.037 -0.41275,0.1111 -0.1024,0.074 -0.15346,0.172 -0.15346,0.2911 0,0.095 0.0299,0.1746 0.09,0.2381 0.0635,0.061 0.14102,0.1085 0.23283,0.1482 0.0952,0.034 0.22569,0.077 0.39158,0.1217 0.20797,0.055 0.3773,0.1138 0.508,0.1693 0.13044,0.053 0.24157,0.135 0.33338,0.2434 0.0953,0.1085 0.14446,0.2514 0.14816,0.4287 0,0.1587 -0.0442,0.3016 -0.13229,0.4286 -0.0884,0.127 -0.21352,0.2275 -0.37571,0.3016 -0.15875,0.071 -0.34237,0.1058 -0.55033,0.1058 z"
       fill="#ffffff"
       id="path206" />
    <path
       style="stroke-width:0.264583"
       d="m 43.084341,-166.54197 c 0,0.3069 -0.10583,0.5636 -0.3175,0.7673 -0.20822,0.2011 -0.52731,0.3016 -0.95779,0.3016 h -0.70908 v 1.5399 h -0.48154 v -3.6883 h 1.19062 c 0.41619,0 0.7321,0.1006 0.94721,0.3016 0.21881,0.2011 0.32808,0.4604 0.32808,0.7779 z m -1.27529,0.6721 c 0.26802,0 0.46567,-0.058 0.59267,-0.1747 0.127,-0.1164 0.1905,-0.2831 0.1905,-0.4974 0,-0.4551 -0.26115,-0.6826 -0.78317,-0.6826 h -0.70908 v 1.3547 z m 4.44553,-0.9631 v 2.8998 h -0.48154 v -0.4286 c -0.0918,0.1482 -0.2204,0.2646 -0.38629,0.3492 -0.16219,0.082 -0.34211,0.1217 -0.53975,0.1217 -0.22569,0 -0.42863,-0.045 -0.60854,-0.1375 -0.17992,-0.095 -0.3228,-0.2355 -0.42863,-0.4234 -0.10239,-0.1878 -0.15346,-0.4154 -0.15346,-0.6826 v -1.6986 h 0.47625 v 1.6351 c 0,0.2858 0.0722,0.5054 0.21696,0.6615 0.14473,0.1508 0.34211,0.2275 0.59267,0.2275 0.25744,0 0.46037,-0.079 0.60854,-0.2381 0.14817,-0.1588 0.22225,-0.389 0.22225,-0.6932 v -1.5928 z m 1.29461,0.4709 c 0.0847,-0.1666 0.20452,-0.2936 0.35983,-0.3863 0.15875,-0.093 0.3511,-0.1375 0.57679,-0.1375 v 0.4974 h -0.127 c -0.53975,0 -0.80962,0.2937 -0.80962,0.8784 v 1.5769 h -0.48154 v -2.8998 h 0.48154 z m 1.97405,0.063 c 0.0952,-0.1666 0.23628,-0.3042 0.42334,-0.4127 0.1905,-0.1138 0.41089,-0.1693 0.66145,-0.1693 0.25744,0 0.49028,0.061 0.6985,0.1852 0.21167,0.1243 0.37757,0.2989 0.49742,0.5238 0.11986,0.2223 0.17992,0.4816 0.17992,0.7779 0,0.2937 -0.0601,0.553 -0.17992,0.7832 -0.11985,0.2302 -0.28575,0.4074 -0.49742,0.5344 -0.20822,0.127 -0.44106,0.1905 -0.6985,0.1905 -0.24685,0 -0.46566,-0.055 -0.65616,-0.164 -0.18706,-0.1138 -0.32994,-0.2514 -0.42863,-0.418 v 1.9102 h -0.48154 v -4.2756 h 0.48154 z m 1.9685,0.9049 c 0,-0.2196 -0.0442,-0.4101 -0.13229,-0.5715 -0.0881,-0.1614 -0.20823,-0.2857 -0.35983,-0.3704 -0.14817,-0.085 -0.31221,-0.127 -0.49213,-0.127 -0.17647,0 -0.34052,0.045 -0.49212,0.1323 -0.14817,0.085 -0.26802,0.209 -0.35984,0.3757 -0.0881,0.1614 -0.13229,0.3519 -0.13229,0.5662 0,0.2196 0.0442,0.4101 0.13229,0.5768 0.0918,0.1614 0.21167,0.2884 0.35984,0.3757 0.1516,0.085 0.31565,0.127 0.49212,0.127 0.17992,0 0.34396,-0.042 0.49213,-0.127 0.1516,-0.087 0.27173,-0.2143 0.35983,-0.3757 0.0881,-0.1667 0.13229,-0.3598 0.13229,-0.5821 z m 2.39078,1.5081 c -0.27173,0 -0.51859,-0.061 -0.74084,-0.1852 -0.21881,-0.1243 -0.39158,-0.2989 -0.51858,-0.5238 -0.12356,-0.2302 -0.18521,-0.4948 -0.18521,-0.7938 0,-0.2963 0.0635,-0.5583 0.1905,-0.7832 0.13044,-0.2301 0.30692,-0.4048 0.52917,-0.5238 0.22225,-0.1244 0.47096,-0.1852 0.74612,-0.1852 0.27517,0 0.52388,0.061 0.74613,0.1852 0.22225,0.119 0.39687,0.2937 0.52387,0.5186 0.13044,0.2248 0.1958,0.4894 0.1958,0.7884 0,0.299 -0.0672,0.5636 -0.20109,0.7938 -0.1307,0.2249 -0.30877,0.3995 -0.53446,0.5238 -0.22595,0.1244 -0.47625,0.1852 -0.75141,0.1852 z m 0,-0.4233 c 0.17277,0 0.33496,-0.04 0.48683,-0.1217 0.15161,-0.082 0.27332,-0.2037 0.36513,-0.3651 0.0952,-0.1614 0.14287,-0.3599 0.14287,-0.5927 0,-0.2328 -0.046,-0.4313 -0.13758,-0.5927 -0.0918,-0.1614 -0.21167,-0.2831 -0.35984,-0.3598 -0.14816,-0.082 -0.30876,-0.1217 -0.48154,-0.1217 -0.17647,0 -0.33866,0.04 -0.48683,0.1217 -0.14473,0.077 -0.26114,0.1984 -0.34925,0.3598 -0.0884,0.1614 -0.13229,0.3599 -0.13229,0.5927 0,0.2355 0.0423,0.4366 0.127,0.598 0.0881,0.1614 0.20452,0.2831 0.34925,0.3651 0.14446,0.077 0.30321,0.1164 0.47625,0.1164 z m 3.14669,0.4233 c -0.22225,0 -0.42175,-0.037 -0.59796,-0.1111 -0.17648,-0.077 -0.31591,-0.1825 -0.41804,-0.3175 -0.1024,-0.1376 -0.15875,-0.2937 -0.16934,-0.4709 h 0.49742 c 0.014,0.1455 0.081,0.2619 0.20108,0.3545 0.1233,0.093 0.2839,0.1376 0.48155,0.1376 0.18335,0 0.32808,-0.04 0.43391,-0.1217 0.10584,-0.082 0.15875,-0.1826 0.15875,-0.3069 0,-0.127 -0.0566,-0.2196 -0.16933,-0.2805 -0.11298,-0.063 -0.2876,-0.1244 -0.52388,-0.1852 -0.21537,-0.056 -0.39158,-0.1138 -0.52916,-0.1693 -0.13415,-0.061 -0.25056,-0.1456 -0.34925,-0.2593 -0.0952,-0.1164 -0.14288,-0.2673 -0.14288,-0.4551 0,-0.1482 0.0439,-0.2831 0.13229,-0.4075 0.0881,-0.1243 0.21326,-0.2196 0.37571,-0.291 0.16219,-0.074 0.3474,-0.1111 0.55563,-0.1111 0.32094,0 0.58023,0.082 0.77787,0.2434 0.19738,0.1614 0.30322,0.3836 0.3175,0.6667 h -0.48154 c -0.0106,-0.1508 -0.0725,-0.2725 -0.18521,-0.3651 -0.10953,-0.093 -0.2577,-0.1376 -0.4445,-0.1376 -0.17303,0 -0.31062,0.037 -0.41275,0.1111 -0.10239,0.074 -0.15346,0.172 -0.15346,0.2911 0,0.095 0.0299,0.1746 0.09,0.2381 0.0635,0.061 0.14103,0.1085 0.23284,0.1482 0.0952,0.034 0.22569,0.077 0.39158,0.1217 0.20796,0.055 0.3773,0.1138 0.508,0.1693 0.13044,0.053 0.24156,0.135 0.33337,0.2434 0.0953,0.1085 0.14447,0.2514 0.14817,0.4287 0,0.1587 -0.0442,0.3016 -0.13229,0.4286 -0.0884,0.127 -0.21352,0.2275 -0.37571,0.3016 -0.15875,0.071 -0.34237,0.1058 -0.55033,0.1058 z m 4.38388,-1.6086 c 0,0.093 -0.005,0.1878 -0.0159,0.291 h -2.31775 c 0.0175,0.2858 0.11457,0.5107 0.29105,0.6721 0.17991,0.1587 0.39687,0.2381 0.65087,0.2381 0.20796,0 0.381,-0.048 0.51858,-0.1429 0.14103,-0.098 0.23972,-0.2302 0.29634,-0.3916 h 0.51858 c -0.0778,0.2778 -0.23283,0.5054 -0.46567,0.6826 -0.23283,0.172 -0.52228,0.2593 -0.86783,0.2593 -0.27517,0 -0.52229,-0.061 -0.74083,-0.1852 -0.21537,-0.1243 -0.38471,-0.2989 -0.508,-0.5238 -0.12356,-0.2302 -0.18521,-0.4948 -0.18521,-0.7938 0,-0.299 0.0598,-0.5636 0.17992,-0.7884 0.11985,-0.2249 0.28733,-0.3996 0.5027,-0.5186 0.21855,-0.1244 0.46911,-0.1852 0.75142,-0.1852 0.27517,0 0.51858,0.061 0.73025,0.1799 0.21167,0.119 0.37386,0.2857 0.48683,0.4974 0.11642,0.209 0.17463,0.4445 0.17463,0.7091 z m -0.49742,-0.1006 c 0,-0.1825 -0.0407,-0.3413 -0.12171,-0.4709 -0.0812,-0.135 -0.19235,-0.2355 -0.33337,-0.3017 -0.13758,-0.071 -0.29104,-0.1058 -0.46038,-0.1058 -0.24341,0 -0.45164,0.077 -0.62441,0.2328 -0.16934,0.1562 -0.26644,0.3705 -0.29104,0.6456 z"
       fill="#ffffff"
       id="path208" />
    <path
       style="stroke-width:0.264583"
       d="m 41.099971,-153.33397 v 3.6883 h -0.48154 v -3.6883 z m 2.23361,0.7356 c 0.35269,0 0.63844,0.1084 0.85725,0.3228 0.21881,0.2116 0.32808,0.5185 0.32808,0.9207 v 1.7092 h -0.47625 v -1.6404 c 0,-0.2884 -0.0722,-0.5106 -0.21695,-0.6615 -0.14473,-0.1561 -0.34211,-0.2328 -0.59267,-0.2328 -0.254,0 -0.45694,0.079 -0.60854,0.2381 -0.14817,0.1588 -0.22225,0.389 -0.22225,0.6932 v 1.6034 h -0.48154 v -2.8998 h 0.48154 v 0.4127 c 0.0952,-0.1481 0.2241,-0.2619 0.38629,-0.3439 0.16589,-0.082 0.3474,-0.1217 0.54504,-0.1217 z m 3.05144,2.5082 0.89958,-2.4553 h 0.5133 l -1.13771,2.8998 h -0.56092 l -1.13771,-2.8998 h 0.51859 z m 4.53258,-1.1165 c 0,0.093 -0.005,0.1878 -0.0159,0.291 h -2.31775 c 0.0175,0.2858 0.11457,0.5107 0.29104,0.6721 0.17992,0.1587 0.39688,0.2381 0.65088,0.2381 0.20796,0 0.381,-0.048 0.51858,-0.1429 0.14103,-0.098 0.23971,-0.2302 0.29634,-0.3916 h 0.51858 c -0.0778,0.2778 -0.23283,0.5054 -0.46567,0.6826 -0.23283,0.172 -0.52229,0.2593 -0.86783,0.2593 -0.27517,0 -0.52229,-0.061 -0.74083,-0.1852 -0.21538,-0.1243 -0.38471,-0.2989 -0.508,-0.5238 -0.12356,-0.2302 -0.18521,-0.4948 -0.18521,-0.7938 0,-0.299 0.0598,-0.5636 0.17991,-0.7885 0.11986,-0.2248 0.28734,-0.3995 0.50271,-0.5185 0.21855,-0.1244 0.46911,-0.1852 0.75142,-0.1852 0.27517,0 0.51858,0.061 0.73025,0.1799 0.21167,0.119 0.37386,0.2857 0.48683,0.4974 0.11642,0.209 0.17463,0.4445 0.17463,0.7091 z m -0.49742,-0.1006 c 0,-0.1825 -0.0408,-0.3413 -0.12171,-0.4709 -0.0812,-0.135 -0.19235,-0.2355 -0.33337,-0.3017 -0.13759,-0.071 -0.29104,-0.1058 -0.46038,-0.1058 -0.24341,0 -0.45164,0.077 -0.62441,0.2328 -0.16934,0.1562 -0.26644,0.3705 -0.29105,0.6456 z m 2.15953,1.7092 c -0.22225,0 -0.42148,-0.037 -0.59796,-0.1111 -0.17648,-0.077 -0.31565,-0.1825 -0.41804,-0.3175 -0.10239,-0.1376 -0.15875,-0.2937 -0.16933,-0.4709 h 0.49741 c 0.014,0.1455 0.0812,0.2619 0.20109,0.3545 0.12356,0.093 0.28389,0.1376 0.48154,0.1376 0.18335,0 0.32808,-0.04 0.43391,-0.1217 0.10584,-0.082 0.15875,-0.1826 0.15875,-0.3069 0,-0.127 -0.0563,-0.2196 -0.16933,-0.2805 -0.11298,-0.063 -0.2876,-0.1244 -0.52387,-0.1852 -0.21511,-0.056 -0.39159,-0.1138 -0.52917,-0.1693 -0.13414,-0.061 -0.25056,-0.1456 -0.34925,-0.2593 -0.0952,-0.1165 -0.14288,-0.2673 -0.14288,-0.4551 0,-0.1482 0.0442,-0.2831 0.1323,-0.4075 0.0881,-0.1243 0.21352,-0.2196 0.3757,-0.291 0.16219,-0.074 0.3474,-0.1111 0.55563,-0.1111 0.32094,0 0.58023,0.082 0.77787,0.2434 0.19765,0.1614 0.30348,0.3836 0.3175,0.6667 h -0.48154 c -0.0106,-0.1508 -0.0722,-0.2725 -0.18521,-0.3651 -0.10927,-0.093 -0.25743,-0.1376 -0.4445,-0.1376 -0.17277,0 -0.31035,0.037 -0.41275,0.1111 -0.10239,0.074 -0.15345,0.172 -0.15345,0.2911 0,0.095 0.0299,0.1746 0.0899,0.2381 0.0635,0.061 0.14103,0.1085 0.23284,0.1482 0.0952,0.034 0.22569,0.077 0.39158,0.1217 0.20823,0.055 0.37756,0.1138 0.508,0.1693 0.13044,0.053 0.24157,0.135 0.33338,0.2434 0.0952,0.1085 0.14472,0.2514 0.14816,0.4287 0,0.1587 -0.0442,0.3016 -0.13229,0.4286 -0.0881,0.127 -0.21352,0.2275 -0.37571,0.3016 -0.15875,0.071 -0.3421,0.1058 -0.55033,0.1058 z m 2.32542,-2.5505 v 1.7092 c 0,0.1402 0.0302,0.2407 0.09,0.3016 0.0601,0.056 0.16404,0.085 0.31221,0.085 h 0.35454 v 0.4074 h -0.43392 c -0.26802,0 -0.4691,-0.061 -0.60325,-0.1852 -0.13387,-0.1243 -0.20108,-0.3254 -0.20108,-0.6085 v -1.7092 h -0.37571 v -0.3969 h 0.37571 v -0.7303 h 0.48154 v 0.7303 h 0.75671 v 0.3969 z m 2.60509,2.5505 c -0.27173,0 -0.51858,-0.061 -0.74083,-0.1852 -0.21881,-0.1243 -0.39159,-0.2989 -0.51859,-0.5238 -0.12356,-0.2302 -0.1852,-0.4948 -0.1852,-0.7938 0,-0.2963 0.0635,-0.5583 0.1905,-0.7832 0.13043,-0.2301 0.30691,-0.4048 0.52916,-0.5238 0.22225,-0.1244 0.47096,-0.1852 0.74613,-0.1852 0.27516,0 0.52387,0.061 0.74612,0.1852 0.22225,0.119 0.39688,0.2937 0.52388,0.5185 0.13044,0.2249 0.19579,0.4895 0.19579,0.7885 0,0.299 -0.0672,0.5636 -0.20108,0.7938 -0.13071,0.2249 -0.30877,0.3995 -0.53446,0.5238 -0.22596,0.1244 -0.47625,0.1852 -0.75142,0.1852 z m 0,-0.4233 c 0.17277,0 0.33496,-0.04 0.48683,-0.1217 0.15161,-0.082 0.27332,-0.2037 0.36513,-0.3651 0.0953,-0.1614 0.14287,-0.3599 0.14287,-0.5927 0,-0.2328 -0.046,-0.4313 -0.13758,-0.5927 -0.0918,-0.1614 -0.21167,-0.2831 -0.35983,-0.3598 -0.14817,-0.082 -0.30877,-0.1217 -0.48154,-0.1217 -0.17648,0 -0.33867,0.04 -0.48684,0.1217 -0.14473,0.077 -0.26114,0.1984 -0.34925,0.3598 -0.0884,0.1614 -0.13229,0.3599 -0.13229,0.5927 0,0.2355 0.0423,0.4366 0.127,0.598 0.0881,0.1614 0.20452,0.2831 0.34925,0.3651 0.14446,0.077 0.30321,0.1164 0.47625,0.1164 z m 2.60138,-2.0532 c 0.0847,-0.1666 0.20479,-0.2936 0.35984,-0.3863 0.15875,-0.093 0.3511,-0.1375 0.57679,-0.1375 v 0.4974 h -0.127 c -0.53975,0 -0.80963,0.2937 -0.80963,0.8784 v 1.5769 h -0.48154 v -2.8998 h 0.48154 z m 2.5191,2.4765 c -0.22225,0 -0.42148,-0.037 -0.59796,-0.1111 -0.17621,-0.077 -0.31564,-0.1825 -0.41804,-0.3175 -0.10213,-0.1376 -0.15875,-0.2937 -0.16933,-0.4709 h 0.49741 c 0.0143,0.1455 0.0812,0.2619 0.20109,0.3545 0.12356,0.093 0.28416,0.1376 0.48154,0.1376 0.18362,0 0.32808,-0.04 0.43392,-0.1217 0.10583,-0.082 0.15875,-0.1826 0.15875,-0.3069 0,-0.127 -0.0564,-0.2196 -0.16934,-0.2805 -0.11271,-0.063 -0.28733,-0.1244 -0.52387,-0.1852 -0.21511,-0.056 -0.39159,-0.1138 -0.52917,-0.1693 -0.13388,-0.061 -0.25029,-0.1456 -0.34925,-0.2593 -0.0953,-0.1165 -0.14287,-0.2673 -0.14287,-0.4551 0,-0.1482 0.0442,-0.2831 0.13229,-0.4075 0.0884,-0.1243 0.21352,-0.2196 0.37571,-0.291 0.16245,-0.074 0.34766,-0.1111 0.55562,-0.1111 0.32121,0 0.5805,0.082 0.77788,0.2434 0.19764,0.1614 0.30347,0.3836 0.3175,0.6667 h -0.48155 c -0.0106,-0.1508 -0.0722,-0.2725 -0.1852,-0.3651 -0.10928,-0.093 -0.25744,-0.1376 -0.4445,-0.1376 -0.17278,0 -0.31036,0.037 -0.41275,0.1111 -0.10213,0.074 -0.15346,0.172 -0.15346,0.2911 0,0.095 0.0302,0.1746 0.09,0.2381 0.0635,0.061 0.14128,0.1085 0.23283,0.1482 0.0953,0.034 0.22595,0.077 0.39158,0.1217 0.20823,0.055 0.37756,0.1138 0.508,0.1693 0.13071,0.053 0.24183,0.135 0.33338,0.2434 0.0952,0.1085 0.14473,0.2514 0.14816,0.4287 0,0.1587 -0.0439,0.3016 -0.13229,0.4286 -0.0881,0.127 -0.21325,0.2275 -0.37571,0.3016 -0.15875,0.071 -0.3421,0.1058 -0.55033,0.1058 z"
       fill="#ffffff"
       id="path210" />
    <path
       style="stroke-width:0.264583"
       d="m 42.560471,-135.35817 -0.87842,-1.5081 h -0.58208 v 1.5081 h -0.48154 v -3.6883 h 1.19062 c 0.27861,0 0.51329,0.048 0.70379,0.1429 0.19394,0.095 0.33867,0.2249 0.43392,0.3863 0.0952,0.1614 0.14287,0.3466 0.14287,0.5556 0,0.254 -0.0741,0.4789 -0.22225,0.6721 -0.14472,0.1931 -0.36327,0.3228 -0.65616,0.3863 l 0.92604,1.5451 z m -1.4605,-1.8944 h 0.70908 c 0.26115,0 0.45694,-0.063 0.58738,-0.1905 0.13044,-0.1296 0.19579,-0.3043 0.19579,-0.5186 0,-0.2196 -0.0653,-0.3889 -0.19579,-0.508 -0.127,-0.119 -0.3228,-0.1799 -0.58738,-0.1799 h -0.70908 z m 5.38374,0.3334 c 0,0.093 -0.005,0.1878 -0.0159,0.291 h -2.31775 c 0.0177,0.2858 0.11457,0.5107 0.29105,0.6721 0.17991,0.1587 0.39687,0.2381 0.65087,0.2381 0.20823,0 0.381,-0.048 0.51858,-0.1429 0.14103,-0.098 0.23998,-0.2302 0.29634,-0.3916 h 0.51858 c -0.0775,0.2778 -0.23283,0.5054 -0.46567,0.6826 -0.23283,0.172 -0.52202,0.2593 -0.86783,0.2593 -0.27517,0 -0.52202,-0.061 -0.74083,-0.1852 -0.21511,-0.1243 -0.38444,-0.2989 -0.508,-0.5238 -0.12356,-0.2302 -0.18521,-0.4948 -0.18521,-0.7938 0,-0.299 0.0601,-0.5636 0.17992,-0.7884 0.11985,-0.2249 0.2876,-0.3996 0.5027,-0.5186 0.21882,-0.1244 0.46911,-0.1852 0.75142,-0.1852 0.27517,0 0.51858,0.061 0.73025,0.1799 0.21167,0.119 0.37386,0.2857 0.48683,0.4974 0.11642,0.209 0.17463,0.4445 0.17463,0.7091 z m -0.49742,-0.1006 c 0,-0.1825 -0.0405,-0.3413 -0.12171,-0.4709 -0.0812,-0.135 -0.19235,-0.2355 -0.33337,-0.3017 -0.13758,-0.071 -0.29104,-0.1058 -0.46038,-0.1058 -0.24341,0 -0.45164,0.077 -0.62441,0.2329 -0.16934,0.1561 -0.26644,0.3704 -0.29104,0.6455 z m 2.21245,1.2171 0.89958,-2.4553 h 0.51329 l -1.1377,2.8998 h -0.56092 l -1.13771,-2.8998 h 0.51858 z m 2.13545,-2.9263 c -0.0915,0 -0.16933,-0.032 -0.23283,-0.095 -0.0635,-0.063 -0.0952,-0.1403 -0.0952,-0.2329 0,-0.093 0.0317,-0.1693 0.0952,-0.2328 0.0635,-0.063 0.14129,-0.095 0.23283,-0.095 0.0884,0 0.16246,0.032 0.22225,0.095 0.0635,0.063 0.0952,0.1402 0.0952,0.2328 0,0.093 -0.0317,0.1694 -0.0952,0.2329 -0.0598,0.063 -0.13388,0.095 -0.22225,0.095 z m 0.23283,0.471 v 2.8998 h -0.48154 v -2.8998 z m 3.46658,1.3388 c 0,0.093 -0.005,0.1878 -0.0159,0.291 h -2.31775 c 0.0177,0.2858 0.11456,0.5107 0.29104,0.6721 0.17992,0.1587 0.39688,0.2381 0.65088,0.2381 0.20822,0 0.381,-0.048 0.51858,-0.1429 0.14102,-0.098 0.23998,-0.2302 0.29633,-0.3916 h 0.51859 c -0.0775,0.2778 -0.23284,0.5054 -0.46567,0.6826 -0.23283,0.172 -0.52202,0.2593 -0.86783,0.2593 -0.27517,0 -0.52203,-0.061 -0.74084,-0.1852 -0.2151,-0.1243 -0.38444,-0.2989 -0.508,-0.5238 -0.12356,-0.2302 -0.1852,-0.4948 -0.1852,-0.7938 0,-0.299 0.0601,-0.5636 0.17991,-0.7884 0.11986,-0.2249 0.2876,-0.3996 0.50271,-0.5186 0.21881,-0.1244 0.46911,-0.1852 0.75142,-0.1852 0.27516,0 0.51858,0.061 0.73025,0.1799 0.21166,0.119 0.37385,0.2857 0.48683,0.4974 0.11642,0.209 0.17463,0.4445 0.17463,0.7091 z m -0.49742,-0.1006 c 0,-0.1825 -0.0405,-0.3413 -0.12171,-0.4709 -0.0812,-0.135 -0.19235,-0.2355 -0.33337,-0.3017 -0.13759,-0.071 -0.29105,-0.1058 -0.46038,-0.1058 -0.24342,0 -0.45164,0.077 -0.62442,0.2329 -0.16933,0.1561 -0.26643,0.3704 -0.29104,0.6455 z m 4.99586,-1.2382 -0.90487,2.8998 h -0.49742 l -0.6985,-2.3019 -0.6985,2.3019 h -0.49742 l -0.91016,-2.8998 h 0.49212 l 0.66675,2.4341 0.71967,-2.4341 h 0.49212 l 0.70379,2.4394 0.65617,-2.4394 z m 1.50469,2.9474 c -0.22225,0 -0.42175,-0.037 -0.59796,-0.1111 -0.17648,-0.077 -0.31591,-0.1825 -0.41804,-0.3175 -0.1024,-0.1376 -0.15875,-0.2937 -0.16934,-0.4709 h 0.49742 c 0.014,0.1455 0.081,0.2619 0.20108,0.3545 0.1233,0.093 0.2839,0.1376 0.48154,0.1376 0.18336,0 0.32809,-0.04 0.43392,-0.1217 0.10583,-0.082 0.15875,-0.1826 0.15875,-0.3069 0,-0.127 -0.0566,-0.2196 -0.16933,-0.2805 -0.11298,-0.063 -0.2876,-0.1244 -0.52388,-0.1852 -0.21537,-0.056 -0.39158,-0.1138 -0.52916,-0.1693 -0.13415,-0.061 -0.25056,-0.1456 -0.34925,-0.2593 -0.0952,-0.1164 -0.14288,-0.2673 -0.14288,-0.4551 0,-0.1482 0.0439,-0.2831 0.13229,-0.4075 0.0881,-0.1243 0.21326,-0.2196 0.37571,-0.291 0.16219,-0.074 0.3474,-0.1111 0.55563,-0.1111 0.32094,0 0.58023,0.082 0.77787,0.2434 0.19738,0.1614 0.30321,0.3836 0.3175,0.6667 h -0.48154 c -0.0106,-0.1508 -0.0725,-0.2725 -0.18521,-0.3651 -0.10954,-0.093 -0.2577,-0.1376 -0.4445,-0.1376 -0.17304,0 -0.31062,0.037 -0.41275,0.1111 -0.10239,0.074 -0.15346,0.172 -0.15346,0.2911 0,0.095 0.0299,0.1746 0.09,0.2381 0.0635,0.061 0.14102,0.1085 0.23283,0.1482 0.0952,0.034 0.22569,0.077 0.39159,0.1217 0.20796,0.056 0.37729,0.1138 0.508,0.1693 0.13044,0.053 0.24156,0.135 0.33337,0.2434 0.0953,0.1085 0.14447,0.2514 0.14817,0.4287 0,0.1587 -0.0442,0.3016 -0.13229,0.4286 -0.0884,0.127 -0.21352,0.2275 -0.37571,0.3016 -0.15875,0.071 -0.34237,0.1058 -0.55033,0.1058 z"
       fill="#ffffff"
       id="path212" />
    <path
       style="stroke-width:0.264583"
       d="m -135.72108,-194.34437 -1.06891,3.6883 h -0.53975 l -0.85725,-2.9686 -0.889,2.9686 -0.53446,0.01 -1.03188,-3.6936 h 0.5133 l 0.80433,3.1274 0.889,-3.1274 h 0.53975 l 0.84667,3.1168 0.80962,-3.1168 z m 1.96639,0.7355 c 0.21854,0 0.41619,0.048 0.59266,0.1429 0.17622,0.093 0.3138,0.2302 0.41275,0.4181 0.10213,0.1878 0.15346,0.4154 0.15346,0.6826 v 1.7092 h -0.47625 v -1.6404 c 0,-0.2884 -0.0725,-0.5107 -0.21696,-0.6615 -0.14472,-0.1561 -0.34237,-0.2328 -0.59266,-0.2328 -0.254,0 -0.45694,0.079 -0.60855,0.2381 -0.14816,0.1588 -0.22225,0.389 -0.22225,0.6932 v 1.6034 h -0.48154 v -3.9158 h 0.48154 v 1.4287 c 0.0952,-0.1482 0.2257,-0.2619 0.39159,-0.3439 0.16933,-0.082 0.35798,-0.1218 0.56621,-0.1218 z m 1.76556,1.4923 c 0,-0.2963 0.0598,-0.5556 0.17992,-0.7779 0.11985,-0.2249 0.2839,-0.3995 0.49212,-0.5238 0.21167,-0.1244 0.44609,-0.1853 0.7038,-0.1853 0.254,0 0.47439,0.056 0.66145,0.1641 0.1868,0.1085 0.32623,0.246 0.41805,0.4127 v -0.5291 h 0.48683 v 2.8998 h -0.48683 v -0.5398 c -0.0952,0.1694 -0.23813,0.3096 -0.42863,0.4234 -0.18706,0.1085 -0.40587,0.164 -0.65617,0.164 -0.2577,0 -0.49054,-0.063 -0.6985,-0.1905 -0.20822,-0.127 -0.37227,-0.3042 -0.49212,-0.5344 -0.12012,-0.2302 -0.17992,-0.4895 -0.17992,-0.7832 z m 2.45534,0.01 c 0,-0.2196 -0.0442,-0.4101 -0.1323,-0.5715 -0.0884,-0.1614 -0.20822,-0.2858 -0.35983,-0.3704 -0.14817,-0.087 -0.31221,-0.1323 -0.49212,-0.1323 -0.17992,0 -0.34396,0.042 -0.49213,0.127 -0.14817,0.085 -0.26644,0.209 -0.35454,0.3704 -0.0884,0.1614 -0.13229,0.3519 -0.13229,0.5715 0,0.2223 0.0439,0.4154 0.13229,0.5821 0.0881,0.1614 0.20637,0.2884 0.35454,0.3757 0.14817,0.085 0.31221,0.127 0.49213,0.127 0.17991,0 0.34395,-0.042 0.49212,-0.127 0.15161,-0.087 0.27146,-0.2143 0.35983,-0.3757 0.0881,-0.1667 0.1323,-0.3572 0.1323,-0.5768 z m 1.8878,-1.0478 v 1.7093 c 0,0.1402 0.0302,0.2407 0.09,0.3016 0.0601,0.055 0.16404,0.085 0.31221,0.085 h 0.35454 v 0.4075 h -0.43392 c -0.26802,0 -0.46911,-0.061 -0.60325,-0.1852 -0.13388,-0.1244 -0.20108,-0.3254 -0.20108,-0.6085 v -1.7093 h -0.37571 v -0.3968 h 0.3757 v -0.7303 h 0.48155 v 0.7303 h 0.75671 v 0.3968 z m 2.57122,1.0425 c 0,-0.2963 0.0598,-0.5556 0.17991,-0.7779 0.11986,-0.2249 0.2839,-0.3995 0.49213,-0.5238 0.21167,-0.1244 0.44609,-0.1853 0.70379,-0.1853 0.254,0 0.4744,0.056 0.66146,0.1641 0.1868,0.1085 0.32623,0.246 0.41804,0.4127 v -0.5291 h 0.48683 v 2.8998 h -0.48683 v -0.5398 c -0.0953,0.1694 -0.23812,0.3096 -0.42862,0.4234 -0.18707,0.1085 -0.40587,0.164 -0.65617,0.164 -0.2577,0 -0.49054,-0.063 -0.6985,-0.1905 -0.20823,-0.127 -0.37227,-0.3042 -0.49213,-0.5344 -0.12012,-0.2302 -0.17991,-0.4895 -0.17991,-0.7832 z m 2.45533,0.01 c 0,-0.2196 -0.0442,-0.4101 -0.13229,-0.5715 -0.0884,-0.1614 -0.20823,-0.2858 -0.35983,-0.3704 -0.14817,-0.087 -0.31221,-0.1323 -0.49213,-0.1323 -0.17992,0 -0.34396,0.042 -0.49212,0.127 -0.14817,0.085 -0.26644,0.209 -0.35455,0.3704 -0.0884,0.1614 -0.13229,0.3519 -0.13229,0.5715 0,0.2223 0.0439,0.4154 0.13229,0.5821 0.0881,0.1614 0.20638,0.2884 0.35455,0.3757 0.14816,0.085 0.3122,0.127 0.49212,0.127 0.17992,0 0.34396,-0.042 0.49213,-0.127 0.1516,-0.087 0.27146,-0.2143 0.35983,-0.3757 0.0881,-0.1667 0.13229,-0.3572 0.13229,-0.5768 z m 1.78197,-0.9737 c 0.0847,-0.1667 0.20452,-0.2937 0.35983,-0.3863 0.15875,-0.093 0.35111,-0.1376 0.5768,-0.1376 v 0.4975 h -0.127 c -0.53975,0 -0.80963,0.2937 -0.80963,0.8784 v 1.5769 h -0.48154 v -2.8998 h 0.48154 z m 4.13835,0.8679 c 0,0.093 -0.005,0.1878 -0.0159,0.291 h -2.31775 c 0.0177,0.2857 0.11456,0.5106 0.29104,0.672 0.17992,0.1588 0.39688,0.2382 0.65088,0.2382 0.20822,0 0.381,-0.048 0.51858,-0.1429 0.14102,-0.098 0.23998,-0.2302 0.29633,-0.3916 h 0.51859 c -0.0775,0.2778 -0.23284,0.5054 -0.46567,0.6826 -0.23283,0.172 -0.52202,0.2593 -0.86783,0.2593 -0.27517,0 -0.52203,-0.061 -0.74084,-0.1852 -0.2151,-0.1243 -0.38444,-0.299 -0.508,-0.5239 -0.12356,-0.2301 -0.18521,-0.4947 -0.18521,-0.7937 0,-0.299 0.0601,-0.5636 0.17992,-0.7885 0.11985,-0.2249 0.2876,-0.3995 0.50271,-0.5185 0.21881,-0.1244 0.46911,-0.1853 0.75142,-0.1853 0.27516,0 0.51858,0.061 0.73025,0.18 0.21166,0.119 0.37385,0.2857 0.48683,0.4974 0.11642,0.209 0.17462,0.4445 0.17462,0.7091 z m -0.49742,-0.1006 c 0,-0.1825 -0.0405,-0.3413 -0.12171,-0.4709 -0.0812,-0.135 -0.19235,-0.2355 -0.33337,-0.3017 -0.13759,-0.071 -0.29104,-0.1058 -0.46038,-0.1058 -0.24341,0 -0.45164,0.077 -0.62441,0.2328 -0.16934,0.1561 -0.26644,0.3704 -0.29105,0.6456 z m 5.04137,-1.2382 -1.74625,4.265 h -0.49741 l 0.5715,-1.397 -1.16946,-2.868 h 0.53446 l 0.91016,2.3495 0.89959,-2.3495 z m 1.7489,2.9474 c -0.27173,0 -0.51858,-0.061 -0.74083,-0.1852 -0.21881,-0.1243 -0.39159,-0.299 -0.51859,-0.5239 -0.12356,-0.2301 -0.18521,-0.4947 -0.18521,-0.7937 0,-0.2963 0.0635,-0.5583 0.1905,-0.7832 0.13044,-0.2302 0.30692,-0.4048 0.52917,-0.5238 0.22225,-0.1244 0.47096,-0.1853 0.74613,-0.1853 0.27516,0 0.52387,0.061 0.74612,0.1853 0.22225,0.119 0.39688,0.2936 0.52388,0.5185 0.13044,0.2249 0.19579,0.4895 0.19579,0.7885 0,0.299 -0.0669,0.5636 -0.20109,0.7937 -0.13044,0.2249 -0.30876,0.3996 -0.53445,0.5239 -0.22569,0.1244 -0.47625,0.1852 -0.75142,0.1852 z m 0,-0.4233 c 0.17277,0 0.33523,-0.04 0.48683,-0.1217 0.15161,-0.082 0.27331,-0.2037 0.36513,-0.3651 0.0953,-0.1614 0.14287,-0.3599 0.14287,-0.5927 0,-0.2328 -0.0458,-0.4313 -0.13758,-0.5927 -0.0918,-0.1614 -0.21167,-0.2831 -0.35983,-0.3598 -0.14817,-0.082 -0.30878,-0.1217 -0.48155,-0.1217 -0.17648,0 -0.33866,0.04 -0.48683,0.1217 -0.14473,0.077 -0.26115,0.1984 -0.34925,0.3598 -0.0881,0.1614 -0.13229,0.3599 -0.13229,0.5927 0,0.2355 0.0423,0.4366 0.127,0.5979 0.0881,0.1614 0.20452,0.2832 0.34925,0.3652 0.14473,0.077 0.30348,0.1164 0.47625,0.1164 z m 4.69186,-2.5241 v 2.8998 h -0.48155 v -0.4286 c -0.0918,0.1481 -0.22039,0.2646 -0.38629,0.3492 -0.16219,0.082 -0.3421,0.1217 -0.53975,0.1217 -0.22569,0 -0.42863,-0.045 -0.60854,-0.1376 -0.17992,-0.095 -0.32279,-0.2354 -0.42862,-0.4233 -0.1024,-0.1878 -0.15347,-0.4154 -0.15347,-0.6826 v -1.6986 h 0.47625 v 1.6351 c 0,0.2857 0.0722,0.5053 0.21697,0.6614 0.14472,0.1509 0.3421,0.2276 0.59266,0.2276 0.25744,0 0.46037,-0.079 0.60854,-0.2381 0.14817,-0.1588 0.22225,-0.389 0.22225,-0.6932 v -1.5928 z m 2.70536,-1.016 v 3.9158 h -0.48154 v -3.9158 z m 2.08545,3.9634 c -0.27173,0 -0.51859,-0.061 -0.74084,-0.1852 -0.21881,-0.1243 -0.39158,-0.299 -0.51858,-0.5239 -0.12356,-0.2301 -0.18521,-0.4947 -0.18521,-0.7937 0,-0.2963 0.0635,-0.5583 0.1905,-0.7832 0.13044,-0.2302 0.30692,-0.4048 0.52917,-0.5239 0.22225,-0.1243 0.47096,-0.1852 0.74612,-0.1852 0.27517,0 0.52388,0.061 0.74613,0.1852 0.222248,0.1191 0.396873,0.2937 0.523873,0.5186 0.130437,0.2249 0.195789,0.4895 0.195789,0.7885 0,0.299 -0.0672,0.5636 -0.201081,0.7937 -0.130704,0.2249 -0.308771,0.3996 -0.534461,0.5239 -0.22595,0.1244 -0.47625,0.1852 -0.75141,0.1852 z m 0,-0.4233 c 0.17277,0 0.33496,-0.04 0.48683,-0.1217 0.15161,-0.082 0.27331,-0.2037 0.36512,-0.3651 0.09525,-0.1614 0.142877,-0.3599 0.142877,-0.5927 0,-0.2328 -0.04604,-0.4313 -0.137577,-0.5927 -0.0918,-0.1614 -0.21167,-0.2831 -0.35984,-0.3598 -0.14816,-0.082 -0.30877,-0.1217 -0.48154,-0.1217 -0.17648,0 -0.33867,0.04 -0.48683,0.1217 -0.14473,0.077 -0.26115,0.1984 -0.34925,0.3598 -0.0884,0.1614 -0.13229,0.3599 -0.13229,0.5927 0,0.2355 0.0423,0.4366 0.127,0.5979 0.0881,0.1614 0.20452,0.2832 0.34925,0.3652 0.14446,0.077 0.30321,0.1164 0.47625,0.1164 z m 3.384811,0.4233 c -0.271727,0 -0.518586,-0.061 -0.740836,-0.1852 -0.218808,-0.1243 -0.391581,-0.299 -0.518581,-0.5239 -0.12356,-0.2301 -0.185208,-0.4947 -0.185208,-0.7937 0,-0.2963 0.0635,-0.5583 0.1905,-0.7832 0.130437,-0.2302 0.306914,-0.4048 0.529164,-0.5239 0.22225,-0.1243 0.470961,-0.1852 0.746125,-0.1852 0.275169,0 0.523875,0.061 0.746125,0.1852 0.22225,0.1191 0.396875,0.2937 0.523875,0.5186 0.130442,0.2249 0.195794,0.4895 0.195794,0.7885 0,0.299 -0.0672,0.5636 -0.201083,0.7937 -0.130704,0.2249 -0.308769,0.3996 -0.534461,0.5239 -0.225951,0.1244 -0.47625,0.1852 -0.751414,0.1852 z m 0,-0.4233 c 0.172773,0 0.334963,-0.04 0.486833,-0.1217 0.151604,-0.082 0.273315,-0.2037 0.365125,-0.3651 0.09525,-0.1614 0.142875,-0.3599 0.142875,-0.5927 0,-0.2328 -0.04604,-0.4313 -0.137583,-0.5927 -0.09181,-0.1614 -0.211667,-0.2831 -0.359836,-0.3598 -0.148164,-0.082 -0.308766,-0.1217 -0.481539,-0.1217 -0.176477,0 -0.338667,0.04 -0.486836,0.1217 -0.144727,0.077 -0.261141,0.1984 -0.34925,0.3598 -0.08837,0.1614 -0.132289,0.3599 -0.132289,0.5927 0,0.2355 0.04233,0.4366 0.127,0.5979 0.08811,0.1614 0.204523,0.2832 0.34925,0.3652 0.144463,0.077 0.303213,0.1164 0.47625,0.1164 z m 3.739356,0.3757 -1.137708,-1.2806 v 1.2806 h -0.481542 v -3.9158 h 0.481542 v 2.3018 l 1.116542,-1.2858 h 0.672041 l -1.36525,1.4446 1.370542,1.4552 z m 1.352815,-3.3708 c -0.09181,0 -0.169333,-0.032 -0.232833,-0.095 -0.0635,-0.063 -0.09525,-0.1403 -0.09525,-0.2329 0,-0.093 0.03175,-0.1693 0.09525,-0.2328 0.0635,-0.063 0.141022,-0.095 0.232833,-0.095 0.08811,0 0.162189,0.032 0.22225,0.095 0.0635,0.063 0.09525,0.1402 0.09525,0.2328 0,0.093 -0.03175,0.1694 -0.09525,0.2329 -0.06006,0.063 -0.134144,0.095 -0.22225,0.095 z m 0.232833,0.471 v 2.8998 h -0.481541 v -2.8998 z m 2.233606,-0.053 c 0.3527,0 0.63845,0.1085 0.85725,0.3228 0.21855,0.2117 0.32809,0.5186 0.32809,0.9208 v 1.7092 h -0.47625 v -1.6404 c 0,-0.2884 -0.0725,-0.5107 -0.21696,-0.6615 -0.14473,-0.1561 -0.34237,-0.2328 -0.59266,-0.2328 -0.254,0 -0.45694,0.079 -0.60855,0.2381 -0.14817,0.1588 -0.22225,0.389 -0.22225,0.6932 v 1.6034 h -0.481541 v -2.8998 h 0.481541 v 0.4127 c 0.0953,-0.1482 0.22384,-0.2619 0.3863,-0.3439 0.16562,-0.082 0.34739,-0.1218 0.54503,-0.1218 z m 3.16786,0.01 c 0.2503,0 0.46911,0.056 0.65617,0.1641 0.1905,0.1085 0.33152,0.246 0.42333,0.4127 v -0.5291 h 0.48683 v 2.9633 c 0,0.2646 -0.0566,0.5001 -0.16933,0.7038 -0.11297,0.209 -0.27516,0.3704 -0.48683,0.4868 -0.20823,0.1164 -0.45164,0.1746 -0.73025,0.1746 -0.381,0 -0.6985,-0.09 -0.9525,-0.2698 -0.254,-0.1799 -0.40402,-0.426 -0.44979,-0.7356 h 0.47625 c 0.0529,0.1773 0.16219,0.3175 0.32808,0.4234 0.16563,0.1084 0.36513,0.164 0.59796,0.164 0.26458,0 0.47969,-0.082 0.64558,-0.2487 0.16934,-0.1667 0.254,-0.3995 0.254,-0.6985 v -0.6085 c -0.0953,0.1693 -0.23653,0.3095 -0.42333,0.4233 -0.18706,0.1138 -0.40587,0.1693 -0.65617,0.1693 -0.2577,0 -0.49212,-0.063 -0.70379,-0.1905 -0.20823,-0.127 -0.37227,-0.3042 -0.49212,-0.5344 -0.12012,-0.2302 -0.17992,-0.4895 -0.17992,-0.7832 0,-0.2963 0.0598,-0.5556 0.17992,-0.7779 0.11985,-0.2249 0.28389,-0.3995 0.49212,-0.5239 0.21167,-0.1243 0.44609,-0.1852 0.70379,-0.1852 z m 1.0795,1.4923 c 0,-0.2196 -0.0442,-0.4101 -0.13229,-0.5715 -0.0884,-0.1614 -0.20823,-0.2858 -0.35983,-0.3704 -0.14817,-0.087 -0.31221,-0.1323 -0.49213,-0.1323 -0.17991,0 -0.34396,0.042 -0.49212,0.127 -0.14817,0.085 -0.26644,0.209 -0.35454,0.3704 -0.0884,0.1614 -0.1323,0.3519 -0.1323,0.5715 0,0.2222 0.0439,0.4154 0.1323,0.5821 0.0881,0.1614 0.20637,0.2884 0.35454,0.3757 0.14816,0.085 0.31221,0.127 0.49212,0.127 0.17992,0 0.34396,-0.042 0.49213,-0.127 0.1516,-0.087 0.27146,-0.2143 0.35983,-0.3757 0.0881,-0.1667 0.13229,-0.3572 0.13229,-0.5768 z m 3.89123,-1.0478 h -0.60854 v 2.503 h -0.48155 v -2.503 h -0.3757 v -0.3968 h 0.3757 v -0.2064 c 0,-0.3254 0.0831,-0.5609 0.24871,-0.7091 0.16934,-0.1508 0.43921,-0.2275 0.80963,-0.2275 v 0.4021 c -0.21167,0 -0.36142,0.042 -0.44979,0.127 -0.0847,0.082 -0.127,0.217 -0.127,0.4075 v 0.2064 h 0.60854 z m 1.82615,2.5506 c -0.27146,0 -0.51858,-0.061 -0.74083,-0.1852 -0.21855,-0.1243 -0.39158,-0.299 -0.51858,-0.5239 -0.1233,-0.2301 -0.18521,-0.4947 -0.18521,-0.7937 0,-0.2963 0.0635,-0.5583 0.1905,-0.7832 0.1307,-0.2302 0.30691,-0.4048 0.52916,-0.5238 0.22225,-0.1244 0.47096,-0.1853 0.74613,-0.1853 0.27517,0 0.52387,0.061 0.74612,0.1853 0.22225,0.119 0.39688,0.2936 0.52388,0.5185 0.1307,0.2249 0.19579,0.4895 0.19579,0.7885 0,0.299 -0.0669,0.5636 -0.20108,0.7937 -0.13044,0.2249 -0.30851,0.3996 -0.53446,0.5239 -0.22569,0.1244 -0.47625,0.1852 -0.75142,0.1852 z m 0,-0.4233 c 0.17304,0 0.33523,-0.04 0.48684,-0.1217 0.15187,-0.082 0.27357,-0.2037 0.36512,-0.3651 0.0952,-0.1614 0.14288,-0.3599 0.14288,-0.5927 0,-0.2328 -0.0458,-0.4313 -0.13759,-0.5927 -0.0916,-0.1614 -0.21166,-0.2831 -0.35983,-0.3598 -0.14817,-0.082 -0.30851,-0.1217 -0.48154,-0.1217 -0.17622,0 -0.33867,0.04 -0.48684,0.1217 -0.14446,0.077 -0.26088,0.1984 -0.34925,0.3598 -0.0881,0.1614 -0.13229,0.3599 -0.13229,0.5927 0,0.2355 0.0423,0.4366 0.127,0.5979 0.0884,0.1614 0.20479,0.2832 0.34925,0.3652 0.14473,0.077 0.30348,0.1164 0.47625,0.1164 z m 2.60165,-2.0532 c 0.0847,-0.1667 0.20479,-0.2937 0.35983,-0.3863 0.15875,-0.093 0.35111,-0.1376 0.5768,-0.1376 v 0.4975 h -0.127 c -0.53975,0 -0.80963,0.2937 -0.80963,0.8784 v 1.5769 h -0.48154 v -2.8998 h 0.48154 z m 2.43443,-1.307 c 0.34925,0 0.63156,0.098 0.84667,0.2963 0.2151,0.1985 0.32279,0.463 0.32279,0.7938 0,0.3704 -0.11456,0.6455 -0.34396,0.8255 -0.22939,0.1772 -0.53975,0.2645 -0.93133,0.2645 l -0.0159,0.5028 h -0.41804 l -0.0212,-0.8361 h 0.15346 c 0.34925,0 0.62256,-0.053 0.8202,-0.1588 0.19765,-0.1058 0.29634,-0.3042 0.29634,-0.5979 0,-0.2117 -0.0635,-0.3784 -0.1905,-0.5027 -0.127,-0.1244 -0.29819,-0.1853 -0.51329,-0.1853 -0.21882,0 -0.39159,0.061 -0.51859,0.18 -0.12356,0.1164 -0.18521,0.2778 -0.18521,0.4815 h -0.45508 c 0,-0.2117 0.0476,-0.3969 0.14288,-0.5556 0.0953,-0.1614 0.22939,-0.2884 0.40216,-0.3757 0.17648,-0.087 0.37915,-0.1323 0.60854,-0.1323 z m -0.33337,3.7676 c -0.0918,0 -0.16934,-0.032 -0.23284,-0.095 -0.0635,-0.063 -0.0952,-0.1402 -0.0952,-0.2328 0,-0.093 0.0317,-0.1694 0.0952,-0.2329 0.0635,-0.064 0.14103,-0.095 0.23284,-0.095 0.0881,0 0.16219,0.032 0.22225,0.095 0.0635,0.063 0.0953,0.1403 0.0953,0.2329 0,0.093 -0.0318,0.1693 -0.0953,0.2328 -0.0601,0.063 -0.13415,0.095 -0.22225,0.095 z"
       fill="#ffffff"
       id="path214" />
    <path
       style="stroke-width:0.264583"
       d="m -140.76403,-187.21647 h 107.950001 c 2.92259,0 5.29166,2.368 5.29166,5.2916 v 13.2292 H -135.47237 c -2.92251,0 -5.29166,-2.368 -5.29166,-5.2917 z"
       fill="#ffffff"
       id="path216" />
    <path
       style="stroke-width:0.264583"
       d="m -123.85504,-228.58407 v 13.8509 h -3.37397 v -8.3053 l -3.09774,8.3053 h -2.72283 l -3.11729,-8.3264 v 8.3264 h -3.37389 v -13.8509 h 3.98555 l 3.88676,9.5885 3.84757,-9.5885 z m 12.80424,8.1677 c 0,0.3175 -0.0196,0.6455 -0.059,0.9869 h -7.63587 c 0.0526,0.6852 0.26987,1.2118 0.65114,1.5795 0.39475,0.3546 0.87471,0.5318 1.44039,0.5318 0.8419,0 1.42716,-0.3545 1.75604,-1.0662 h 3.59092 c -0.18415,0.7249 -0.51964,1.3758 -1.00621,1.9552 -0.4736,0.5768 -1.07209,1.0319 -1.79546,1.36 -0.72364,0.3307 -1.53247,0.4948 -2.42702,0.4948 -1.07845,0 -2.03862,-0.2302 -2.88052,-0.6906 -0.84191,-0.4604 -1.4994,-1.1192 -1.973,-1.9738 -0.4736,-0.8546 -0.71041,-1.8547 -0.71041,-3.0004 0,-1.143 0.23019,-2.1431 0.69057,-2.9977 0.4736,-0.8546 1.13135,-1.5134 1.97299,-1.9738 0.84191,-0.4604 1.8087,-0.6905 2.90037,-0.6905 1.06547,0 2.01268,0.2249 2.84136,0.672 0.82867,0.4471 1.4732,1.0848 1.93357,1.9129 0.47334,0.8282 0.71014,1.7966 0.71014,2.8999 z m -3.45281,-0.8864 c 0,-0.5794 -0.19712,-1.0398 -0.59187,-1.3811 -0.3945,-0.3413 -0.88795,-0.5133 -1.47982,-0.5133 -0.56541,0 -1.04563,0.164 -1.44013,0.4921 -0.38152,0.3307 -0.61833,0.7964 -0.7104,1.4023 z m 4.56195,1.0451 c 0,-1.1324 0.21034,-2.1246 0.63129,-2.9792 0.43418,-0.8546 1.01944,-1.5134 1.75604,-1.9738 0.7366,-0.4604 1.55866,-0.6905 2.46645,-0.6905 0.72337,0 1.38112,0.1508 1.973,0.455 0.6051,0.3017 1.07844,0.7091 1.42054,1.2224 v -5.1091 h 3.373972 v 14.5997 h -3.373972 v -1.5795 c -0.31564,0.5265 -0.7694,0.9472 -1.36154,1.2647 -0.57865,0.3148 -1.25598,0.4736 -2.032,0.4736 -0.90779,0 -1.72985,-0.2302 -2.46645,-0.6906 -0.7366,-0.4736 -1.32186,-1.1377 -1.75604,-1.995 -0.42095,-0.8678 -0.63129,-1.8653 -0.63129,-2.9977 z m 8.24732,0.018 c 0,-0.8413 -0.2368,-1.5054 -0.7104,-1.9923 -0.46038,-0.4868 -1.02579,-0.7302 -1.69677,-0.7302 -0.67072,0 -1.24302,0.2434 -1.71662,0.7302 -0.46038,0.4736 -0.69056,1.1324 -0.69056,1.9738 0,0.8414 0.23018,1.5134 0.69056,2.0135 0.4736,0.4868 1.0459,0.7302 1.71662,0.7302 0.67098,0 1.23639,-0.2434 1.69677,-0.7302 0.4736,-0.4868 0.7104,-1.1509 0.7104,-1.995 z m 16.192771,-0.1772 c 0,0.3175 -0.0196,0.6455 -0.059,0.9869 h -7.635608 c 0.05239,0.6852 0.269607,1.2118 0.650875,1.5795 0.394755,0.3546 0.874709,0.5318 1.440391,0.5318 0.841902,0 1.427162,-0.3545 1.756042,-1.0662 h 3.59092 c -0.18415,0.7249 -0.51964,1.3758 -1.00621,1.9552 -0.4736,0.5768 -1.07209,1.0319 -1.79546,1.36 -0.72337,0.3307 -1.53247,0.4948 -2.42676,0.4948 -1.078705,0 -2.038878,-0.2302 -2.880782,-0.6906 -0.841907,-0.4604 -1.499393,-1.1192 -1.972998,-1.9738 -0.473604,-0.8546 -0.710409,-1.8547 -0.710409,-3.0004 0,-1.143 0.230191,-2.1431 0.690566,-2.9977 0.473601,-0.8546 1.131355,-1.5134 1.973259,-1.9738 0.84164,-0.4604 1.80843,-0.6905 2.900364,-0.6905 1.06521,0 2.01242,0.2248 2.8411,0.672 0.82867,0.4471 1.4732,1.0848 1.93357,1.9129 0.47361,0.8282 0.71014,1.7966 0.71014,2.8999 z m -3.45281,-0.8864 c 0,-0.5794 -0.19712,-1.0398 -0.59188,-1.3811 -0.39449,-0.3413 -0.88767,-0.5133 -1.47981,-0.5133 -0.565416,0 -1.045635,0.164 -1.440131,0.4921 -0.381526,0.3307 -0.618329,0.7964 -0.710404,1.4023 z m 11.74379,6.5696 -2.11111,-3.0586 -1.77562,3.0586 h -3.65019 l 3.63035,-5.6224 -3.72904,-5.3869 h 3.7883 l 2.11111,3.0374 1.77562,-3.0374 h 3.65019 l -3.68961,5.543 3.7883,5.4663 z"
       fill="#ffffff"
       id="path218" />
    <path
       style="fill:#f2f2f2"
       d="m -33.839289,-174.22017 -1.92881,-1.9314 z m -0.8599,-4.5138 c 0,0.971 -0.38497,1.8997 -1.0705,2.585 -0.68527,0.6853 -1.61475,1.0716 -2.58419,1.0716 -0.96917,0 -1.89865,-0.3863 -2.58392,-1.0716 -0.68553,-0.6853 -1.0705,-1.614 -1.0705,-2.585 0,-0.9684 0.38497,-1.897 1.0705,-2.5823 0.68527,-0.6853 1.61475,-1.0716 2.58392,-1.0716 0.96944,0 1.89892,0.3863 2.58419,1.0716 0.68553,0.6853 1.0705,1.6139 1.0705,2.5823 z"
       stroke="#2f3c7e"
       stroke-width="0.859896"
       stroke-linecap="round"
       id="path220" />
    <path
       style="stroke-width:0.264583"
       fill-rule="evenodd"
       clip-rule="evenodd"
       d="m 124.67126,-179.93517 c 0.46831,-0.021 0.61647,-0.026 1.80445,-0.026 1.18798,0 1.3388,0.01 1.80446,0.026 0.46567,0.021 0.78317,0.095 1.06363,0.2037 0.29104,0.1085 0.55562,0.2831 0.77258,0.5054 0.2249,0.217 0.39688,0.4815 0.50535,0.7726 0.10848,0.2804 0.18257,0.5979 0.20373,1.0636 0.0212,0.4683 0.0265,0.6165 0.0265,1.8045 0,1.1879 -0.005,1.3361 -0.0265,1.8044 -0.0212,0.4657 -0.0952,0.7832 -0.20373,1.061 -0.10847,0.291 -0.2831,0.5556 -0.50535,0.7752 -0.21696,0.2223 -0.48154,0.3943 -0.77258,0.5054 -0.28046,0.1085 -0.59796,0.1826 -1.06363,0.2037 -0.46566,0.021 -0.61648,0.026 -1.80446,0.026 -1.18798,0 -1.33614,-0.01 -1.80445,-0.026 -0.46567,-0.021 -0.78317,-0.095 -1.06098,-0.2037 -0.29105,-0.1111 -0.55563,-0.2831 -0.77523,-0.5054 -0.22225,-0.2169 -0.39423,-0.4815 -0.50536,-0.7752 -0.10848,-0.2778 -0.18256,-0.5953 -0.20373,-1.061 -0.0212,-0.4683 -0.0265,-0.6165 -0.0265,-1.8044 0,-1.188 0.005,-1.3388 0.0265,-1.8045 0.0212,-0.4657 0.0953,-0.7832 0.20373,-1.0636 0.11113,-0.2911 0.28311,-0.5556 0.50536,-0.7726 0.2196,-0.2249 0.48154,-0.3969 0.77523,-0.5054 0.27781,-0.1084 0.59531,-0.1825 1.06098,-0.2037 z m 3.57187,0.7885 c -0.46037,-0.021 -0.59796,-0.026 -1.76742,-0.026 -1.16681,0 -1.30704,0.01 -1.76741,0.026 -0.42598,0.019 -0.65882,0.09 -0.81227,0.1508 -0.20373,0.079 -0.3519,0.172 -0.50271,0.3254 -0.14552,0.1429 -0.25929,0.3149 -0.32809,0.5027 -0.0609,0.1561 -0.13229,0.3863 -0.15081,0.8149 -0.0212,0.4604 -0.0265,0.598 -0.0265,1.7675 0,1.1668 0.005,1.307 0.0265,1.7674 0.0185,0.426 0.09,0.6588 0.15081,0.8123 0.0688,0.1905 0.18257,0.3624 0.32809,0.5027 0.14023,0.1455 0.31221,0.2593 0.50271,0.328 0.15345,0.061 0.38629,0.1323 0.81227,0.1509 0.46037,0.021 0.59796,0.026 1.76741,0.026 1.16946,0 1.30705,-0.01 1.76742,-0.026 0.42863,-0.019 0.65881,-0.09 0.81492,-0.1509 0.20373,-0.079 0.34925,-0.1746 0.50271,-0.328 0.14552,-0.1403 0.25664,-0.3122 0.32543,-0.5027 0.0608,-0.1535 0.13229,-0.3863 0.15082,-0.8123 0.0212,-0.4604 0.0265,-0.6006 0.0265,-1.7674 0,-1.1695 -0.005,-1.3071 -0.0265,-1.7675 -0.0185,-0.4286 -0.09,-0.6588 -0.15082,-0.8149 -0.0794,-0.2037 -0.17198,-0.3492 -0.32543,-0.5027 -0.14288,-0.1455 -0.31486,-0.2566 -0.50271,-0.3254 -0.15611,-0.061 -0.38629,-0.1323 -0.81492,-0.1508 z m -2.32569,4.9106 c 0.31221,0.1297 0.65882,0.1456 0.98425,0.048 0.32279,-0.098 0.60325,-0.3043 0.79111,-0.5848 0.18785,-0.2804 0.26987,-0.6191 0.23812,-0.9551 -0.0344,-0.336 -0.18256,-0.6509 -0.42333,-0.889 -0.15081,-0.1535 -0.33602,-0.2699 -0.53975,-0.344 -0.20373,-0.071 -0.42069,-0.098 -0.635,-0.077 -0.21431,0.021 -0.42069,0.09 -0.6059,0.2011 -0.18521,0.1111 -0.34396,0.2619 -0.46566,0.4392 -0.11907,0.1799 -0.19844,0.3836 -0.23019,0.598 -0.0317,0.2143 -0.0132,0.4312 0.0476,0.6376 0.0635,0.2064 0.17198,0.3969 0.31485,0.5556 0.14552,0.1614 0.32544,0.2858 0.52388,0.3704 z m -1.03187,-2.9395 c 0.20902,-0.209 0.45773,-0.3757 0.73025,-0.4868 0.27252,-0.1138 0.56621,-0.172 0.85989,-0.172 0.29634,0 0.58738,0.058 0.8599,0.172 0.27517,0.1111 0.52123,0.2778 0.73025,0.4868 0.20902,0.209 0.37571,0.4551 0.48683,0.7303 0.11377,0.2725 0.17198,0.5635 0.17198,0.8599 0,0.2937 -0.0582,0.5873 -0.17198,0.8599 -0.11112,0.2725 -0.27781,0.5212 -0.48683,0.7302 -0.42069,0.4207 -0.99219,0.6588 -1.59015,0.6588 -0.59531,0 -1.16945,-0.2381 -1.59014,-0.6588 -0.42069,-0.4207 -0.65881,-0.9948 -0.65881,-1.5901 0,-0.598 0.23812,-1.1695 0.65881,-1.5902 z m 4.33916,-0.3254 c 0.0503,-0.048 0.0926,-0.1058 0.12171,-0.172 0.0291,-0.063 0.0423,-0.1349 0.045,-0.2064 0,-0.071 -0.0132,-0.1402 -0.0397,-0.2063 -0.0265,-0.066 -0.0661,-0.127 -0.11641,-0.1773 -0.0503,-0.05 -0.11113,-0.09 -0.17727,-0.1164 -0.0661,-0.026 -0.13491,-0.04 -0.20638,-0.04 -0.0714,0 -0.14287,0.016 -0.20637,0.045 -0.0661,0.029 -0.12436,0.071 -0.17198,0.1217 -0.0952,0.1005 -0.14817,0.2354 -0.14552,0.373 0.003,0.1376 0.0582,0.2699 0.1561,0.3678 0.0979,0.098 0.23019,0.1535 0.36777,0.1561 0.13759,0 0.27252,-0.05 0.37306,-0.1455 z"
       fill="#ffffff"
       id="path222" />
    <path
       style="stroke-width:0.264583"
       d="m 150.8994,-172.00557 v -3.2623 h 1.10067 l 0.16139,-1.2753 h -1.26206 v -0.8123 c 0,-0.3704 0.10319,-0.6218 0.62971,-0.6218 h 0.67204 v -1.1377 c -0.32808,-0.034 -0.65352,-0.053 -0.9816,-0.05 -0.97367,0 -1.64042,0.5926 -1.64042,1.6827 v 0.9366 h -1.09273 v 1.2753 h 1.09538 v 3.265 z"
       fill="#ffffff"
       id="path224" />
    <path
       style="stroke-width:0.264583"
       d="m 179.26273,-177.92697 c -0.27516,0.1217 -0.57414,0.2064 -0.88635,0.2434 0.32279,-0.1931 0.56356,-0.4974 0.67998,-0.8546 -0.30427,0.1799 -0.635,0.3069 -0.9816,0.3731 -0.23284,-0.2461 -0.53975,-0.4128 -0.87578,-0.4683 -0.33602,-0.053 -0.67997,0 -0.9816,0.164 -0.29898,0.1588 -0.5371,0.4154 -0.67733,0.725 -0.14023,0.3095 -0.17463,0.6588 -0.0953,0.9895 -0.61383,-0.032 -1.21708,-0.1905 -1.76477,-0.4683 -0.54768,-0.2778 -1.03187,-0.6694 -1.41816,-1.1457 -0.13494,0.2276 -0.20902,0.4948 -0.20902,0.7753 0,0.254 0.0609,0.5053 0.18256,0.7302 0.11906,0.2249 0.29104,0.4154 0.50271,0.5557 -0.24342,-0.01 -0.48419,-0.074 -0.6985,-0.1932 v 0.021 c 0,0.3545 0.1217,0.7011 0.34925,0.9763 0.22489,0.2778 0.53975,0.4657 0.889,0.5371 -0.22755,0.061 -0.46567,0.071 -0.6985,0.026 0.10054,0.307 0.29104,0.5742 0.55033,0.7673 0.25929,0.1932 0.5715,0.299 0.89429,0.3043 -0.54769,0.4313 -1.22237,0.6641 -1.91823,0.6615 -0.12435,0 -0.24606,-0.01 -0.37041,-0.021 0.70643,0.4551 1.52929,0.6959 2.36802,0.6932 2.84162,0 4.39473,-2.3521 4.39473,-4.3921 0,-0.066 -0.003,-0.13491 -0.005,-0.2011 0.30162,-0.2169 0.56356,-0.4894 0.76994,-0.799 z"
       fill="#ffffff"
       id="path226" />
  </g>
</svg>
